<svg xmlns="http://www.w3.org/2000/svg" xmlns:xlink="http://www.w3.org/1999/xlink" viewBox="0 0 164.43 302.27"><defs><style>.cls-1,.cls-16,.cls-17{fill:none;}.cls-2{isolation:isolate;}.cls-3{fill:#838383;}.cls-4{clip-path:url(#clip-path);}.cls-5{fill:#858585;}.cls-6{fill:#8a8a8a;}.cls-7{fill:#8f8f8f;}.cls-8{fill:#949494;}.cls-9{clip-path:url(#clip-path-2);}.cls-10{clip-path:url(#clip-path-3);}.cls-11{fill:#f8f8f8;}.cls-12{clip-path:url(#clip-path-4);}.cls-13{fill:#fff;}.cls-14{fill:#3b5f9e;}.cls-15{fill:#f5c3ba;}.cls-16{stroke:#ed1846;stroke-linecap:round;stroke-width:2px;}.cls-16,.cls-17{stroke-miterlimit:10;}.cls-17{stroke:#fff;stroke-width:4px;}.cls-18{fill:#969696;}.cls-19{clip-path:url(#clip-path-5);}.cls-20{clip-path:url(#clip-path-6);}.cls-21{clip-path:url(#clip-path-7);}.cls-22{fill:#897721;}.cls-23{clip-path:url(#clip-path-8);}.cls-24{clip-path:url(#clip-path-9);}.cls-25{clip-path:url(#clip-path-10);}.cls-26{fill:#847220;}.cls-27{clip-path:url(#clip-path-11);}.cls-28{clip-path:url(#clip-path-12);}.cls-29{fill:#8e7b22;}.cls-30{clip-path:url(#clip-path-13);}.cls-31{clip-path:url(#clip-path-14);}.cls-32{clip-path:url(#clip-path-15);}.cls-33{fill:#959595;}.cls-34{clip-path:url(#clip-path-16);}.cls-35{clip-path:url(#clip-path-17);}.cls-36{clip-path:url(#clip-path-18);}.cls-37{fill:#989898;}.cls-38{clip-path:url(#clip-path-19);}.cls-39{clip-path:url(#clip-path-20);}.cls-40{clip-path:url(#clip-path-21);}.cls-41{fill:#958124;}.cls-42{clip-path:url(#clip-path-22);}.cls-43{fill:#f9d93c;}.cls-44{clip-path:url(#clip-path-23);}.cls-45{clip-path:url(#clip-path-24);}.cls-46{clip-path:url(#clip-path-25);}.cls-47{clip-path:url(#clip-path-26);}.cls-48{clip-path:url(#clip-path-27);}.cls-49{clip-path:url(#clip-path-28);}.cls-50{clip-path:url(#clip-path-29);}.cls-51{clip-path:url(#clip-path-30);}.cls-52{clip-path:url(#clip-path-31);}.cls-53{clip-path:url(#clip-path-32);}.cls-54{clip-path:url(#clip-path-33);}.cls-55{clip-path:url(#clip-path-34);}.cls-56{clip-path:url(#clip-path-35);}.cls-57{clip-path:url(#clip-path-36);}.cls-58{clip-path:url(#clip-path-37);}.cls-59{clip-path:url(#clip-path-38);}.cls-60{fill:#958224;}.cls-61{clip-path:url(#clip-path-39);}.cls-62{fill:#978424;}.cls-63{clip-path:url(#clip-path-40);}.cls-64{clip-path:url(#clip-path-41);}.cls-65{clip-path:url(#clip-path-42);}.cls-66{fill:#979797;}.cls-67{clip-path:url(#clip-path-43);}.cls-68{clip-path:url(#clip-path-44);}.cls-69{clip-path:url(#clip-path-45);}.cls-70{clip-path:url(#clip-path-46);}.cls-71{clip-path:url(#clip-path-47);}.cls-72{clip-path:url(#clip-path-48);}.cls-73{clip-path:url(#clip-path-49);}.cls-74{clip-path:url(#clip-path-50);}.cls-75{fill:#9f9f9f;}.cls-76{clip-path:url(#clip-path-51);}.cls-77{clip-path:url(#clip-path-52);}.cls-78{clip-path:url(#clip-path-53);}.cls-79{clip-path:url(#clip-path-54);}.cls-80{clip-path:url(#clip-path-55);}.cls-81{clip-path:url(#clip-path-56);}.cls-82{clip-path:url(#clip-path-57);}.cls-83{fill:#9d8926;}.cls-84{clip-path:url(#clip-path-58);}.cls-85{clip-path:url(#clip-path-59);}.cls-86{clip-path:url(#clip-path-60);}.cls-87{clip-path:url(#clip-path-61);}.cls-88{clip-path:url(#clip-path-62);}.cls-89{clip-path:url(#clip-path-63);}.cls-90{clip-path:url(#clip-path-64);}.cls-91{clip-path:url(#clip-path-65);}.cls-92{clip-path:url(#clip-path-66);}.cls-93{clip-path:url(#clip-path-67);}.cls-94{clip-path:url(#clip-path-68);}.cls-95{clip-path:url(#clip-path-69);}.cls-96{clip-path:url(#clip-path-70);}.cls-97{fill:#9c9c9c;}.cls-98{clip-path:url(#clip-path-71);}.cls-99{clip-path:url(#clip-path-72);}.cls-100{clip-path:url(#clip-path-73);}.cls-101{clip-path:url(#clip-path-74);}.cls-102{clip-path:url(#clip-path-75);}.cls-103{clip-path:url(#clip-path-76);}.cls-104{fill:#9b8725;}.cls-105{clip-path:url(#clip-path-77);}.cls-106{clip-path:url(#clip-path-78);}.cls-107{clip-path:url(#clip-path-79);}.cls-108{clip-path:url(#clip-path-80);}.cls-109{clip-path:url(#clip-path-81);}.cls-110{clip-path:url(#clip-path-82);}.cls-111{clip-path:url(#clip-path-83);}.cls-112{clip-path:url(#clip-path-84);}.cls-113{clip-path:url(#clip-path-85);}.cls-114{clip-path:url(#clip-path-86);}.cls-115{clip-path:url(#clip-path-87);}.cls-116{clip-path:url(#clip-path-88);}.cls-117{fill:#fbfbfb;}</style><clipPath id="clip-path"><path class="cls-1" d="M75.67,269.81,46.41,258.48a18,18,0,0,0,9.44.73q10-1.59,15.29-9T79,229.72l29.25,11.33q-2.6,13-7.86,20.45t-15.29,9A18,18,0,0,1,75.67,269.81Z"/></clipPath><clipPath id="clip-path-2"><path class="cls-1" d="M67.54,183.68,96.79,195l.69.29a16.49,16.49,0,0,1,7,6.14,28.44,28.44,0,0,1,3.19,8.37L78.41,198.48a28.65,28.65,0,0,0-3.18-8.37,16.41,16.41,0,0,0-7-6.14C68,183.86,67.77,183.77,67.54,183.68Z"/></clipPath><clipPath id="clip-path-3"><path class="cls-1" d="M85.78,153.86,115,165.18q-10.83-4.19-27.13-1.61L58.66,152.25Q74.95,149.67,85.78,153.86Z"/></clipPath><clipPath id="clip-path-4"><path class="cls-1" d="M56.48,299.56,27.23,288.24q-11.54-4.47-19.65-19T0,229.87q.75-33.06,16.05-53.18t42.57-24.44l29.25,11.32Q60.65,167.89,45.34,188T29.29,241.19q-.55,24.8,7.55,39.36T56.48,299.56Z"/></clipPath><clipPath id="clip-path-5"><path class="cls-1" d="M148,49c1.62-.31,2.86-.51,3.74-.63l2.4,1c-.88.12-2.12.32-3.74.63Z"/></clipPath><clipPath id="clip-path-6"><path class="cls-1" d="M155.33,34.49l-2.4-1a8.27,8.27,0,0,1,1.52-4.63l2.4,1A8.24,8.24,0,0,0,155.33,34.49Z"/></clipPath><clipPath id="clip-path-7"><path class="cls-1" d="M145.7,47.82l-2.4-1c2.56-.65,6.38-1.77,8.38-2.42l2.4,1C152.08,46.05,148.26,47.17,145.7,47.82Z"/></clipPath><clipPath id="clip-path-8"><path class="cls-1" d="M145.7,47.82l-2.4-1c.82-1.78,1.77-4.07,3.29-8l2.4,1C147.47,43.74,146.52,46,145.7,47.82Z"/></clipPath><clipPath id="clip-path-9"><path class="cls-1" d="M148.05,36.31l2.4,1c.26.11.12.36-.34.66A4.54,4.54,0,0,0,149,39.82l-2.4-1A4.54,4.54,0,0,1,147.71,37C148.17,36.67,148.31,36.42,148.05,36.31Z"/></clipPath><clipPath id="clip-path-10"><path class="cls-1" d="M148.05,36.31l2.4,1a1.3,1.3,0,0,0-.46-.06l-2.4-1A1.3,1.3,0,0,1,148.05,36.31Z"/></clipPath><clipPath id="clip-path-11"><path class="cls-1" d="M138.08,51.18c4.19-1,7.46-1.68,9.87-2.14l2.4,1c-2.41.46-5.68,1.15-9.87,2.14l-.28-.12-.3-.12-.31-.13-.31-.13-.32-.13-.31-.13-.29-.13Z"/></clipPath><clipPath id="clip-path-12"><path class="cls-1" d="M142.81,48.5l-2.4-1a46.14,46.14,0,0,0,3.77-11.59l2.4,1A46.14,46.14,0,0,1,142.81,48.5Z"/></clipPath><clipPath id="clip-path-13"><path class="cls-1" d="M146.58,36.91l-2.4-1a17.24,17.24,0,0,0,3.41.34l2.4,1A17.24,17.24,0,0,1,146.58,36.91Z"/></clipPath><clipPath id="clip-path-14"><path class="cls-1" d="M146.53,32.78l-2.4-1a26.7,26.7,0,0,0,8.8,1.71l2.4,1A26.7,26.7,0,0,1,146.53,32.78Z"/></clipPath><clipPath id="clip-path-15"><path class="cls-1" d="M146.53,32.78l-2.4-1-.26-.11,2.4,1Z"/></clipPath><clipPath id="clip-path-16"><path class="cls-1" d="M146.61,29l-2.4-1a17.18,17.18,0,0,0,9.89.9l.35-.07,2.4,1-.35.07A17.18,17.18,0,0,1,146.61,29Z"/></clipPath><clipPath id="clip-path-17"><path class="cls-1" d="M150.11,19.43l-2.4-1c1-.23,1.88-.42,2.67-.57a26.22,26.22,0,0,1,3.12-.44l2.4,1a26.22,26.22,0,0,0-3.12.44C152,19,151.11,19.2,150.11,19.43Z"/></clipPath><clipPath id="clip-path-18"><path class="cls-1" d="M151.45,23.82l-2.4-1c-.48-1.38-1-2.94-1.34-4.39l2.4,1C150.48,20.88,151,22.44,151.45,23.82Z"/></clipPath><clipPath id="clip-path-19"><path class="cls-1" d="M150,16.81l-2.39-1A41.38,41.38,0,0,0,153.49,14l2.4,1A41.17,41.17,0,0,1,150,16.81Z"/></clipPath><clipPath id="clip-path-20"><path class="cls-1" d="M142,44.16l-2.4-1c-.52-1.86-1.16-4.09-1.61-5.83l2.4,1C140.83,40.07,141.47,42.3,142,44.16Z"/></clipPath><clipPath id="clip-path-21"><path class="cls-1" d="M148.27,25.33l-2.4-1a34.28,34.28,0,0,0-.83-5.27l2.4,1A34.28,34.28,0,0,1,148.27,25.33Z"/></clipPath><clipPath id="clip-path-22"><path class="cls-1" d="M138.76,46l-2.4-1A29.48,29.48,0,0,0,135,38.79l2.4,1A29.48,29.48,0,0,1,138.76,46Z"/></clipPath><clipPath id="clip-path-23"><path class="cls-1" d="M139.78,33.45l-2.4-1c2.26-.53,3.86-1,5.2-1.45l2.4,1C143.64,32.45,142,32.92,139.78,33.45Z"/></clipPath><clipPath id="clip-path-24"><path class="cls-1" d="M146,12.52l2.4,1c.18.08.07.29-.29.66a19.09,19.09,0,0,0-2.22,3.61l-2.4-1a19.09,19.09,0,0,1,2.22-3.61C146.06,12.81,146.17,12.6,146,12.52Z"/></clipPath><clipPath id="clip-path-25"><path class="cls-1" d="M140,24.29l2.4,1c.25.1.12.37-.43.64l-2.4-1C140.14,24.66,140.27,24.39,140,24.29Z"/></clipPath><clipPath id="clip-path-26"><path class="cls-1" d="M146.61,29l-2.4-1a13.63,13.63,0,0,1-4.62-3.1l2.4,1A13.63,13.63,0,0,0,146.61,29Z"/></clipPath><clipPath id="clip-path-27"><path class="cls-1" d="M142.84,23.88l-2.4-1c.53-.92,1-1.92,1.63-3.12l2.4,1C143.88,22,143.37,23,142.84,23.88Z"/></clipPath><clipPath id="clip-path-28"><path class="cls-1" d="M140,22.68l2.4,1a2.71,2.71,0,0,1,.42.2l-2.4-1A2.71,2.71,0,0,0,140,22.68Z"/></clipPath><clipPath id="clip-path-29"><path class="cls-1" d="M145,32l-2.4-1a15.28,15.28,0,0,1-4.69-4.21l2.4,1A15.28,15.28,0,0,0,145,32Z"/></clipPath><clipPath id="clip-path-30"><path class="cls-1" d="M146,12.52l2.4,1a.94.94,0,0,0-.4,0,14.26,14.26,0,0,1-3.23-.16l-2.4-1a13.19,13.19,0,0,0,3.23.16A.94.94,0,0,1,146,12.52Z"/></clipPath><clipPath id="clip-path-31"><path class="cls-1" d="M140,22.68l2.4,1a4.62,4.62,0,0,0-2.25-.32l-2.4-1A4.62,4.62,0,0,1,140,22.68Z"/></clipPath><clipPath id="clip-path-32"><path class="cls-1" d="M140.17,23.36l-2.4-1c1.89-2.38,3.67-6.81,4.59-10l2.4,1C143.84,16.55,142.06,21,140.17,23.36Z"/></clipPath><clipPath id="clip-path-33"><path class="cls-1" d="M134.79,47.14l-2.4-1a53.32,53.32,0,0,1-2.12-6l2.4,1A51.4,51.4,0,0,0,134.79,47.14Z"/></clipPath><clipPath id="clip-path-34"><path class="cls-1" d="M124,55c2.19-.74,6.64-2,14.13-3.78l2.4,1C133,54,128.54,55.22,126.34,56Z"/></clipPath><clipPath id="clip-path-35"><path class="cls-1" d="M133.29,38.29l-2.4-1a45.48,45.48,0,0,1,6.5-1.89c1.48-.34,2.68-.61,3.72-.81s2-.33,2.77-.41l2.4,1c-.81.08-1.7.21-2.77.41s-2.24.46-3.72.81A45.48,45.48,0,0,0,133.29,38.29Z"/></clipPath><clipPath id="clip-path-36"><path class="cls-1" d="M134.81,34.41l-2.4-1c.67-.09,1.4-.21,2.24-.37s1.7-.34,2.73-.59l2.4,1c-1,.24-1.93.43-2.73.59S135.47,34.32,134.81,34.41Z"/></clipPath><clipPath id="clip-path-37"><path class="cls-1" d="M134.81,34.41l-2.4-1c2-2.25,3.92-4.58,5.48-6.62l2.4,1C138.73,29.83,136.84,32.16,134.81,34.41Z"/></clipPath><clipPath id="clip-path-38"><path class="cls-1" d="M140,24.29l2.4,1a.87.87,0,0,0-.31-.05,16.65,16.65,0,0,1-3.61-.47l-2.4-1a16.65,16.65,0,0,0,3.61.47A.83.83,0,0,1,140,24.29Z"/></clipPath><clipPath id="clip-path-39"><path class="cls-1" d="M126.34,52l-2.4-1c1.32-.21,3.42-.57,5.44-1,1.32-.26,2.61-.52,3.61-.76l2.4,1c-1,.24-2.29.5-3.61.76C129.76,51.39,127.66,51.75,126.34,52Z"/></clipPath><clipPath id="clip-path-40"><path class="cls-1" d="M131.72,49l-2.4-1a31,31,0,0,0-1.94-6.06l2.4,1A31,31,0,0,1,131.72,49Z"/></clipPath><clipPath id="clip-path-41"><path class="cls-1" d="M120.64,39.55l2.4,1a5.1,5.1,0,0,1,2.36,2.59l-2.4-1A5.08,5.08,0,0,0,120.64,39.55Z"/></clipPath><clipPath id="clip-path-42"><path class="cls-1" d="M122.94,40.52l-2.39-1C127,36,133.85,29.06,136.1,23.77l2.4,1C136.25,30.06,129.43,37,122.94,40.52Z"/></clipPath><clipPath id="clip-path-43"><path class="cls-1" d="M135.8,27l-2.4-1c-.37-1.06-.74-2.29-1.16-3.69l2.4,1C135.06,24.75,135.43,26,135.8,27Z"/></clipPath><clipPath id="clip-path-44"><path class="cls-1" d="M134.64,23.35l-2.4-1c.85-.2,1.59-.36,2.25-.48a21.42,21.42,0,0,1,3-.4l2.4,1a21.42,21.42,0,0,0-3,.4Q135.9,23,134.64,23.35Z"/></clipPath><clipPath id="clip-path-45"><path class="cls-1" d="M125.4,43.14l-2.4-1A64.29,64.29,0,0,0,130.89,35l2.4,1A63.38,63.38,0,0,1,125.4,43.14Z"/></clipPath><clipPath id="clip-path-46"><path class="cls-1" d="M134.27,20.8l-2.4-1a34.09,34.09,0,0,0,5.6-1.73l2.4,1A34.09,34.09,0,0,1,134.27,20.8Z"/></clipPath><clipPath id="clip-path-47"><path class="cls-1" d="M132.69,28.65l-2.4-1a35.7,35.7,0,0,0-.68-4.68l2.4,1A35.7,35.7,0,0,1,132.69,28.65Z"/></clipPath><clipPath id="clip-path-48"><path class="cls-1" d="M131.69,16.34l2.4,1a.68.68,0,0,0-.27-.05l-2.4-1A.68.68,0,0,1,131.69,16.34Z"/></clipPath><clipPath id="clip-path-49"><path class="cls-1" d="M131.69,16.34l2.4,1c.26.1.21.39-.23.74a13.88,13.88,0,0,0-2.41,3.38l-2.4-1a13.88,13.88,0,0,1,2.41-3.38C131.9,16.73,132,16.44,131.69,16.34Z"/></clipPath><clipPath id="clip-path-50"><path class="cls-1" d="M120.64,39.55l2.4,1-.1,0-2.39-1Z"/></clipPath><clipPath id="clip-path-51"><path class="cls-1" d="M126.31,30.12l-2.4-1c.78-1.2,2-3.15,3.4-5.61l2.4,1C128.27,27,127.09,28.92,126.31,30.12Z"/></clipPath><clipPath id="clip-path-52"><path class="cls-1" d="M130.33,16.75l-2.4-1a18.33,18.33,0,0,0,3.49.54l2.4,1A19.16,19.16,0,0,1,130.33,16.75Z"/></clipPath><clipPath id="clip-path-53"><path class="cls-1" d="M122.46,28.12l2.4,1a4.18,4.18,0,0,1,1.45,1l-2.4-1A4.18,4.18,0,0,0,122.46,28.12Z"/></clipPath><clipPath id="clip-path-54"><path class="cls-1" d="M122.46,28.12l2.4,1a5.08,5.08,0,0,0-1.19-.32l-2.4-1A5.08,5.08,0,0,1,122.46,28.12Z"/></clipPath><clipPath id="clip-path-55"><path class="cls-1" d="M123.67,28.8l-2.4-1c2.41-2.28,5.18-7.47,6.66-12l2.4,1C128.85,21.33,126.08,26.52,123.67,28.8Z"/></clipPath><clipPath id="clip-path-56"><path class="cls-1" d="M119.84,50.28l-2.4-1c-2-3.32-3.72-5.91-5.84-8.93l2.4,1C116.12,44.37,117.83,47,119.84,50.28Z"/></clipPath><clipPath id="clip-path-57"><path class="cls-1" d="M104.57,62.6l-2.4-1c4.86-2.29,5.27-3.31,5.27-5.52l2.4,1C109.84,59.29,109.43,60.31,104.57,62.6Z"/></clipPath><clipPath id="clip-path-58"><path class="cls-1" d="M116.92,53.44l-2.4-1a35.56,35.56,0,0,0-5.32-9.54l2.39,1A35.3,35.3,0,0,1,116.92,53.44Z"/></clipPath><clipPath id="clip-path-59"><path class="cls-1" d="M104.57,62.6l-2.4-1a6,6,0,0,0-1.85-3.83l2.4,1A6,6,0,0,1,104.57,62.6Z"/></clipPath><clipPath id="clip-path-60"><path class="cls-1" d="M102.72,58.77l-2.4-1a11.67,11.67,0,0,0,2-.16,2.12,2.12,0,0,0,2.06-2.42l2.4,1a2.13,2.13,0,0,1-2.06,2.42A11.67,11.67,0,0,1,102.72,58.77Z"/></clipPath><clipPath id="clip-path-61"><path class="cls-1" d="M109.81,37.85l-2.4-1c2.28-.54,4.22-1,5.85-1.28,1.07-.2,2-.35,2.82-.46l2.4,1c-.82.11-1.75.26-2.82.46C114,36.88,112.09,37.31,109.81,37.85Z"/></clipPath><clipPath id="clip-path-62"><path class="cls-1" d="M111.2,25.65c1.08-.2,2-.35,2.79-.44l2.4,1c-.79.09-1.71.24-2.79.44l-.28-.12-.29-.12-.31-.13-.32-.13-.31-.13-.31-.13-.3-.12Z"/></clipPath><clipPath id="clip-path-63"><path class="cls-1" d="M102.9,44.52l2.4,1c.32.14.27.64-.38,1l-2.4-1C103.17,45.16,103.22,44.66,102.9,44.52Z"/></clipPath><clipPath id="clip-path-64"><path class="cls-1" d="M102.9,44.52l2.4,1a.56.56,0,0,0-.24,0l-2.4-1A.56.56,0,0,1,102.9,44.52Z"/></clipPath><clipPath id="clip-path-65"><path class="cls-1" d="M99.6,59.86l-2.4-1c1.18-3.45,2.22-6.43,3.32-9.42s1.63-3.77,2-3.94l2.4,1c-.37.17-.93,1-2,3.94S100.78,56.41,99.6,59.86Z"/></clipPath><clipPath id="clip-path-66"><path class="cls-1" d="M96.59,58.53l2.4,1a3.25,3.25,0,0,1,.61.33l-2.4-1A3,3,0,0,0,96.59,58.53Z"/></clipPath><clipPath id="clip-path-67"><path class="cls-1" d="M96.59,58.53l2.4,1a6.81,6.81,0,0,0-2.77-.37l-2.4-1A6.81,6.81,0,0,1,96.59,58.53Z"/></clipPath><clipPath id="clip-path-68"><path class="cls-1" d="M96.22,59.16l-2.4-1a38.78,38.78,0,0,0,5.36-14.48l2.4,1A38.78,38.78,0,0,1,96.22,59.16Z"/></clipPath><clipPath id="clip-path-69"><path class="cls-1" d="M101.58,44.68l-2.4-1a9,9,0,0,0,3.48.81l2.4,1A9,9,0,0,1,101.58,44.68Z"/></clipPath><clipPath id="clip-path-70"><path class="cls-1" d="M106.2,26.74c2-.46,3.61-.82,5-1.09l2.4,1c-1.39.26-3,.63-5,1.09l-.28-.12L108,27.5l-.31-.13-.32-.13-.31-.13-.31-.13-.3-.12Z"/></clipPath><clipPath id="clip-path-71"><path class="cls-1" d="M94.45,64.43l-2.4-1c-.23-2.82-.38-5.86-.38-8.19l2.4,1C94.07,58.57,94.22,61.61,94.45,64.43Z"/></clipPath><clipPath id="clip-path-72"><path class="cls-1" d="M99.16,40.68l-2.4-1c1.93-.63,4.41-1.31,7.56-2.1l2.4,1C103.57,39.37,101.09,40.05,99.16,40.68Z"/></clipPath><clipPath id="clip-path-73"><path class="cls-1" d="M91,65.24l-2.4-1c.22-2.9.36-6,.36-8.35l2.4,1C91.32,59.22,91.18,62.34,91,65.24Z"/></clipPath><clipPath id="clip-path-74"><path class="cls-1" d="M99.54,47.85l-2.4-1c-.93-1.76-1.75-3.41-2.71-5.48l2.4,1C97.79,44.44,98.61,46.09,99.54,47.85Z"/></clipPath><clipPath id="clip-path-75"><path class="cls-1" d="M99.15,36.76l-2.4-1c.81-.12,1.7-.27,2.69-.46,1.94-.37,4.25-.87,7-1.53,4.23-1,7.38-1.84,9.6-2.57l2.4,1c-2.22.74-5.37,1.58-9.6,2.58-2.78.66-5.09,1.16-7,1.53C100.85,36.49,100,36.64,99.15,36.76Z"/></clipPath><clipPath id="clip-path-76"><path class="cls-1" d="M98.38,28.9c1.85-.65,4.34-1.33,7.82-2.16l2.4,1c-3.48.83-6,1.51-7.83,2.16Z"/></clipPath><clipPath id="clip-path-77"><path class="cls-1" d="M96.84,50.12l-2.4-1a17.33,17.33,0,0,0-2.57-5.56l2.4,1A17.55,17.55,0,0,1,96.84,50.12Z"/></clipPath><clipPath id="clip-path-78"><path class="cls-1" d="M100.77,25.9l-2.4-1c.85-.11,1.8-.26,2.88-.47,1.38-.26,3-.61,4.94-1.07,3.49-.83,6-1.51,7.8-2.15l2.4,1c-1.83.64-4.31,1.32-7.8,2.15-2,.46-3.56.81-4.94,1.07C102.57,25.64,101.62,25.79,100.77,25.9Z"/></clipPath><clipPath id="clip-path-79"><path class="cls-1" d="M94,37.7l-2.4-1c.72-.17,1.39-.31,2-.43,1.19-.22,2.17-.35,3-.43l2.4,1c-.81.07-1.79.21-3,.43C95.42,37.39,94.75,37.53,94,37.7Z"/></clipPath><clipPath id="clip-path-80"><path class="cls-1" d="M87.53,56.85l-2.4-1c1.52-3.48,2.44-6.74,3.77-13.21l2.4,1C90,50.11,89.05,53.37,87.53,56.85Z"/></clipPath><clipPath id="clip-path-81"><path class="cls-1" d="M94,34.58l-2.4-1a39.2,39.2,0,0,0,5-1.53l2.4,1A39.2,39.2,0,0,1,94,34.58Z"/></clipPath><clipPath id="clip-path-82"><path class="cls-1" d="M87.53,56.85l-2.4-1a12.88,12.88,0,0,0-2.22-3.43l2.39,1A12.67,12.67,0,0,1,87.53,56.85Z"/></clipPath><clipPath id="clip-path-83"><path class="cls-1" d="M85.3,53.42l-2.39-1c2.07-3.13,4.36-9,5.87-15.09l2.4,1C89.67,44.38,87.38,50.29,85.3,53.42Z"/></clipPath><clipPath id="clip-path-84"><path class="cls-1" d="M92.35,23.8l2.4,1c.24.1.19.48-.29,1.09A1.83,1.83,0,0,0,94,27.18l-2.4-1a1.88,1.88,0,0,1,.44-1.29C92.54,24.28,92.59,23.9,92.35,23.8Z"/></clipPath><clipPath id="clip-path-85"><path class="cls-1" d="M85.91,39.93l-2.39-1a51.79,51.79,0,0,1,5.26-1.6l2.4,1A53,53,0,0,0,85.91,39.93Z"/></clipPath><clipPath id="clip-path-86"><path class="cls-1" d="M92.35,23.8l2.4,1a.46.46,0,0,0-.31,0l-.24.06a13.37,13.37,0,0,1-1.79.49c-.48.09-1,.15-1.55.21l-2.4-1c.57-.06,1.07-.12,1.55-.21a13.37,13.37,0,0,0,1.79-.49l.24-.06A.53.53,0,0,1,92.35,23.8Z"/></clipPath><clipPath id="clip-path-87"><path class="cls-1" d="M91.28,35.23l-2.4-1a81.74,81.74,0,0,0-.42-9.68l2.4,1A81.74,81.74,0,0,1,91.28,35.23Z"/></clipPath><clipPath id="clip-path-88"><path class="cls-1" d="M85.91,36.14l-2.4-1a27.87,27.87,0,0,0,3.1-.44c.68-.13,1.44-.29,2.27-.47l2.4,1c-.83.18-1.59.34-2.27.47A27.87,27.87,0,0,1,85.91,36.14Z"/></clipPath></defs><title>资源 5</title><g id="图层_2" data-name="图层 2"><g id="C"><g class="cls-2"><polygon class="cls-3" points="108.26 241.05 79.01 229.72 109.34 235.79 138.6 247.11 108.26 241.05"/><g class="cls-2"><g class="cls-4"><g class="cls-2"><path class="cls-5" d="M75.67,269.81,46.41,258.48a17,17,0,0,0,7.67.95l29.25,11.32a17.09,17.09,0,0,1-7.66-.94"/><path class="cls-6" d="M83.33,270.75,54.08,259.43c.58-.05,1.17-.13,1.77-.22a26.89,26.89,0,0,0,5.89-1.6L91,268.93a27,27,0,0,1-5.88,1.6c-.61.1-1.2.17-1.78.22"/><path class="cls-7" d="M91,268.93,61.74,257.61a21.42,21.42,0,0,0,5.05-2.88L96,266.05A21.22,21.22,0,0,1,91,268.93"/><path class="cls-8" d="M96,266.05,66.79,254.73a21,21,0,0,0,4.35-4.56q5.27-7.44,7.87-20.45l29.25,11.33q-2.6,13-7.86,20.45A21.44,21.44,0,0,1,96,266.05"/></g></g></g><g class="cls-2"><g class="cls-9"><g class="cls-2"><path class="cls-6" d="M107.67,209.8,78.41,198.48A43,43,0,0,0,76.7,193L106,204.35a45.29,45.29,0,0,1,1.71,5.45"/><path class="cls-5" d="M106,204.35,76.7,193a16.78,16.78,0,0,0-1.47-2.92,16.41,16.41,0,0,0-7-6.14c-.23-.11-.46-.2-.69-.29L96.79,195l.69.29a16.49,16.49,0,0,1,7,6.14,16.08,16.08,0,0,1,1.48,2.92"/></g></g></g><g class="cls-2"><g class="cls-10"><g class="cls-2"><path class="cls-6" d="M87.91,163.57,58.66,152.25q3.06-.5,5.92-.73l29.25,11.32c-1.91.16-3.88.41-5.92.73"/><path class="cls-5" d="M93.83,162.84,64.58,151.52q12.4-1.07,21.2,2.34L115,165.18q-8.81-3.41-21.21-2.34"/></g></g></g><path class="cls-11" d="M87.91,163.57q21.35-3.37,33.32,4.86t17.43,28.41l-31,13a28.44,28.44,0,0,0-3.19-8.37,15.64,15.64,0,0,0-16.42-7.18q-11.85,1.88-18.42,14.13-5,9.12-5.37,27-.51,22.16,5,29.47t15.84,5.68q10-1.59,15.29-9t7.86-20.45l30.34,6.06q-3.43,15.67-10.28,26.9a57.48,57.48,0,0,1-16.8,18q-9.93,6.75-25.11,9.15Q68,304,56.48,299.56t-19.64-19Q28.73,266,29.29,241.19,30,208.13,45.34,188T87.91,163.57Z"/><g class="cls-2"><g class="cls-12"><g class="cls-2"><path class="cls-5" d="M56.48,299.56,27.23,288.24q-11.54-4.47-19.65-19A47.84,47.84,0,0,1,5,263.74l29.25,11.32a48,48,0,0,0,2.61,5.49q8.11,14.55,19.64,19"/><path class="cls-6" d="M34.23,275.06,5,263.74a68.32,68.32,0,0,1-4.18-17l29.25,11.33a68.79,68.79,0,0,0,4.18,17"/><path class="cls-7" d="M30.05,258.05.8,246.72A114.08,114.08,0,0,1,0,229.87Q.18,223.72.82,218l29.25,11.33q-.64,5.68-.78,11.84a115.67,115.67,0,0,0,.76,16.86"/><path class="cls-8" d="M30.07,229.35.82,218q2.81-24.95,15.27-41.33A61.69,61.69,0,0,1,27.6,165l29.25,11.33A61.64,61.64,0,0,0,45.34,188q-12.45,16.38-15.27,41.34"/><path class="cls-7" d="M56.85,176.37,27.6,165a62.11,62.11,0,0,1,14.52-8.29l29.26,11.33a61.28,61.28,0,0,0-14.53,8.29"/><path class="cls-6" d="M71.38,168.08,42.12,156.75a75.32,75.32,0,0,1,16.54-4.5l29.25,11.32a74.69,74.69,0,0,0-16.53,4.51"/></g></g></g></g><path d="M58.59,96.5A2.69,2.69,0,0,0,60.23,94c0-7.77-.33-9-4.86-11.84-4.85-3-10.92,1.21-11.52,1.21s0,2.43-6.07-2.43-17-7.28-15.77-1.82,3,6.07-1.82,6.68-6.07,12.74-3,12.13,1.22,1.82,1.22,4.85,3.64,1.82,8.49-1.21,5.46.61,12.13.61C44.3,102.2,54.59,98.16,58.59,96.5Z"/><path class="cls-13" d="M59.62,108c4.89.87,10,2.25,11.85,4.85,2.3,3.3,3.4,1.19,1.8-1.12s-11-9.67-13.91-8.15"/><path class="cls-14" d="M45.59,122.78s-3,3,4.57,19.4c0,0-6.09,5.33-8.76,9.9s-1.9,7.6-.38,8,7.61-2.66,9.52-5.7,5.7-5.33,6.46-6.85,2.29-11.41,1.53-17.12c0,0,8-2.28,9.51-3.81s-2.29,10.66-1.91,12.94,5,1.14,5,1.14,8-12.17,8-20.92c0,0,1.9-8-7.61-4.95s-13.7,4.57-13.7,4.57Z"/><path class="cls-15" d="M49.16,100.72c-3.12.89-2.67,7.11-1.34,10.66s-4,11.12-3.11,12,6.22.89,11.56,0,6.66-3.11,7.11-3.55-.71-14.44-1.15-16.66-10.41-4.23-11.74-3.34"/><line id="Pole" class="cls-16" x1="73.86" y1="22.17" x2="73.86" y2="114.55"/><path class="cls-13" d="M50,101.47c-1.18,1.22-1.94,2-1.81,3.7a2.76,2.76,0,0,0,4,2c.89-.45,0-2,0-2s19.88-5.55,23-2c1.2,1.38,3.4.41,2-1C72.23,97.17,53.23,98.17,50,101.47Z"/><path d="M66.61,140.38c-.86,2.56-.48,4.85,2.19,5.23A5.08,5.08,0,0,0,73,144.47a2.62,2.62,0,0,0-1.9-1.15c-1.14,0-.76-3.8-.76-3.8Z"/><path d="M40.64,158.54c-.76.38-3,.76-3,2.29s.76.76,1.52,1.9-.76,3,.38,3.42,2.29,1.14,3,0,.76-4.56,0-5.32S40.64,158.54,40.64,158.54Z"/><path class="cls-13" d="M57.78,86.13s-10.43.25-8.92,7.19,7.85,2.38,7.85,2.38S59.51,94.44,57.78,86.13Z"/><line class="cls-17" x1="54.23" y1="96.17" x2="54.23" y2="102.17"/><g id="标签"><g class="cls-2"><polygon class="cls-18" points="154.09 49.41 151.69 48.41 151.68 44.4 154.08 45.4 154.09 49.41"/><g class="cls-2"><g class="cls-19"><g class="cls-2"><path class="cls-6" d="M150.35,50,148,49c1.62-.31,2.86-.51,3.74-.63l2.4,1c-.88.12-2.12.32-3.74.63"/></g></g></g><g class="cls-2"><g class="cls-20"><g class="cls-2"><path class="cls-6" d="M155.33,34.49l-2.4-1a4.34,4.34,0,0,1,0-.93l2.4,1a4.34,4.34,0,0,0,0,.93"/><path class="cls-7" d="M155.38,33.56l-2.4-1a8.86,8.86,0,0,1,1.47-3.7l2.4,1a8.81,8.81,0,0,0-1.47,3.7"/></g></g></g><g class="cls-2"><g class="cls-21"><g class="cls-2"><path class="cls-22" d="M145.7,47.82l-2.4-1c2.56-.65,6.38-1.77,8.38-2.42l2.4,1c-2,.65-5.82,1.77-8.38,2.42"/></g></g></g><g class="cls-2"><g class="cls-23"><g class="cls-2"><path class="cls-7" d="M145.7,47.82l-2.4-1c.82-1.78,1.77-4.07,3.29-8l2.4,1c-1.52,3.92-2.47,6.22-3.29,8"/></g></g></g><g class="cls-2"><g class="cls-24"><g class="cls-2"><path class="cls-7" d="M149,39.82l-2.4-1A4.54,4.54,0,0,1,147.71,37c.28-.19.45-.36.46-.48l2.4,1c0,.12-.18.29-.46.48A4.54,4.54,0,0,0,149,39.82"/><path class="cls-6" d="M150.57,37.49l-2.4-1a0,0,0,0,0,0-.05l2.4,1a0,0,0,0,1,0,.05"/><path class="cls-5" d="M150.57,37.44l-2.4-1a.17.17,0,0,0-.12-.13l2.4,1a.17.17,0,0,1,.12.13"/></g></g></g><g class="cls-2"><g class="cls-25"><g class="cls-2"><path class="cls-26" d="M150,37.25l-2.4-1a1.3,1.3,0,0,1,.46.06l2.4,1a1.3,1.3,0,0,0-.46-.06"/></g></g></g><g class="cls-2"><g class="cls-27"><g class="cls-2"><path class="cls-6" d="M126.34,56,124,55c2.19-.74,6.64-2,14.13-3.78,4.19-1,7.46-1.68,9.87-2.14l2.4,1c-2.41.46-5.68,1.15-9.87,2.14C133,54,128.54,55.22,126.34,56"/></g></g></g><polygon class="cls-18" points="155.9 18.42 153.5 17.42 153.5 14.02 155.89 15.02 155.9 18.42"/><g class="cls-2"><g class="cls-28"><g class="cls-2"><path class="cls-29" d="M142.81,48.5l-2.4-1a46.14,46.14,0,0,0,3.77-11.59l2.4,1a46.14,46.14,0,0,1-3.77,11.59"/></g></g></g><g class="cls-2"><g class="cls-30"><g class="cls-2"><path class="cls-26" d="M146.58,36.91l-2.4-1a17.24,17.24,0,0,0,3.41.34l2.4,1a17.24,17.24,0,0,1-3.41-.34"/></g></g></g><g class="cls-2"><g class="cls-31"><g class="cls-2"><path class="cls-5" d="M146.53,32.78l-2.4-1a26.7,26.7,0,0,0,8.8,1.71l2.4,1a26.7,26.7,0,0,1-8.8-1.71"/></g></g></g><g class="cls-2"><g class="cls-32"><g class="cls-2"><path class="cls-26" d="M146.53,32.78l-2.4-1-.26-.11,2.4,1,.26.11"/></g></g></g><polygon class="cls-18" points="146.28 35.18 143.88 34.18 143.87 31.67 146.27 32.67 146.28 35.18"/><polygon class="cls-33" points="148.26 25.33 145.87 24.33 149.05 22.82 151.45 23.82 148.26 25.33"/><g class="cls-2"><g class="cls-34"><g class="cls-2"><path class="cls-26" d="M146.61,29l-2.4-1a17,17,0,0,0,8.42,1.13l2.4,1A17,17,0,0,1,146.61,29"/><path class="cls-22" d="M155,30.16l-2.4-1c.48-.06,1-.13,1.47-.23l.35-.07,2.4,1-.35.07c-.5.1-1,.17-1.47.23"/></g></g></g><g class="cls-2"><g class="cls-35"><g class="cls-2"><path class="cls-6" d="M150.11,19.43l-2.4-1c1-.23,1.88-.42,2.67-.57s1.68-.29,2.37-.37l2.4,1c-.69.07-1.47.19-2.37.37s-1.67.34-2.67.57"/><path class="cls-5" d="M155.15,18.49l-2.4-1,.75-.07,2.4,1c-.24,0-.49,0-.75.07"/></g></g></g><g class="cls-2"><g class="cls-36"><g class="cls-2"><path class="cls-5" d="M151.45,23.82l-2.4-1c-.48-1.38-1-2.94-1.34-4.39l2.4,1c.37,1.45.86,3,1.34,4.39"/></g></g></g><polygon class="cls-37" points="138.76 45.98 136.36 44.98 139.59 43.16 141.99 44.16 138.76 45.98"/><g class="cls-2"><g class="cls-38"><g class="cls-2"><path class="cls-22" d="M150,16.81l-2.39-1A41.38,41.38,0,0,0,153.49,14l2.4,1a41.17,41.17,0,0,1-5.9,1.79"/></g></g></g><g class="cls-2"><g class="cls-39"><g class="cls-2"><path class="cls-5" d="M142,44.16l-2.4-1c-.52-1.86-1.16-4.09-1.61-5.83l2.4,1c.45,1.74,1.09,4,1.61,5.83"/></g></g></g><polygon class="cls-29" points="135.39 50.25 132.99 49.25 140.41 47.5 142.81 48.5 135.39 50.25"/><g class="cls-2"><g class="cls-40"><g class="cls-2"><path class="cls-22" d="M148.27,25.33l-2.4-1c-.07-1-.2-2-.37-3l2.4,1c.17,1,.3,2,.37,3"/><path class="cls-26" d="M147.9,22.31l-2.4-1c-.13-.75-.28-1.51-.46-2.25l2.4,1c.17.74.33,1.5.46,2.25"/></g></g></g><polygon class="cls-41" points="137.34 39.79 134.95 38.8 137.98 37.33 140.38 38.33 137.34 39.79"/><g class="cls-2"><g class="cls-42"><g class="cls-2"><path class="cls-22" d="M138.76,46l-2.4-1c-.06-.49-.13-1-.22-1.5l2.4,1c.09.5.16,1,.22,1.5"/><path class="cls-26" d="M138.54,44.48l-2.4-1A28.35,28.35,0,0,0,135,38.79l2.4,1a28.09,28.09,0,0,1,1.19,4.69"/></g></g></g><path class="cls-43" d="M140.38,38.33c.45,1.74,1.09,4,1.61,5.83L138.76,46a29.48,29.48,0,0,0-1.41-6.19Z"/><g class="cls-2"><g class="cls-44"><g class="cls-2"><path class="cls-22" d="M139.78,33.45l-2.4-1c2.26-.53,3.86-1,5.2-1.45l2.4,1c-1.34.45-2.94.92-5.2,1.45"/></g></g></g><polygon class="cls-29" points="145.88 17.79 143.48 16.79 147.59 15.81 150 16.81 145.88 17.79"/><g class="cls-2"><g class="cls-45"><g class="cls-2"><path class="cls-7" d="M145.88,17.79l-2.4-1a19.09,19.09,0,0,1,2.22-3.61c.23-.23.36-.4.37-.52l2.4,1c0,.12-.14.29-.37.52a19.09,19.09,0,0,0-2.22,3.61"/><path class="cls-6" d="M148.47,13.66l-2.4-1a0,0,0,0,0,0-.05l2.4,1a0,0,0,0,1,0,.05"/><path class="cls-5" d="M148.47,13.61l-2.4-1s0-.07-.08-.09l2.4,1c.05,0,.08.05.08.09"/></g></g></g><polygon class="cls-7" points="144.47 20.76 142.07 19.76 145.04 19.06 147.44 20.06 144.47 20.76"/><g class="cls-2"><g class="cls-46"><g class="cls-2"><path class="cls-6" d="M142,25.93l-2.4-1,.11-.05,2.4,1-.11.06"/><path class="cls-7" d="M142.1,25.87l-2.4-1c.28-.16.42-.31.44-.42l2.4,1c0,.11-.16.26-.44.41"/><path class="cls-6" d="M142.54,25.46l-2.4-1v-.05l2.4,1v.05"/><path class="cls-5" d="M142.54,25.41l-2.4-1a.18.18,0,0,0-.12-.12l2.4,1a.16.16,0,0,1,.12.12"/></g></g></g><g class="cls-2"><g class="cls-47"><g class="cls-2"><path class="cls-5" d="M146.61,29l-2.4-1a13.63,13.63,0,0,1-4.62-3.1l2.4,1a13.63,13.63,0,0,0,4.62,3.1"/></g></g></g><g class="cls-2"><g class="cls-48"><g class="cls-2"><path class="cls-7" d="M142.84,23.88l-2.4-1c.53-.92,1-1.92,1.63-3.12l2.4,1c-.59,1.2-1.1,2.2-1.63,3.12"/></g></g></g><g class="cls-2"><g class="cls-49"><g class="cls-2"><path class="cls-26" d="M142.84,23.88l-2.4-1a2.71,2.71,0,0,0-.42-.2l2.4,1a2.71,2.71,0,0,1,.42.2"/></g></g></g><polygon class="cls-37" points="131.72 48.97 129.32 47.97 132.39 46.14 134.79 47.14 131.72 48.97"/><g class="cls-2"><g class="cls-50"><g class="cls-2"><path class="cls-26" d="M145,32l-2.4-1a15.28,15.28,0,0,1-4.69-4.21l2.4,1A15.28,15.28,0,0,0,145,32"/></g></g></g><g class="cls-2"><g class="cls-51"><g class="cls-2"><path class="cls-26" d="M144.76,13.34l-2.4-1a13.19,13.19,0,0,0,3.23.16.94.94,0,0,1,.4,0l2.4,1a.94.94,0,0,0-.4,0,14.26,14.26,0,0,1-3.23-.16"/></g></g></g><g class="cls-2"><g class="cls-52"><g class="cls-2"><path class="cls-5" d="M140.17,23.36l-2.4-1a4.62,4.62,0,0,1,2.25.32l2.4,1a4.62,4.62,0,0,0-2.25-.32"/></g></g></g><g class="cls-2"><g class="cls-53"><g class="cls-2"><path class="cls-29" d="M140.17,23.36l-2.4-1c1.89-2.38,3.67-6.81,4.59-10l2.4,1c-.92,3.21-2.7,7.64-4.59,10"/></g></g></g><g class="cls-2"><g class="cls-54"><g class="cls-2"><path class="cls-5" d="M134.79,47.14l-2.4-1a53.32,53.32,0,0,1-2.12-6l2.4,1a51.4,51.4,0,0,0,2.12,6"/></g></g></g><g class="cls-2"><g class="cls-55"><g class="cls-2"><path class="cls-6" d="M126.34,56,124,55c2.19-.74,6.64-2,14.13-3.78,4.19-1,7.46-1.68,9.87-2.14l2.4,1c-2.41.46-5.68,1.15-9.87,2.14C133,54,128.54,55.22,126.34,56"/></g></g></g><g class="cls-2"><g class="cls-56"><g class="cls-2"><path class="cls-6" d="M133.29,38.29l-2.4-1a45.48,45.48,0,0,1,6.5-1.89c1.48-.34,2.68-.61,3.72-.81s1.74-.3,2.47-.38l2.4,1c-.73.08-1.53.2-2.47.38s-2.24.46-3.72.81a45.48,45.48,0,0,0-6.5,1.89"/><path class="cls-5" d="M146,35.21l-2.4-1,.3,0,2.4,1-.3,0"/></g></g></g><g class="cls-2"><g class="cls-57"><g class="cls-2"><path class="cls-22" d="M134.81,34.41l-2.4-1c.67-.09,1.4-.21,2.24-.37s1.7-.34,2.73-.59l2.4,1c-1,.24-1.93.43-2.73.59s-1.58.28-2.24.37"/></g></g></g><g class="cls-2"><g class="cls-58"><g class="cls-2"><path class="cls-7" d="M134.81,34.41l-2.4-1c2-2.25,3.92-4.58,5.48-6.62l2.4,1c-1.56,2-3.45,4.37-5.48,6.62"/></g></g></g><g class="cls-2"><g class="cls-59"><g class="cls-2"><path class="cls-26" d="M138.5,24.77l-2.4-1a16.65,16.65,0,0,0,3.61.47.83.83,0,0,1,.31.05l2.4,1a.87.87,0,0,0-.31-.05,16.65,16.65,0,0,1-3.61-.47"/></g></g></g><path class="cls-43" d="M145.7,47.82c2.56-.65,6.38-1.77,8.38-2.42v4c-.88.12-2.12.32-3.74.63-2.41.46-5.68,1.15-9.87,2.14C133,54,128.54,55.22,126.34,56V52c1.32-.21,3.42-.57,5.44-1,1.32-.26,2.61-.52,3.61-.76l7.42-1.75a46.14,46.14,0,0,0,3.77-11.59,17.24,17.24,0,0,0,3.41.34c.78,0,.74.3.12.72A4.54,4.54,0,0,0,149,39.82C147.47,43.74,146.52,46,145.7,47.82Z"/><polygon class="cls-60" points="126.34 55.96 123.94 54.96 123.94 50.96 126.34 51.96 126.34 55.96"/><g class="cls-2"><g class="cls-61"><g class="cls-2"><path class="cls-22" d="M126.34,52l-2.4-1c1.32-.21,3.42-.57,5.44-1,1.32-.26,2.61-.52,3.61-.76l2.4,1c-1,.24-2.29.5-3.61.76-2,.38-4.12.74-5.44,1"/></g></g></g><polygon class="cls-18" points="139.88 22.47 137.48 21.47 137.47 18.07 139.87 19.07 139.88 22.47"/><polygon class="cls-62" points="129.78 42.91 127.38 41.91 130.27 40.16 132.67 41.16 129.78 42.91"/><g class="cls-2"><g class="cls-63"><g class="cls-2"><path class="cls-26" d="M131.72,49l-2.4-1a31,31,0,0,0-1.94-6.06l2.4,1A31,31,0,0,1,131.72,49"/></g></g></g><path class="cls-43" d="M132.67,41.16a51.4,51.4,0,0,0,2.12,6L131.72,49a31,31,0,0,0-1.94-6.06Z"/><g class="cls-2"><g class="cls-64"><g class="cls-2"><path class="cls-26" d="M125.4,43.14l-2.4-1a5.08,5.08,0,0,0-2.36-2.6l2.4,1a5.1,5.1,0,0,1,2.36,2.59"/></g></g></g><g class="cls-2"><g class="cls-65"><g class="cls-2"><path class="cls-22" d="M122.94,40.52l-2.39-1,.19-.11,2.4,1-.2.11"/><path class="cls-29" d="M123.14,40.41l-2.4-1c6.43-3.55,13.13-10.4,15.36-15.64l2.4,1c-2.23,5.24-8.93,12.09-15.36,15.64"/></g></g></g><polygon class="cls-66" points="132.69 28.65 130.29 27.65 133.4 26.04 135.8 27.04 132.69 28.65"/><g class="cls-2"><g class="cls-67"><g class="cls-2"><path class="cls-5" d="M135.8,27l-2.4-1c-.37-1.06-.74-2.29-1.16-3.69l2.4,1c.42,1.4.79,2.63,1.16,3.69"/></g></g></g><g class="cls-2"><g class="cls-68"><g class="cls-2"><path class="cls-6" d="M134.64,23.35l-2.4-1c.85-.2,1.59-.36,2.25-.48s1.47-.26,2.06-.32l2.4,1c-.59.06-1.27.17-2.06.32s-1.41.28-2.25.48"/><path class="cls-5" d="M139,22.55l-2.4-1c.33,0,.64-.07.93-.08l2.4,1c-.29,0-.6,0-.93.08"/></g></g></g><g class="cls-2"><g class="cls-69"><g class="cls-2"><path class="cls-7" d="M125.4,43.14l-2.4-1A64.29,64.29,0,0,0,130.89,35l2.4,1a63.38,63.38,0,0,1-7.89,7.1"/></g></g></g><g class="cls-2"><g class="cls-70"><g class="cls-2"><path class="cls-22" d="M134.27,20.8l-2.4-1a34.09,34.09,0,0,0,5.6-1.73l2.4,1a34.09,34.09,0,0,1-5.6,1.73"/></g></g></g><g class="cls-2"><g class="cls-71"><g class="cls-2"><path class="cls-22" d="M132.69,28.65l-2.4-1c-.08-1-.22-2.17-.41-3.31l2.39,1c.2,1.14.34,2.3.42,3.31"/><path class="cls-26" d="M132.27,25.34l-2.39-1c-.08-.46-.17-.92-.27-1.37l2.4,1c.1.45.19.91.26,1.37"/></g></g></g><g class="cls-2"><g class="cls-72"><g class="cls-2"><path class="cls-26" d="M133.82,17.29l-2.4-1a.68.68,0,0,1,.27.05l2.4,1a.68.68,0,0,0-.27-.05"/></g></g></g><polygon class="cls-29" points="131.45 21.46 129.05 20.46 131.87 19.8 134.27 20.8 131.45 21.46"/><g class="cls-2"><g class="cls-73"><g class="cls-2"><path class="cls-7" d="M131.45,21.46l-2.4-1a13.88,13.88,0,0,1,2.41-3.38.9.9,0,0,0,.38-.5l2.4,1a.9.9,0,0,1-.38.5,13.88,13.88,0,0,0-2.41,3.38"/><path class="cls-6" d="M134.24,17.58l-2.4-1a.09.09,0,0,0,0-.07l2.4,1a.09.09,0,0,1,0,.07"/><path class="cls-5" d="M134.24,17.51l-2.4-1a.2.2,0,0,0-.15-.17l2.4,1a.2.2,0,0,1,.15.17"/></g></g></g><polygon class="cls-7" points="129.71 24.51 127.31 23.51 129.61 22.97 132.01 23.97 129.71 24.51"/><path class="cls-43" d="M156.85,29.86a8.24,8.24,0,0,0-1.52,4.63,26.17,26.17,0,0,1-9.06-1.82v2.51c-.81.08-1.7.21-2.77.41s-2.24.46-3.72.81a45.48,45.48,0,0,0-6.5,1.89V36a63.38,63.38,0,0,1-7.89,7.1,4.93,4.93,0,0,0-2.46-2.62c6.49-3.52,13.31-10.46,15.56-15.75a16.65,16.65,0,0,0,3.61.47c.59,0,.59.34-.12.69,2.89,3,8.17,5.21,14.51,4Zm-17.07,3.59c2.26-.53,3.86-1,5.2-1.45a15.28,15.28,0,0,1-4.69-4.21c-1.56,2-3.45,4.37-5.48,6.62.66-.09,1.4-.21,2.24-.37s1.7-.35,2.73-.59"/><g class="cls-2"><g class="cls-74"><g class="cls-2"><path class="cls-5" d="M122.94,40.52l-2.39-1,.09,0,2.4,1-.1,0"/></g></g></g><polygon class="cls-75" points="116.92 53.44 114.52 52.44 117.44 49.28 119.84 50.28 116.92 53.44"/><g class="cls-2"><g class="cls-76"><g class="cls-2"><path class="cls-7" d="M126.31,30.12l-2.4-1c.78-1.2,2-3.15,3.4-5.61l2.4,1c-1.44,2.46-2.62,4.41-3.4,5.61"/></g></g></g><g class="cls-2"><g class="cls-77"><g class="cls-2"><path class="cls-26" d="M130.33,16.75l-2.4-1a18.33,18.33,0,0,0,3.49.54l2.4,1a19.16,19.16,0,0,1-3.49-.54"/></g></g></g><g class="cls-2"><g class="cls-78"><g class="cls-2"><path class="cls-26" d="M126.31,30.12l-2.4-1a4.18,4.18,0,0,0-1.45-1l2.4,1a4.18,4.18,0,0,1,1.45,1"/></g></g></g><g class="cls-2"><g class="cls-79"><g class="cls-2"><path class="cls-5" d="M123.67,28.8l-2.4-1a5.08,5.08,0,0,1,1.19.32l2.4,1a5.08,5.08,0,0,0-1.19-.32"/></g></g></g><g class="cls-2"><g class="cls-80"><g class="cls-2"><path class="cls-29" d="M123.67,28.8l-2.4-1c2.41-2.28,5.18-7.47,6.66-12l2.4,1c-1.48,4.58-4.25,9.77-6.66,12.05"/></g></g></g><path class="cls-43" d="M126.31,30.12a4.37,4.37,0,0,0-2.64-1.32c2.41-2.28,5.18-7.47,6.66-12a19.16,19.16,0,0,0,3.49.54c.52,0,.6.35,0,.79a13.88,13.88,0,0,0-2.41,3.38l2.82-.66a34.09,34.09,0,0,0,5.6-1.73v3.4a21.42,21.42,0,0,0-3,.4q-1,.18-2.25.48c.42,1.4.79,2.63,1.16,3.69l-3.11,1.61A35.7,35.7,0,0,0,132,24l-2.3.54C128.27,27,127.09,28.92,126.31,30.12Z"/><polygon class="cls-18" points="118.48 36.11 116.08 35.11 116.07 31.2 118.47 32.2 118.48 36.11"/><g class="cls-2"><g class="cls-81"><g class="cls-2"><path class="cls-5" d="M119.84,50.28l-2.4-1c-2-3.32-3.72-5.91-5.84-8.93l2.4,1c2.12,3,3.83,5.61,5.84,8.93"/></g></g></g><g class="cls-2"><g class="cls-82"><g class="cls-2"><path class="cls-6" d="M104.57,62.6l-2.4-1c.78-.36,1.45-.7,2-1l2.4,1c-.56.31-1.23.65-2,1"/><path class="cls-7" d="M106.58,61.59l-2.4-1c2.36-1.3,3-2.21,3.2-3.45l2.4,1c-.17,1.25-.84,2.16-3.2,3.46"/><path class="cls-6" d="M109.78,58.13l-2.4-1a8.67,8.67,0,0,0,.06-1.06l2.4,1a8.38,8.38,0,0,1-.06,1.05"/></g></g></g><polygon class="cls-83" points="111.59 43.9 109.19 42.9 111.6 40.35 114 41.35 111.59 43.9"/><path class="cls-43" d="M114,41.35c2.12,3,3.83,5.61,5.84,8.93l-2.92,3.16a35.3,35.3,0,0,0-5.33-9.54Z"/><g class="cls-2"><g class="cls-84"><g class="cls-2"><path class="cls-26" d="M116.92,53.44l-2.4-1a35.56,35.56,0,0,0-5.32-9.54l2.39,1a35.3,35.3,0,0,1,5.33,9.54"/></g></g></g><g class="cls-2"><g class="cls-85"><g class="cls-2"><path class="cls-22" d="M104.57,62.6l-2.4-1,0-.1,2.4,1,0,.1"/><path class="cls-26" d="M104.55,62.5l-2.4-1a5.91,5.91,0,0,0-1.83-3.73l2.4,1a5.91,5.91,0,0,1,1.83,3.73"/></g></g></g><g class="cls-2"><g class="cls-86"><g class="cls-2"><path class="cls-26" d="M102.72,58.77l-2.4-1c.52,0,1,0,1.4-.08l2.39,1a13.75,13.75,0,0,1-1.39.08"/><path class="cls-22" d="M104.11,58.69l-2.39-1,.57-.08a3.79,3.79,0,0,0,1.08-.36l2.4,1a3.79,3.79,0,0,1-1.08.36l-.58.08"/><path class="cls-29" d="M105.77,58.25l-2.4-1a1.8,1.8,0,0,0,.94-1.46l2.4,1a1.8,1.8,0,0,1-.94,1.46"/><path class="cls-22" d="M106.71,56.79l-2.4-1a3.78,3.78,0,0,0,0-.6l2.4,1a3.78,3.78,0,0,1,0,.6"/></g></g></g><polygon class="cls-18" points="116.39 26.21 113.99 25.21 113.99 21.21 116.39 22.2 116.39 26.21"/><polygon class="cls-18" points="109.83 57.08 107.44 56.09 107.41 36.85 109.81 37.85 109.83 57.08"/><g class="cls-2"><g class="cls-87"><g class="cls-2"><path class="cls-6" d="M109.81,37.85l-2.4-1c2.28-.54,4.22-1,5.85-1.28,1.07-.2,2-.35,2.82-.46l2.4,1c-.82.11-1.75.26-2.82.46-1.63.31-3.57.74-5.85,1.28"/></g></g></g><g class="cls-2"><g class="cls-88"><g class="cls-2"><path class="cls-6" d="M100.77,29.9l-2.39-1c1.85-.65,4.34-1.33,7.82-2.16,2-.46,3.61-.82,5-1.09,1.08-.2,2-.35,2.79-.44l2.4,1c-.79.09-1.71.24-2.79.44-1.39.26-3,.63-5,1.09-3.48.83-6,1.51-7.83,2.16"/></g></g></g><polygon class="cls-60" points="106.75 56.19 104.35 55.19 104.32 37.58 106.72 38.58 106.75 56.19"/><g class="cls-2"><g class="cls-89"><g class="cls-2"><path class="cls-6" d="M104.92,46.5l-2.4-1,0,0,2.4,1,0,0"/><path class="cls-7" d="M105,46.47l-2.4-1a.91.91,0,0,0,.53-.6l2.4,1a.9.9,0,0,1-.53.61"/><path class="cls-6" d="M105.49,45.86l-2.4-1a.24.24,0,0,0,0-.12l2.4,1a.4.4,0,0,1,0,.11"/><path class="cls-5" d="M105.49,45.75l-2.4-1a.31.31,0,0,0-.19-.23l2.4,1a.31.31,0,0,1,.19.23"/></g></g></g><g class="cls-2"><g class="cls-90"><g class="cls-2"><path class="cls-26" d="M105.06,45.49l-2.4-1a.56.56,0,0,1,.24,0l2.4,1a.56.56,0,0,0-.24,0"/></g></g></g><g class="cls-2"><g class="cls-91"><g class="cls-2"><path class="cls-7" d="M99.6,59.86l-2.4-1c1.18-3.45,2.22-6.43,3.32-9.42,1-2.82,1.6-3.72,2-3.93l2.4,1c-.37.21-.93,1.11-2,3.93-1.11,3-2.14,6-3.32,9.42"/><path class="cls-6" d="M104.89,46.51l-2.4-1h0l2.4,1h0"/></g></g></g><g class="cls-2"><g class="cls-92"><g class="cls-2"><path class="cls-26" d="M99.6,59.86l-2.4-1a3,3,0,0,0-.61-.33l2.4,1a3.25,3.25,0,0,1,.61.33"/></g></g></g><g class="cls-2"><g class="cls-93"><g class="cls-2"><path class="cls-5" d="M96.22,59.16l-2.4-1a6.81,6.81,0,0,1,2.77.37l2.4,1a6.81,6.81,0,0,0-2.77-.37"/></g></g></g><g class="cls-2"><g class="cls-94"><g class="cls-2"><path class="cls-29" d="M96.22,59.16l-2.4-1a39,39,0,0,0,5.34-14.32l2.4,1a39,39,0,0,1-5.34,14.32"/><path class="cls-22" d="M101.56,44.84l-2.4-1a1,1,0,0,1,0-.16l2.4,1a1,1,0,0,0,0,.16"/></g></g></g><g class="cls-2"><g class="cls-95"><g class="cls-2"><path class="cls-26" d="M101.58,44.68l-2.4-1a9,9,0,0,0,3.48.81l2.4,1a9,9,0,0,1-3.48-.81"/></g></g></g><g class="cls-2"><g class="cls-96"><g class="cls-2"><path class="cls-6" d="M100.77,29.9l-2.39-1c1.85-.65,4.34-1.33,7.82-2.16,2-.46,3.61-.82,5-1.09,1.08-.2,2-.35,2.79-.44l2.4,1c-.79.09-1.71.24-2.79.44-1.39.26-3,.63-5,1.09-3.48.83-6,1.51-7.83,2.16"/></g></g></g><polygon class="cls-7" points="90.96 65.24 88.56 64.25 92.05 63.43 94.45 64.43 90.96 65.24"/><polygon class="cls-97" points="96.84 50.12 94.44 49.12 97.14 46.85 99.54 47.85 96.84 50.12"/><g class="cls-2"><g class="cls-98"><g class="cls-2"><path class="cls-6" d="M94.45,64.43l-2.4-1c-.23-2.82-.38-5.86-.38-8.19l2.4,1c0,2.34.15,5.38.38,8.2"/></g></g></g><g class="cls-2"><g class="cls-99"><g class="cls-2"><path class="cls-6" d="M99.16,40.68l-2.4-1c1.93-.63,4.41-1.31,7.56-2.1l2.4,1c-3.15.79-5.63,1.47-7.56,2.1"/></g></g></g><g class="cls-2"><g class="cls-100"><g class="cls-2"><path class="cls-22" d="M91,65.24l-2.4-1c.22-2.9.36-6,.36-8.35l2.4,1c0,2.33-.14,5.45-.36,8.35"/></g></g></g><g class="cls-2"><g class="cls-101"><g class="cls-2"><path class="cls-5" d="M99.54,47.85l-2.4-1c-.93-1.76-1.75-3.41-2.71-5.48l2.4,1c1,2.07,1.78,3.72,2.71,5.48"/></g></g></g><path class="cls-43" d="M109.81,37.85l0,19.23c0,2.21-.41,3.23-5.27,5.52a6,6,0,0,0-1.85-3.83,11.67,11.67,0,0,0,2-.16,2.13,2.13,0,0,0,2.06-2.42l0-17.61c-3.15.79-5.63,1.47-7.56,2.1V36.76c.81-.12,1.7-.27,2.69-.46,1.94-.37,4.25-.87,7-1.53,4.23-1,7.38-1.84,9.6-2.58v3.92c-.82.11-1.75.26-2.82.46C114,36.88,112.09,37.31,109.81,37.85Z"/><g class="cls-2"><g class="cls-102"><g class="cls-2"><path class="cls-22" d="M99.15,36.76l-2.4-1c.81-.12,1.7-.27,2.69-.46,1.94-.37,4.25-.87,7-1.53,4.23-1,7.38-1.84,9.6-2.57l2.4,1c-2.22.74-5.37,1.58-9.6,2.58-2.78.66-5.09,1.16-7,1.53-1,.19-1.88.34-2.69.46"/></g></g></g><polygon class="cls-60" points="99.16 40.68 96.76 39.68 96.75 35.76 99.15 36.76 99.16 40.68"/><g class="cls-2"><g class="cls-103"><g class="cls-2"><path class="cls-6" d="M100.77,29.9l-2.39-1c1.85-.65,4.34-1.33,7.82-2.16,2-.46,3.61-.82,5-1.09,1.08-.2,2-.35,2.79-.44l2.4,1c-.79.09-1.71.24-2.79.44-1.39.26-3,.63-5,1.09-3.48.83-6,1.51-7.83,2.16"/></g></g></g><polygon class="cls-104" points="94.27 44.56 91.87 43.56 94.43 41.37 96.83 42.37 94.27 44.56"/><path class="cls-43" d="M104.92,46.5c-.37.17-.93,1-2,3.94s-2.14,6-3.32,9.42a5.52,5.52,0,0,0-3.38-.7,38.78,38.78,0,0,0,5.36-14.48,9,9,0,0,0,3.48.81C105.62,45.45,105.7,46.09,104.92,46.5Z"/><path class="cls-43" d="M96.84,50.12a17.55,17.55,0,0,0-2.57-5.56l2.56-2.19c1,2.07,1.78,3.72,2.71,5.48Z"/><g class="cls-2"><g class="cls-105"><g class="cls-2"><path class="cls-26" d="M96.84,50.12l-2.4-1a17.33,17.33,0,0,0-2.57-5.56l2.4,1a17.55,17.55,0,0,1,2.57,5.56"/></g></g></g><polygon class="cls-18" points="99.01 36.84 96.61 35.84 96.6 32.05 99 33.05 99.01 36.84"/><g class="cls-2"><g class="cls-106"><g class="cls-2"><path class="cls-22" d="M100.77,25.9l-2.4-1c.85-.11,1.8-.26,2.88-.47,1.38-.26,3-.61,4.94-1.07,3.49-.83,6-1.51,7.8-2.15l2.4,1c-1.83.64-4.31,1.32-7.8,2.15-2,.46-3.56.81-4.94,1.07-1.08.21-2,.36-2.88.47"/></g></g></g><polygon class="cls-60" points="100.78 29.9 98.38 28.9 98.37 24.9 100.77 25.9 100.78 29.9"/><g class="cls-2"><g class="cls-107"><g class="cls-2"><path class="cls-6" d="M94,37.7l-2.4-1c.72-.17,1.39-.31,2-.43,1-.18,1.79-.3,2.5-.38l2.4,1c-.71.08-1.54.2-2.5.38-.61.12-1.28.26-2,.43"/><path class="cls-5" d="M98.53,36.89l-2.4-1,.48,0,2.4,1-.48,0"/></g></g></g><polygon class="cls-18" points="94.07 56.23 91.67 55.23 91.63 36.7 94.03 37.7 94.07 56.23"/><polygon class="cls-60" points="91.32 56.89 88.92 55.89 88.9 42.64 91.3 43.64 91.32 56.89"/><g class="cls-2"><g class="cls-108"><g class="cls-2"><path class="cls-7" d="M87.53,56.85l-2.4-1c1.52-3.48,2.44-6.74,3.77-13.21l2.4,1c-1.33,6.47-2.25,9.73-3.77,13.21"/></g></g></g><g class="cls-2"><g class="cls-109"><g class="cls-2"><path class="cls-22" d="M94,34.58l-2.4-1a39.2,39.2,0,0,0,5-1.53l2.4,1a39.2,39.2,0,0,1-5,1.53"/></g></g></g><g class="cls-2"><g class="cls-110"><g class="cls-2"><path class="cls-26" d="M87.53,56.85l-2.4-1a12.88,12.88,0,0,0-2.22-3.43l2.39,1a12.67,12.67,0,0,1,2.23,3.43"/></g></g></g><g class="cls-2"><g class="cls-111"><g class="cls-2"><path class="cls-29" d="M85.3,53.42l-2.39-1c2.07-3.13,4.36-9,5.87-15.09l2.4,1c-1.51,6.05-3.8,12-5.88,15.09"/></g></g></g><polygon class="cls-18" points="94.03 34.58 91.63 33.58 91.62 26.18 94.02 27.18 94.03 34.58"/><g class="cls-2"><g class="cls-112"><g class="cls-2"><path class="cls-6" d="M94,27.18l-2.4-1c0-.14,0-.26,0-.37l2.4,1c0,.11,0,.23,0,.37"/><path class="cls-7" d="M94,26.81l-2.4-1a1.86,1.86,0,0,1,.42-.92,1.89,1.89,0,0,0,.42-.79l2.4,1a1.89,1.89,0,0,1-.42.79,1.86,1.86,0,0,0-.42.92"/><path class="cls-6" d="M94.88,25.1l-2.4-1a.62.62,0,0,0,0-.13l2.39,1a.28.28,0,0,1,0,.13"/><path class="cls-5" d="M94.88,25l-2.39-1a.24.24,0,0,0-.14-.17l2.4,1a.21.21,0,0,1,.13.17"/></g></g></g><g class="cls-2"><g class="cls-113"><g class="cls-2"><path class="cls-6" d="M85.91,39.93l-2.39-1a51.79,51.79,0,0,1,5.26-1.6l2.4,1a53,53,0,0,0-5.27,1.6"/></g></g></g><g class="cls-2"><g class="cls-114"><g class="cls-2"><path class="cls-26" d="M90.86,25.55l-2.4-1,.4,0,2.4,1-.4,0"/><path class="cls-22" d="M91.26,25.51l-2.4-1c.41-.05.78-.1,1.15-.17a13.37,13.37,0,0,0,1.79-.49l.24-.06.07,0,2.4,1-.07,0-.24.06a13.37,13.37,0,0,1-1.79.49c-.37.07-.74.12-1.15.17"/><path class="cls-26" d="M94.51,24.77l-2.4-1a.44.44,0,0,1,.24,0l2.4,1a.44.44,0,0,0-.24,0"/></g></g></g><g class="cls-2"><g class="cls-115"><g class="cls-2"><path class="cls-22" d="M91.28,35.23l-2.4-1a81.74,81.74,0,0,0-.42-9.68l2.4,1a81.74,81.74,0,0,1,.42,9.68"/></g></g></g><polygon class="cls-60" points="85.92 39.93 83.52 38.93 83.51 35.14 85.91 36.14 85.92 39.93"/><g class="cls-2"><g class="cls-116"><g class="cls-2"><path class="cls-26" d="M85.91,36.14l-2.4-1,.69-.06,2.4,1-.69.06"/><path class="cls-22" d="M86.6,36.08l-2.4-1c.7-.08,1.49-.21,2.41-.38.68-.13,1.44-.29,2.27-.47l2.4,1c-.83.18-1.59.34-2.27.47-.92.17-1.71.3-2.41.38"/></g></g></g><path class="cls-117" d="M164.34,1,78.15,21.36l.09,57L164.43,58ZM144.76,13.34a14.26,14.26,0,0,0,3.23.16c.63-.06.63.16.11.68a19.09,19.09,0,0,0-2.22,3.61l4.11-1a41.17,41.17,0,0,0,5.9-1.79v3.4a26.22,26.22,0,0,0-3.12.44c-.79.15-1.67.34-2.67.57.37,1.45.86,3,1.34,4.39l-3.18,1.51a34.28,34.28,0,0,0-.83-5.27l-3,.7c-.59,1.2-1.1,2.2-1.63,3.12a4.59,4.59,0,0,0-2.67-.52c1.89-2.38,3.67-6.81,4.59-10m-14.43,3.41a19.16,19.16,0,0,0,3.49.54c.52,0,.6.35,0,.79a13.88,13.88,0,0,0-2.41,3.38l2.82-.66a34.09,34.09,0,0,0,5.6-1.73v3.4a21.42,21.42,0,0,0-3,.4q-1,.18-2.25.48c.42,1.4.79,2.63,1.16,3.69l-3.11,1.61A35.7,35.7,0,0,0,132,24l-2.3.54c-1.44,2.46-2.62,4.41-3.4,5.61a4.37,4.37,0,0,0-2.64-1.32c2.41-2.28,5.18-7.47,6.66-12m-26.68,8.68c1.38-.26,3-.61,4.94-1.07,3.49-.83,6-1.51,7.8-2.15v4c-.79.09-1.71.24-2.79.44-1.39.26-3,.63-5,1.09-3.48.83-6,1.51-7.83,2.16v-4c.85-.11,1.8-.26,2.88-.47M91,65.24c.22-2.9.36-6,.36-8.35l0-13.25c-1.33,6.47-2.25,9.73-3.77,13.21a12.67,12.67,0,0,0-2.23-3.43c2.08-3.13,4.37-9,5.88-15.09a53,53,0,0,0-5.27,1.6V36.14A27.87,27.87,0,0,0,89,35.7c.68-.13,1.44-.29,2.27-.47a81.74,81.74,0,0,0-.42-9.68c.57-.06,1.07-.12,1.55-.21a13.37,13.37,0,0,0,1.79-.49l.24-.06c.54-.11.65.29,0,1.1A1.83,1.83,0,0,0,94,27.18v7.4a39.2,39.2,0,0,0,5-1.53v3.79c-.81.07-1.79.21-3,.43-.61.12-1.28.26-2,.43l0,18.53c0,2.34.15,5.38.38,8.2L91,65.24m8.58-17.39-2.7,2.27a17.55,17.55,0,0,0-2.57-5.56l2.56-2.19c1,2.07,1.78,3.72,2.71,5.48M96.22,59.16a38.78,38.78,0,0,0,5.36-14.48,9,9,0,0,0,3.48.81c.56,0,.64.6-.14,1-.37.17-.93,1-2,3.94s-2.14,6-3.32,9.42a5.52,5.52,0,0,0-3.38-.7m8.35,3.44a6,6,0,0,0-1.85-3.83,11.67,11.67,0,0,0,2-.16,2.13,2.13,0,0,0,2.06-2.42l0-17.61c-3.15.79-5.63,1.47-7.56,2.1V36.76c.81-.12,1.7-.27,2.69-.46,1.94-.37,4.25-.87,7-1.53,4.23-1,7.38-1.84,9.6-2.58v3.92c-.82.11-1.75.26-2.82.46-1.63.31-3.57.74-5.85,1.28l0,19.23c0,2.21-.41,3.23-5.27,5.52m12.35-9.16a35.3,35.3,0,0,0-5.33-9.54L114,41.35c2.12,3,3.83,5.61,5.84,8.93l-2.92,3.16M150.35,50c-2.41.46-5.68,1.15-9.87,2.14C133,54,128.54,55.22,126.34,56V52c1.32-.21,3.42-.57,5.44-1,1.32-.26,2.61-.52,3.61-.76l7.42-1.75a46.14,46.14,0,0,0,3.77-11.59,17.24,17.24,0,0,0,3.41.34c.78,0,.74.3.12.72A4.54,4.54,0,0,0,149,39.82c-1.52,3.92-2.47,6.22-3.29,8,2.56-.65,6.38-1.77,8.38-2.42v4c-.88.12-2.12.32-3.74.63m-20.57-7.13,2.89-1.75a51.4,51.4,0,0,0,2.12,6L131.72,49a31,31,0,0,0-1.94-6.06m7.57-3.12,3-1.46c.45,1.74,1.09,4,1.61,5.83L138.76,46a29.48,29.48,0,0,0-1.41-6.19m18-5.3a26.17,26.17,0,0,1-9.06-1.82v2.51c-.81.08-1.7.21-2.77.41s-2.24.46-3.72.81a45.48,45.48,0,0,0-6.5,1.89V36a63.38,63.38,0,0,1-7.89,7.1,4.93,4.93,0,0,0-2.46-2.62c6.49-3.52,13.31-10.46,15.56-15.75a16.65,16.65,0,0,0,3.61.47c.59,0,.59.34-.12.69,2.89,3,8.17,5.21,14.51,4l.35-.07a8.24,8.24,0,0,0-1.52,4.63"/><path class="cls-43" d="M144.47,20.76c-.59,1.2-1.1,2.2-1.63,3.12a4.59,4.59,0,0,0-2.67-.52c1.89-2.38,3.67-6.81,4.59-10a14.26,14.26,0,0,0,3.23.16c.63-.06.63.16.11.68a19.09,19.09,0,0,0-2.22,3.61l4.11-1a41.17,41.17,0,0,0,5.9-1.79v3.4a26.22,26.22,0,0,0-3.12.44c-.79.15-1.67.34-2.67.57.37,1.45.86,3,1.34,4.39l-3.18,1.51a34.28,34.28,0,0,0-.83-5.27Z"/><path class="cls-117" d="M140.29,27.79A15.28,15.28,0,0,0,145,32c-1.34.45-2.94.92-5.2,1.45-1,.24-1.93.43-2.73.59s-1.58.28-2.24.37C136.84,32.16,138.73,29.83,140.29,27.79Z"/><path class="cls-43" d="M108.6,27.74c-3.48.83-6,1.51-7.83,2.16v-4c.85-.11,1.8-.26,2.88-.47,1.38-.26,3-.61,4.94-1.07,3.49-.83,6-1.51,7.8-2.15v4c-.79.09-1.71.24-2.79.44C112.21,26.91,110.57,27.28,108.6,27.74Z"/><path class="cls-43" d="M94,37.7l0,18.53c0,2.34.15,5.38.38,8.2L91,65.24c.22-2.9.36-6,.36-8.35l0-13.25c-1.33,6.47-2.25,9.73-3.77,13.21a12.67,12.67,0,0,0-2.23-3.43c2.08-3.13,4.37-9,5.88-15.09a53,53,0,0,0-5.27,1.6V36.14A27.87,27.87,0,0,0,89,35.7c.68-.13,1.44-.29,2.27-.47a81.74,81.74,0,0,0-.42-9.68c.57-.06,1.07-.12,1.55-.21a13.37,13.37,0,0,0,1.79-.49l.24-.06c.54-.11.65.29,0,1.1A1.83,1.83,0,0,0,94,27.18v7.4a39.2,39.2,0,0,0,5-1.53v3.79c-.81.07-1.79.21-3,.43C95.42,37.39,94.75,37.53,94,37.7Z"/><polygon class="cls-18" points="78.24 78.34 75.84 77.34 75.75 20.36 78.15 21.36 78.24 78.34"/><polygon class="cls-7" points="78.15 21.36 75.75 20.36 161.94 0 164.34 1 78.15 21.36"/></g></g></g></g></svg>