<svg xmlns="http://www.w3.org/2000/svg" xmlns:xlink="http://www.w3.org/1999/xlink" viewBox="0 0 253.33 341.99"><defs><style>.cls-1,.cls-16,.cls-76,.cls-79{fill:none;}.cls-2{isolation:isolate;}.cls-3{clip-path:url(#clip-path);}.cls-4{fill:#8a8a8a;}.cls-5{fill:#8f8f8f;}.cls-6{fill:#949494;}.cls-7{fill:#8d8d8d;}.cls-8{clip-path:url(#clip-path-2);}.cls-9{fill:#858585;}.cls-10{clip-path:url(#clip-path-3);}.cls-11{fill:#f8f8f8;}.cls-12{fill:#9f9f9f;}.cls-13{fill:#f7f7f7;}.cls-14{fill:#828282;}.cls-15{fill:gray;}.cls-16,.cls-76{stroke:#ed1846;}.cls-16,.cls-76,.cls-79{stroke-miterlimit:10;}.cls-16,.cls-79{stroke-width:3px;}.cls-17{fill:#969696;}.cls-18{clip-path:url(#clip-path-4);}.cls-19{clip-path:url(#clip-path-5);}.cls-20{fill:#958224;}.cls-21{clip-path:url(#clip-path-6);}.cls-22{clip-path:url(#clip-path-7);}.cls-23{clip-path:url(#clip-path-8);}.cls-24{clip-path:url(#clip-path-9);}.cls-25{clip-path:url(#clip-path-10);}.cls-26{fill:#897721;}.cls-27{clip-path:url(#clip-path-11);}.cls-28{clip-path:url(#clip-path-12);}.cls-29{clip-path:url(#clip-path-13);}.cls-30{clip-path:url(#clip-path-14);}.cls-31{clip-path:url(#clip-path-15);}.cls-32{clip-path:url(#clip-path-16);}.cls-33{fill:#847220;}.cls-34{clip-path:url(#clip-path-17);}.cls-35{fill:#8e7b22;}.cls-36{clip-path:url(#clip-path-18);}.cls-37{clip-path:url(#clip-path-19);}.cls-38{clip-path:url(#clip-path-20);}.cls-39{clip-path:url(#clip-path-21);}.cls-40{fill:#fbfbfb;}.cls-41{fill:#f9d93c;}.cls-42{clip-path:url(#clip-path-22);}.cls-43{clip-path:url(#clip-path-23);}.cls-44{clip-path:url(#clip-path-24);}.cls-45{clip-path:url(#clip-path-25);}.cls-46{fill:#999;}.cls-47{fill:#927f23;}.cls-48{clip-path:url(#clip-path-26);}.cls-49{clip-path:url(#clip-path-27);}.cls-50{fill:#968324;}.cls-51{clip-path:url(#clip-path-28);}.cls-52{clip-path:url(#clip-path-29);}.cls-53{clip-path:url(#clip-path-30);}.cls-54{clip-path:url(#clip-path-31);}.cls-55{clip-path:url(#clip-path-32);}.cls-56{clip-path:url(#clip-path-33);}.cls-57{clip-path:url(#clip-path-34);}.cls-58{clip-path:url(#clip-path-35);}.cls-59{clip-path:url(#clip-path-36);}.cls-60{clip-path:url(#clip-path-37);}.cls-61{clip-path:url(#clip-path-38);}.cls-62{clip-path:url(#clip-path-39);}.cls-63{clip-path:url(#clip-path-40);}.cls-64{clip-path:url(#clip-path-41);}.cls-65{clip-path:url(#clip-path-42);}.cls-66{clip-path:url(#clip-path-43);}.cls-67{clip-path:url(#clip-path-44);}.cls-68{clip-path:url(#clip-path-45);}.cls-69{clip-path:url(#clip-path-46);}.cls-70{clip-path:url(#clip-path-47);}.cls-71{clip-path:url(#clip-path-48);}.cls-72{clip-path:url(#clip-path-49);}.cls-73{clip-path:url(#clip-path-50);}.cls-74{clip-path:url(#clip-path-51);}.cls-75{clip-path:url(#clip-path-52);}.cls-76,.cls-79{stroke-linecap:round;}.cls-76{stroke-width:2px;}.cls-77{fill:#fff;}.cls-78{fill:#ed1c25;}.cls-79{stroke:#fff;}.cls-80{fill:#2e3192;}.cls-81{fill:#fdffff;}.cls-82{fill:#feca4e;}</style><clipPath id="clip-path"><path class="cls-1" d="M192,304.85l-29.25-11.33q10.94-1.72,15.62-5.33t7.47-11.14l29.26,11.32q-2.79,7.56-7.47,11.14T192,304.85Z"/></clipPath><clipPath id="clip-path-2"><path class="cls-1" d="M178.19,221.44l29.25,11.32a13.39,13.39,0,0,1,5.6,4q5.67,6.88,5.2,28.07-.36,16-3.14,23.55l-29.26-11.32q2.78-7.55,3.14-23.55.48-21.19-5.19-28.07A13.45,13.45,0,0,0,178.19,221.44Z"/></clipPath><clipPath id="clip-path-3"><path class="cls-1" d="M198.7,190.4,228,201.72l-.57-.21q-9.31-3.42-24.65-1L173.48,189.2q15.33-2.43,24.65,1Z"/></clipPath><clipPath id="clip-path-4"><path class="cls-1" d="M73.58,221.06c1.2-.23,2.31-.42,3.36-.59l2.4,1c-1,.17-2.16.36-3.36.59Z"/></clipPath><clipPath id="clip-path-5"><path class="cls-1" d="M75.54,216.33l-2.4-1a25.26,25.26,0,0,1-.22-3.73l2.4,1A25.26,25.26,0,0,0,75.54,216.33Z"/></clipPath><clipPath id="clip-path-6"><path class="cls-1" d="M76.61,200.69l-2.4-1,3.44-.62,2.4,1Z"/></clipPath><clipPath id="clip-path-7"><path class="cls-1" d="M75.31,206.21l-2.4-1a24.74,24.74,0,0,1,.25-3.44l2.4,1A25,25,0,0,0,75.31,206.21Z"/></clipPath><clipPath id="clip-path-8"><path class="cls-1" d="M65.73,229.4l-2.4-1c-.11-1.65-.19-3.53-.23-5.06l2.4,1C65.54,225.87,65.62,227.75,65.73,229.4Z"/></clipPath><clipPath id="clip-path-9"><path class="cls-1" d="M63.1,223.34c4.35-1,7.67-1.74,10.48-2.28l2.4,1c-2.81.53-6.13,1.26-10.48,2.28Z"/></clipPath><clipPath id="clip-path-10"><path class="cls-1" d="M65.5,221.47l-2.4-1c6.2-1.46,10.31-2.56,13.83-3.65l2.4,1C75.81,218.91,71.7,220,65.5,221.47Z"/></clipPath><clipPath id="clip-path-11"><path class="cls-1" d="M65.5,218.35l-2.4-1c3.35-.79,5.45-1.26,7-1.56,1.21-.23,2.11-.36,3-.46l2.4,1c-.91.1-1.81.23-3,.46C71,217.09,68.85,217.56,65.5,218.35Z"/></clipPath><clipPath id="clip-path-12"><path class="cls-1" d="M62.33,230.2l-2.4-1c.14-1.75.21-3.66.21-5.16l2.39,1C62.54,226.54,62.47,228.45,62.33,230.2Z"/></clipPath><clipPath id="clip-path-13"><path class="cls-1" d="M71.48,193.18c1.25-.23,2.38-.43,3.45-.6l2.4,1c-1.07.17-2.2.37-3.45.6l-.28-.11-.29-.13-.31-.13-.32-.13-.31-.13-.31-.13-.29-.12Z"/></clipPath><clipPath id="clip-path-14"><path class="cls-1" d="M69,194.68l2.4,1c.17.07.15.28-.1.53a11.91,11.91,0,0,0-1.66,3.17l-2.4-1a11.91,11.91,0,0,1,1.66-3.17C69.1,195,69.12,194.75,69,194.68Z"/></clipPath><clipPath id="clip-path-15"><path class="cls-1" d="M69.59,199.38l-2.4-1c4.34-1,7.56-1.88,10.46-2.79l2.4,1C77.15,197.5,73.92,198.34,69.59,199.38Z"/></clipPath><clipPath id="clip-path-16"><path class="cls-1" d="M69,194.68l2.4,1a.61.61,0,0,0-.25,0,30.51,30.51,0,0,1-3.12.13l-2.4-1c1,0,2.46,0,3.12-.12A.49.49,0,0,1,69,194.68Z"/></clipPath><clipPath id="clip-path-17"><path class="cls-1" d="M66.58,200.08l-2.4-1a20,20,0,0,0,1.4-4.29l2.4,1A20,20,0,0,1,66.58,200.08Z"/></clipPath><clipPath id="clip-path-18"><path class="cls-1" d="M66.57,193.13l-2.4-1c4.68-1.15,7.94-2.06,10.76-3l2.4,1C74.51,191.07,71.25,192,66.57,193.13Z"/></clipPath><clipPath id="clip-path-19"><path class="cls-1" d="M61.54,195.35c4.16-1,7.31-1.67,9.94-2.17l2.4,1c-2.63.5-5.78,1.19-9.94,2.17l-.28-.12-.29-.12-.31-.13-.32-.13-.31-.13-.31-.13-.3-.12Z"/></clipPath><clipPath id="clip-path-20"><path class="cls-1" d="M52.7,221.73l-2.4-1a98.84,98.84,0,0,1,9.83-2.68l2.4,1A98.84,98.84,0,0,0,52.7,221.73Z"/></clipPath><clipPath id="clip-path-21"><path class="cls-1" d="M48.7,228.71l-2.4-1c3.53-1.1,7.65-2.21,13.84-3.67l2.39,1C56.34,226.5,52.23,227.61,48.7,228.71Z"/></clipPath><clipPath id="clip-path-22"><path class="cls-1" d="M66.57,193.13l-2.4-1c-.26-1.57-.53-3.13-.63-4.3l2.4,1C66,190,66.31,191.56,66.57,193.13Z"/></clipPath><clipPath id="clip-path-23"><path class="cls-1" d="M52.7,221.73l-2.4-1a25.07,25.07,0,0,0,.26-3.85l2.4,1A25.07,25.07,0,0,1,52.7,221.73Z"/></clipPath><clipPath id="clip-path-24"><path class="cls-1" d="M48.7,225.06l-2.4-1c1.05-.18,2.15-.37,3.34-.6,2.83-.53,6.15-1.25,10.49-2.28l2.4,1c-4.34,1-7.66,1.75-10.49,2.28C50.85,224.69,49.75,224.88,48.7,225.06Z"/></clipPath><clipPath id="clip-path-25"><path class="cls-1" d="M61.12,200.1l-2.4-1a8.35,8.35,0,0,1-1.11-2.55l2.4,1A8.35,8.35,0,0,0,61.12,200.1Z"/></clipPath><clipPath id="clip-path-26"><path class="cls-1" d="M63,194l-2.4-1A22.92,22.92,0,0,0,60,189.2l2.4,1A22.92,22.92,0,0,1,63,194Z"/></clipPath><clipPath id="clip-path-27"><path class="cls-1" d="M58,202l-2.4-1a14.12,14.12,0,0,0-1.19-2.67l2.4,1A14.48,14.48,0,0,1,58,202Z"/></clipPath><clipPath id="clip-path-28"><path class="cls-1" d="M52.68,208.17l-2.4-1c1-.13,2-.27,3.47-.54,1.74-.34,4.11-.85,8-1.76a109.91,109.91,0,0,0,11.45-3.1l2.4,1a106.31,106.31,0,0,1-11.45,3.11c-3.85.9-6.22,1.42-8,1.75C54.73,207.89,53.73,208,52.68,208.17Z"/></clipPath><clipPath id="clip-path-29"><path class="cls-1" d="M53,211.5l-2.4-1a18.34,18.34,0,0,0-.27-3.33l2.4,1A18.34,18.34,0,0,1,53,211.5Z"/></clipPath><clipPath id="clip-path-30"><path class="cls-1" d="M41.21,233.21l-2.4-1a12.84,12.84,0,0,1,3.11-5.58l2.4,1A12.79,12.79,0,0,0,41.21,233.21Z"/></clipPath><clipPath id="clip-path-31"><path class="cls-1" d="M42.63,228l-2.4-1c.56-.11,1.12-.24,1.69-.39l2.4,1C43.75,227.78,43.19,227.91,42.63,228Z"/></clipPath><clipPath id="clip-path-32"><path class="cls-1" d="M48,207.65l-2.4-1c3.85-1.18,8.67-2.5,16-4.22,5.34-1.26,9.31-2.11,12.62-2.74l2.4,1c-3.31.63-7.28,1.48-12.62,2.74C56.68,205.15,51.86,206.47,48,207.65Z"/></clipPath><clipPath id="clip-path-33"><path class="cls-1" d="M48.19,198.9c3.3-1,7.27-2.12,13.35-3.55l2.4,1c-6.08,1.43-10,2.51-13.36,3.55Z"/></clipPath><clipPath id="clip-path-34"><path class="cls-1" d="M48,204.17l-2.4-1c.92-.13,1.82-.28,2.86-.48,1.64-.31,3.62-.75,6.6-1.45l2.4,1c-3,.7-5,1.14-6.6,1.45C49.82,203.89,48.92,204,48,204.17Z"/></clipPath><clipPath id="clip-path-35"><path class="cls-1" d="M50.58,196.46l-2.4-1c1.27-.17,2.63-.4,4.17-.69,2.28-.43,4.95-1,8.29-1.81l2.4,1c-3.34.79-6,1.38-8.29,1.81C53.21,196.06,51.85,196.29,50.58,196.46Z"/></clipPath><clipPath id="clip-path-36"><path class="cls-1" d="M30.62,231.16l-2.4-1a26.29,26.29,0,0,0,10.59,2.05l2.4,1A26.29,26.29,0,0,1,30.62,231.16Z"/></clipPath><clipPath id="clip-path-37"><path class="cls-1" d="M32,227l-2.4-1a18.29,18.29,0,0,0,10.65,1l2.4,1A18.21,18.21,0,0,1,32,227Z"/></clipPath><clipPath id="clip-path-38"><path class="cls-1" d="M29.58,226A19,19,0,0,1,27,224.69l2.4,1A19.55,19.55,0,0,0,32,227Z"/></clipPath><clipPath id="clip-path-39"><path class="cls-1" d="M30.62,231.16l-2.4-1a20.89,20.89,0,0,1-3.81-2l2.4,1A21.53,21.53,0,0,0,30.62,231.16Z"/></clipPath><clipPath id="clip-path-40"><path class="cls-1" d="M29.4,225.69l-2.4-1c3-4.52,5.18-10.42,6.28-19.13l2.4,1C34.58,215.27,32.36,221.17,29.4,225.69Z"/></clipPath><clipPath id="clip-path-41"><path class="cls-1" d="M35.68,206.56l-2.4-1c1.43-.3,2.73-.57,3.93-.79s2.3-.43,3.34-.58l2.4,1c-1,.15-2.14.35-3.34.58S37.11,206.26,35.68,206.56Z"/></clipPath><clipPath id="clip-path-42"><path class="cls-1" d="M27,224l-2.4-1c2.48-3.63,4.32-8.34,5.09-16.62l2.4,1C31.31,215.64,29.47,220.35,27,224Z"/></clipPath><clipPath id="clip-path-43"><path class="cls-1" d="M29.85,204.49l-2.4-1c5.75-1.4,9.72-2.46,13.09-3.53l2.4,1C39.57,202,35.6,203.09,29.85,204.49Z"/></clipPath><clipPath id="clip-path-44"><path class="cls-1" d="M13.73,239.74l-2.4-1a55.92,55.92,0,0,0,13.08-10.61l2.4,1A55.92,55.92,0,0,1,13.73,239.74Z"/></clipPath><clipPath id="clip-path-45"><path class="cls-1" d="M29.85,204.49l-2.4-1a46.73,46.73,0,0,1-1.2-6.27l2.4,1A46.73,46.73,0,0,0,29.85,204.49Z"/></clipPath><clipPath id="clip-path-46"><path class="cls-1" d="M13.73,239.74l-2.4-1a4.74,4.74,0,0,0-2.64-3.64l2.4,1A4.75,4.75,0,0,1,13.73,239.74Z"/></clipPath><clipPath id="clip-path-47"><path class="cls-1" d="M11.09,236.1l-2.4-1a35.06,35.06,0,0,0,13.38-9l2.4,1A35.06,35.06,0,0,1,11.09,236.1Z"/></clipPath><clipPath id="clip-path-48"><path class="cls-1" d="M27,224l-2.4-1c-3.46-3.19-5.4-9.74-5.92-14l2.4,1C21.59,214.24,23.53,220.79,27,224Z"/></clipPath><clipPath id="clip-path-49"><path class="cls-1" d="M26.48,205.29l-2.4-1a25.43,25.43,0,0,0-1.87-5l2.4,1A25.58,25.58,0,0,1,26.48,205.29Z"/></clipPath><clipPath id="clip-path-50"><path class="cls-1" d="M24.47,227.13l-2.4-1c-3.53-3.93-5.84-10.91-6.55-16.38l2.4,1C18.63,216.22,20.94,223.2,24.47,227.13Z"/></clipPath><clipPath id="clip-path-51"><path class="cls-1" d="M11.2,212.68l-2.4-1c2-.63,4.19-1.29,6.72-1.93l2.4,1C15.39,211.39,13.17,212.05,11.2,212.68Z"/></clipPath><clipPath id="clip-path-52"><path class="cls-1" d="M11.19,208.46l-2.4-1c1.2-.18,2.47-.4,3.86-.67,3-.58,6.67-1.37,11.43-2.49l2.4,1c-4.76,1.12-8.39,1.91-11.43,2.49C13.66,208.05,12.39,208.27,11.19,208.46Z"/></clipPath></defs><title>资源 11</title><g id="图层_2" data-name="图层 2"><g id="D"><g class="cls-2"><g class="cls-2"><g class="cls-3"><g class="cls-2"><path class="cls-4" d="M192,304.85l-29.25-11.33a51.27,51.27,0,0,0,11.07-2.83L203.08,302A51.33,51.33,0,0,1,192,304.85"/><path class="cls-5" d="M203.08,302l-29.26-11.32a19.12,19.12,0,0,0,4.55-2.5l0,0,29.25,11.32,0,0a19.53,19.53,0,0,1-4.55,2.5"/><path class="cls-6" d="M207.66,299.48l-29.25-11.32c3.1-2.39,5.59-6.1,7.43-11.11l29.26,11.32q-2.78,7.53-7.44,11.11"/></g></g></g><polygon class="cls-7" points="183.46 306.2 154.2 294.88 162.75 293.52 192 304.85 183.46 306.2"/><g class="cls-2"><g class="cls-8"><g class="cls-2"><path class="cls-6" d="M215.1,288.37l-29.26-11.32a50.34,50.34,0,0,0,2.39-11.43l29.26,11.32a50.64,50.64,0,0,1-2.39,11.43"/><path class="cls-5" d="M217.49,276.94l-29.26-11.32q.6-5.3.75-12.12a99.6,99.6,0,0,0-.57-14.46l29.25,11.33a100.82,100.82,0,0,1,.58,14.45q-.17,6.82-.75,12.12"/><path class="cls-4" d="M217.66,250.37,188.41,239a38.56,38.56,0,0,0-2.21-9.38L215.45,241a38,38,0,0,1,2.21,9.38"/><path class="cls-9" d="M215.45,241,186.2,229.66a16.14,16.14,0,0,0-2.41-4.23,13.45,13.45,0,0,0-5.6-4l29.25,11.32a13.39,13.39,0,0,1,5.6,4,15.93,15.93,0,0,1,2.41,4.24"/></g></g></g><g class="cls-2"><g class="cls-10"><g class="cls-2"><path class="cls-4" d="M202.73,200.52,173.48,189.2q3.2-.51,6.14-.76l29.26,11.32q-2.94.26-6.15.76"/><path class="cls-9" d="M208.88,199.76l-29.26-11.32q11.15-1,18.51,1.74l.57.22L228,201.72l-.57-.21q-7.37-2.7-18.5-1.75"/></g></g></g><path class="cls-11" d="M251.11,233.08a109.89,109.89,0,0,1,2.19,25.37q-.5,21.36-4.87,33.79a70.49,70.49,0,0,1-11.89,21.53q-7.5,9.12-15.95,13.08a78.43,78.43,0,0,1-20.88,6.93L147.88,342l3-133.26,51.84-8.21q15.33-2.43,24.65,1a32.26,32.26,0,0,1,15.28,11.61A51.93,51.93,0,0,1,251.11,233.08Zm-36,55.29q2.76-7.55,3.14-23.55.48-21.18-5.2-28.07T193.81,232l-8.7,1.38-1.65,72.81,8.54-1.35q10.94-1.74,15.63-5.34t7.47-11.14"/><polygon class="cls-12" points="147.88 341.99 118.62 330.67 121.64 197.41 150.9 208.73 147.88 341.99"/><polygon class="cls-7" points="150.9 208.73 121.64 197.41 173.48 189.2 202.73 200.52 150.9 208.73"/></g><g id="Pole"><g class="cls-2"><polygon class="cls-13" points="175.23 0.99 174.86 195.96 169.21 196.75 169.57 1.79 175.23 0.99"/><polygon class="cls-14" points="169.21 196.75 167.38 195.76 167.75 0.8 169.57 1.79 169.21 196.75"/><polygon class="cls-15" points="169.57 1.79 167.75 0.8 173.4 0 175.23 0.99 169.57 1.79"/></g></g><g id="梯子"><path class="cls-16" d="M122,327.4l2.62-122.86a5,5,0,0,1,4.14-4.87L138,198c3.09-.56,2.94,1.42,2.94,1.42"/><path class="cls-16" d="M139,332.4l2.62-122.86a5,5,0,0,1,4.14-4.87L155,203c3.09-.56,2.94,1.42,2.94,1.42"/><line class="cls-16" x1="124.41" y1="213.49" x2="140.98" y2="220.01"/><line class="cls-16" x1="124.41" y1="228.49" x2="140.98" y2="235.01"/><line class="cls-16" x1="124.41" y1="243.49" x2="140.98" y2="250.01"/><line class="cls-16" x1="124.41" y1="258.49" x2="140.98" y2="265.01"/><line class="cls-16" x1="123.41" y1="273.49" x2="139.98" y2="280.01"/><line class="cls-16" x1="122.41" y1="288.49" x2="138.98" y2="295.01"/><line class="cls-16" x1="122.41" y1="303.49" x2="138.98" y2="310.01"/><line class="cls-16" x1="138.98" y1="325.01" x2="122.41" y2="318.49"/></g><g id="文章"><g class="cls-2"><polygon class="cls-17" points="79.34 221.47 76.94 220.47 76.93 216.82 79.33 217.81 79.34 221.47"/><g class="cls-2"><g class="cls-18"><g class="cls-2"><path class="cls-4" d="M76,222.06l-2.4-1c1.2-.23,2.31-.42,3.36-.59l2.4,1c-1,.17-2.16.36-3.36.59"/></g></g></g><g class="cls-2"><g class="cls-19"><g class="cls-2"><path class="cls-9" d="M75.54,216.33l-2.4-1v-.07l2.4,1v.07"/><path class="cls-4" d="M75.53,216.26l-2.4-1a25.1,25.1,0,0,1-.21-3.66l2.4,1a25.1,25.1,0,0,0,.21,3.66"/></g></g></g><polygon class="cls-17" points="80.05 200.07 77.65 199.07 77.65 195.59 80.05 196.59 80.05 200.07"/><polygon class="cls-17" points="75.32 212.6 72.92 211.6 72.91 205.21 75.31 206.21 75.32 212.6"/><polygon class="cls-20" points="72.36 214.13 69.96 213.13 69.95 210.54 72.35 211.54 72.36 214.13"/><g class="cls-2"><g class="cls-21"><g class="cls-2"><path class="cls-4" d="M76.61,200.69l-2.4-1,3.44-.62,2.4,1-3.44.62"/></g></g></g><g class="cls-2"><g class="cls-22"><g class="cls-2"><path class="cls-4" d="M75.31,206.21l-2.4-1a26.35,26.35,0,0,1,.2-3.11l2.4,1a26.66,26.66,0,0,0-.2,3.12"/><path class="cls-5" d="M75.51,203.09l-2.4-1c0-.13,0-.24,0-.33l2.4,1c0,.1,0,.21,0,.33"/></g></g></g><g class="cls-2"><g class="cls-23"><g class="cls-2"><path class="cls-4" d="M65.73,229.4l-2.4-1c-.11-1.65-.19-3.53-.23-5.06l2.4,1c0,1.53.12,3.41.23,5.06"/></g></g></g><g class="cls-2"><g class="cls-24"><g class="cls-2"><path class="cls-4" d="M65.5,224.34l-2.4-1c4.35-1,7.67-1.74,10.48-2.28l2.4,1c-2.81.53-6.13,1.26-10.48,2.28"/></g></g></g><polygon class="cls-20" points="72.35 209.06 69.95 208.07 69.94 205.52 72.34 206.52 72.35 209.06"/><polygon class="cls-5" points="62.33 230.2 59.93 229.2 63.33 228.4 65.73 229.4 62.33 230.2"/><g class="cls-2"><g class="cls-25"><g class="cls-2"><path class="cls-26" d="M65.5,221.47l-2.4-1c6.2-1.46,10.31-2.56,13.83-3.65l2.4,1c-3.52,1.09-7.63,2.19-13.83,3.65"/></g></g></g><polygon class="cls-17" points="77.33 193.58 74.93 192.58 74.93 189.14 77.33 190.14 77.33 193.58"/><polygon class="cls-17" points="65.5 221.47 63.1 220.47 63.1 217.35 65.5 218.35 65.5 221.47"/><g class="cls-2"><g class="cls-27"><g class="cls-2"><path class="cls-4" d="M65.5,218.35l-2.4-1c3.35-.79,5.45-1.26,7-1.56,1.21-.23,2.11-.36,3-.46l2.4,1c-.91.1-1.81.23-3,.46-1.57.3-3.67.77-7,1.56"/></g></g></g><g class="cls-2"><g class="cls-28"><g class="cls-2"><path class="cls-26" d="M62.33,230.2l-2.4-1c.14-1.75.21-3.66.21-5.16l2.39,1c0,1.5-.06,3.41-.2,5.16"/></g></g></g><g class="cls-2"><g class="cls-29"><g class="cls-2"><path class="cls-4" d="M50.58,199.9l-2.39-1c3.3-1,7.27-2.12,13.35-3.55,4.16-1,7.31-1.67,9.94-2.17,1.25-.23,2.38-.43,3.45-.6l2.4,1c-1.07.17-2.2.37-3.45.6-2.63.5-5.78,1.19-9.94,2.17-6.08,1.43-10,2.51-13.36,3.55"/></g></g></g><polygon class="cls-20" points="62.53 222.18 60.13 221.18 60.13 218.06 62.53 219.05 62.53 222.18"/><g class="cls-2"><g class="cls-30"><g class="cls-2"><path class="cls-5" d="M69.59,199.38l-2.4-1a11.91,11.91,0,0,1,1.66-3.17.73.73,0,0,0,.21-.34l2.4,1a.73.73,0,0,1-.21.34,11.91,11.91,0,0,0-1.66,3.17"/><path class="cls-4" d="M71.46,195.87l-2.4-1v-.06l2.4,1v.06"/><path class="cls-9" d="M71.46,195.81l-2.4-1a.18.18,0,0,0-.11-.13l2.4,1a.18.18,0,0,1,.11.13"/></g></g></g><g class="cls-2"><g class="cls-31"><g class="cls-2"><path class="cls-26" d="M69.59,199.38l-2.4-1c4.34-1,7.56-1.88,10.46-2.79l2.4,1c-2.9.91-6.13,1.75-10.46,2.79"/></g></g></g><g class="cls-2"><g class="cls-32"><g class="cls-2"><path class="cls-33" d="M68,195.79l-2.4-1c1,0,2.38,0,3.07-.12l2.4,1c-.69.07-2,.13-3.07.12"/><path class="cls-26" d="M71.05,195.67l-2.4-1h.07l2.4,1h-.07"/><path class="cls-33" d="M71.12,195.66l-2.4-1a.51.51,0,0,1,.23,0l2.4,1a.51.51,0,0,0-.23,0"/></g></g></g><g class="cls-2"><g class="cls-34"><g class="cls-2"><path class="cls-35" d="M66.58,200.08l-2.4-1a20,20,0,0,0,1.4-4.29l2.4,1a20,20,0,0,1-1.4,4.29"/></g></g></g><g class="cls-2"><g class="cls-36"><g class="cls-2"><path class="cls-26" d="M66.57,193.13l-2.4-1c4.68-1.15,7.94-2.06,10.76-3l2.4,1c-2.82.93-6.08,1.84-10.76,3"/></g></g></g><polygon class="cls-35" points="55.96 218.01 53.56 217.01 69.96 213.13 72.36 214.13 55.96 218.01"/><g class="cls-2"><g class="cls-37"><g class="cls-2"><path class="cls-4" d="M50.58,199.9l-2.39-1c3.3-1,7.27-2.12,13.35-3.55,4.16-1,7.31-1.67,9.94-2.17,1.25-.23,2.38-.43,3.45-.6l2.4,1c-1.07.17-2.2.37-3.45.6-2.63.5-5.78,1.19-9.94,2.17-6.08,1.43-10,2.51-13.36,3.55"/></g></g></g><polygon class="cls-17" points="55.96 218.01 53.56 217.01 53.56 214.41 55.96 215.41 55.96 218.01"/><polygon class="cls-5" points="55.96 215.41 53.56 214.41 69.95 210.54 72.35 211.54 55.96 215.41"/><g class="cls-2"><g class="cls-38"><g class="cls-2"><path class="cls-4" d="M52.7,221.73l-2.4-1a98.84,98.84,0,0,1,9.83-2.68l2.4,1a98.84,98.84,0,0,0-9.83,2.68"/></g></g></g><polygon class="cls-35" points="55.95 212.95 53.55 211.95 69.95 208.07 72.35 209.06 55.95 212.95"/><g class="cls-2"><g class="cls-39"><g class="cls-2"><path class="cls-4" d="M48.7,228.71l-2.4-1c3.53-1.1,7.65-2.21,13.84-3.67l2.39,1c-6.19,1.46-10.3,2.57-13.83,3.67"/></g></g></g><polygon class="cls-5" points="55.95 210.39 53.55 209.39 69.94 205.52 72.34 206.52 55.95 210.39"/><polygon class="cls-17" points="55.95 212.95 53.55 211.95 53.55 209.39 55.95 210.39 55.95 212.95"/><polygon class="cls-40" points="72.34 206.52 72.35 209.06 55.95 212.95 55.95 210.39 72.34 206.52"/><path class="cls-41" d="M65.5,221.47c6.2-1.46,10.31-2.56,13.83-3.65v3.65c-1,.17-2.16.36-3.36.59-2.81.53-6.13,1.26-10.48,2.28,0,1.53.12,3.41.23,5.06l-3.4.8c.14-1.75.21-3.66.2-5.16-6.19,1.46-10.3,2.57-13.83,3.67v-3.65c1-.18,2.15-.37,3.34-.6,2.83-.53,6.15-1.25,10.49-2.28v-3.13a98.84,98.84,0,0,0-9.83,2.68,25.07,25.07,0,0,0,.26-3.85V211.5a18.34,18.34,0,0,0-.27-3.33c1-.13,2-.28,3.47-.55,1.74-.33,4.11-.85,8-1.75a106.31,106.31,0,0,0,11.45-3.11,25,25,0,0,0-.25,3.45v6.39a25.26,25.26,0,0,0,.22,3.73c-.91.1-1.81.23-3,.46-1.57.3-3.67.77-7,1.56ZM56,218l16.4-3.88v-2.59L56,215.41V218m0-7.62V213l16.4-3.88v-2.55L56,210.39"/><polygon class="cls-40" points="72.35 211.54 72.36 214.13 55.96 218.01 55.96 215.41 72.35 211.54"/><g class="cls-2"><g class="cls-42"><g class="cls-2"><path class="cls-4" d="M66.57,193.13l-2.4-1c-.26-1.57-.53-3.13-.63-4.3l2.4,1c.1,1.17.37,2.73.63,4.3"/></g></g></g><g class="cls-2"><g class="cls-43"><g class="cls-2"><path class="cls-35" d="M52.7,221.73l-2.4-1,0-.17,2.39,1a1,1,0,0,1,0,.17"/><path class="cls-26" d="M52.72,221.56l-2.39-1a25.73,25.73,0,0,0,.23-3.68l2.4,1a24.27,24.27,0,0,1-.24,3.68"/></g></g></g><g class="cls-2"><g class="cls-44"><g class="cls-2"><path class="cls-26" d="M48.7,225.06l-2.4-1c1.05-.18,2.15-.37,3.34-.6,2.83-.53,6.15-1.25,10.49-2.28l2.4,1c-4.34,1-7.66,1.75-10.49,2.28-1.19.23-2.29.42-3.34.6"/></g></g></g><polygon class="cls-20" points="48.7 228.71 46.3 227.71 46.3 224.06 48.7 225.06 48.7 228.71"/><polygon class="cls-35" points="57.46 202.24 55.06 201.24 64.18 199.09 66.58 200.08 57.46 202.24"/><g class="cls-2"><g class="cls-45"><g class="cls-2"><path class="cls-9" d="M61.12,200.1l-2.4-1a8.35,8.35,0,0,1-1.11-2.55l2.4,1a8.35,8.35,0,0,0,1.11,2.55"/></g></g></g><polygon class="cls-46" points="58.01 202.02 55.61 201.02 58.72 199.1 61.12 200.1 58.01 202.02"/><polygon class="cls-47" points="62.37 190.2 59.97 189.2 63.54 187.83 65.94 188.83 62.37 190.2"/><g class="cls-2"><g class="cls-48"><g class="cls-2"><path class="cls-26" d="M63,194l-2.4-1c0-.55-.12-1.11-.22-1.68l2.4,1c.1.57.17,1.13.22,1.68"/><path class="cls-33" d="M62.82,192.28l-2.4-1c-.12-.69-.27-1.38-.45-2.08l2.4,1c.18.7.33,1.39.45,2.08"/></g></g></g><polygon class="cls-20" points="52.95 217.88 50.56 216.88 50.55 210.5 52.95 211.5 52.95 217.88"/><g class="cls-2"><g class="cls-49"><g class="cls-2"><path class="cls-33" d="M58,202l-2.4-1a14.12,14.12,0,0,0-1.19-2.67l2.4,1A14.48,14.48,0,0,1,58,202"/></g></g></g><polygon class="cls-50" points="56.82 199.35 54.42 198.35 57.61 196.55 60.01 197.54 56.82 199.35"/><g class="cls-2"><g class="cls-51"><g class="cls-2"><path class="cls-26" d="M52.68,208.17l-2.4-1c1-.13,2-.27,3.47-.54,1.74-.34,4.11-.85,8-1.76a109.91,109.91,0,0,0,11.45-3.1l2.4,1a106.31,106.31,0,0,1-11.45,3.11c-3.85.9-6.22,1.42-8,1.75-1.42.27-2.42.42-3.47.55"/></g></g></g><g class="cls-2"><g class="cls-52"><g class="cls-2"><path class="cls-26" d="M53,211.5l-2.4-1a19.4,19.4,0,0,0-.22-3.06l2.4,1A19.4,19.4,0,0,1,53,211.5"/><path class="cls-33" d="M52.73,208.44l-2.4-1a2.56,2.56,0,0,0,0-.27l2.4,1a2.56,2.56,0,0,1,0,.27"/></g></g></g><g class="cls-2"><g class="cls-53"><g class="cls-2"><path class="cls-5" d="M41.21,233.21l-2.4-1a12.84,12.84,0,0,1,3.11-5.58l2.4,1a12.79,12.79,0,0,0-3.11,5.58"/></g></g></g><g class="cls-2"><g class="cls-54"><g class="cls-2"><path class="cls-26" d="M42.63,228l-2.4-1c.56-.11,1.12-.24,1.69-.39l2.4,1c-.57.15-1.13.28-1.69.38"/></g></g></g><g class="cls-2"><g class="cls-55"><g class="cls-2"><path class="cls-4" d="M48,207.65l-2.4-1c3.85-1.18,8.67-2.5,16-4.22,5.34-1.26,9.31-2.11,12.62-2.74l2.4,1c-3.31.63-7.28,1.48-12.62,2.74-7.31,1.72-12.13,3-16,4.22"/></g></g></g><g class="cls-2"><g class="cls-56"><g class="cls-2"><path class="cls-4" d="M50.58,199.9l-2.39-1c3.3-1,7.27-2.12,13.35-3.55,4.16-1,7.31-1.67,9.94-2.17,1.25-.23,2.38-.43,3.45-.6l2.4,1c-1.07.17-2.2.37-3.45.6-2.63.5-5.78,1.19-9.94,2.17-6.08,1.43-10,2.51-13.36,3.55"/></g></g></g><path class="cls-41" d="M76.61,200.69c-3.31.63-7.28,1.48-12.62,2.74-7.31,1.72-12.13,3-16,4.22v-3.48c.92-.13,1.82-.28,2.86-.48,1.63-.31,3.62-.75,6.6-1.45l9.12-2.16a20,20,0,0,0,1.4-4.29,30.51,30.51,0,0,0,3.12-.13c.41,0,.48.2.15.55a11.91,11.91,0,0,0-1.66,3.17c4.33-1,7.56-1.88,10.46-2.79v3.48Z"/><polygon class="cls-20" points="48.01 207.65 45.61 206.65 45.6 203.17 48 204.17 48.01 207.65"/><g class="cls-2"><g class="cls-57"><g class="cls-2"><path class="cls-26" d="M48,204.17l-2.4-1c.92-.13,1.82-.28,2.86-.48,1.64-.31,3.62-.75,6.6-1.45l2.4,1c-3,.7-5,1.14-6.6,1.45-1,.2-1.94.35-2.86.48"/></g></g></g><path class="cls-41" d="M63.94,196.35c-6.08,1.43-10,2.51-13.36,3.55v-3.44c1.27-.17,2.63-.4,4.17-.69,2.28-.43,5-1,8.29-1.81a22.92,22.92,0,0,0-.67-3.76l3.57-1.37c.1,1.17.37,2.73.63,4.3,4.68-1.15,7.94-2.06,10.76-3v3.44c-1.07.17-2.2.37-3.45.6C71.25,194.68,68.1,195.37,63.94,196.35Z"/><polygon class="cls-20" points="50.59 199.9 48.19 198.9 48.18 195.46 50.58 196.46 50.59 199.9"/><g class="cls-2"><g class="cls-58"><g class="cls-2"><path class="cls-26" d="M50.58,196.46l-2.4-1c1.27-.17,2.63-.4,4.17-.69,2.28-.43,4.95-1,8.29-1.81l2.4,1c-3.34.79-6,1.38-8.29,1.81-1.54.29-2.9.52-4.17.69"/></g></g></g><g class="cls-2"><g class="cls-59"><g class="cls-2"><path class="cls-9" d="M30.62,231.16l-2.4-1a26.29,26.29,0,0,0,10.59,2.05l2.4,1a26.29,26.29,0,0,1-10.59-2.05"/></g></g></g><polygon class="cls-17" points="42.95 205.19 40.55 204.19 40.54 199.96 42.94 200.96 42.95 205.19"/><g class="cls-2"><g class="cls-60"><g class="cls-2"><path class="cls-33" d="M32,227l-2.4-1a18.06,18.06,0,0,0,9.06,1.26l2.4,1A18.06,18.06,0,0,1,32,227"/><path class="cls-26" d="M41,228.26l-2.4-1q.8-.09,1.59-.24l2.4,1c-.53.11-1.06.19-1.59.25"/></g></g></g><g class="cls-2"><g class="cls-61"><g class="cls-2"><path class="cls-9" d="M32,227l-2.4-1A19,19,0,0,1,27,224.69l2.4,1A19.55,19.55,0,0,0,32,227"/></g></g></g><g class="cls-2"><g class="cls-62"><g class="cls-2"><path class="cls-33" d="M30.62,231.16l-2.4-1a20.89,20.89,0,0,1-3.81-2l2.4,1a21.53,21.53,0,0,0,3.81,2"/></g></g></g><g class="cls-2"><g class="cls-63"><g class="cls-2"><path class="cls-5" d="M29.4,225.69l-2.4-1c2.84-4.33,5-9.93,6.14-18.07l2.4,1c-1.15,8.14-3.3,13.73-6.14,18.07"/><path class="cls-4" d="M35.54,207.62l-2.4-1c0-.35.09-.7.14-1.06l2.4,1c0,.36-.09.71-.14,1.06"/></g></g></g><g class="cls-2"><g class="cls-64"><g class="cls-2"><path class="cls-4" d="M35.68,206.56l-2.4-1c1.43-.3,2.73-.57,3.93-.79s2.3-.43,3.34-.58l2.4,1c-1,.15-2.14.35-3.34.58s-2.5.49-3.93.79"/></g></g></g><g class="cls-2"><g class="cls-65"><g class="cls-2"><path class="cls-35" d="M27,224l-2.4-1c2.15-3.16,3.83-7.13,4.74-13.56l2.4,1c-.91,6.44-2.59,10.41-4.74,13.57"/><path class="cls-26" d="M31.73,210.41l-2.4-1c.13-1,.25-2,.35-3.06l2.4,1c-.1,1.08-.22,2.09-.35,3"/></g></g></g><g class="cls-2"><g class="cls-66"><g class="cls-2"><path class="cls-26" d="M29.85,204.49l-2.4-1c5.75-1.4,9.72-2.46,13.09-3.53l2.4,1c-3.37,1.07-7.34,2.13-13.09,3.53"/></g></g></g><g class="cls-2"><g class="cls-67"><g class="cls-2"><path class="cls-4" d="M13.73,239.74l-2.4-1,.35-.18,2.4,1-.35.18"/><path class="cls-5" d="M14.08,239.56l-2.4-1a57.43,57.43,0,0,0,12.73-10.43l2.4,1a57.43,57.43,0,0,1-12.73,10.43"/></g></g></g><g class="cls-2"><g class="cls-68"><g class="cls-2"><path class="cls-9" d="M29.85,204.49l-2.4-1c-.34-1.32-.67-2.82-.9-4.2l2.4,1c.23,1.38.56,2.88.9,4.2"/><path class="cls-4" d="M29,200.29l-2.4-1c-.13-.74-.23-1.44-.3-2.07l2.4,1c.07.62.17,1.33.3,2.07"/></g></g></g><g class="cls-2"><g class="cls-69"><g class="cls-2"><path class="cls-26" d="M13.73,239.74l-2.4-1v0l2.4,1v0"/><path class="cls-33" d="M13.72,239.71l-2.4-1a4.73,4.73,0,0,0-2.63-3.61l2.4,1a4.73,4.73,0,0,1,2.63,3.61"/></g></g></g><g class="cls-2"><g class="cls-70"><g class="cls-2"><path class="cls-26" d="M11.09,236.1l-2.4-1a31.93,31.93,0,0,0,4.51-2l2.4,1a31.93,31.93,0,0,1-4.51,2"/><path class="cls-35" d="M15.6,234.05l-2.4-1a35.69,35.69,0,0,0,8.87-6.92l2.4,1a35.69,35.69,0,0,1-8.87,6.92"/></g></g></g><g class="cls-2"><g class="cls-71"><g class="cls-2"><path class="cls-9" d="M27,224l-2.4-1c-3.13-2.89-5-8.52-5.73-12.73l2.4,1c.72,4.21,2.6,9.84,5.73,12.73"/><path class="cls-4" d="M21.26,211.25l-2.4-1c-.08-.45-.14-.88-.19-1.29l2.4,1c.05.41.11.84.19,1.29"/></g></g></g><path class="cls-40" d="M21.07,210l11-2.6c-.77,8.28-2.61,13-5.09,16.62C23.53,220.79,21.59,214.24,21.07,210Z"/><polygon class="cls-5" points="21.07 209.96 18.67 208.96 29.68 206.36 32.08 207.36 21.07 209.96"/><polygon class="cls-20" points="24.61 200.27 22.21 199.27 26.25 197.22 28.65 198.22 24.61 200.27"/><g class="cls-2"><g class="cls-72"><g class="cls-2"><path class="cls-33" d="M26.48,205.29l-2.4-1a25.43,25.43,0,0,0-1.87-5l2.4,1a25.58,25.58,0,0,1,1.87,5"/></g></g></g><g class="cls-2"><g class="cls-73"><g class="cls-2"><path class="cls-33" d="M24.47,227.13l-2.4-1c-3.24-3.6-5.45-9.78-6.34-15l2.4,1c.89,5.21,3.1,11.39,6.34,15"/><path class="cls-26" d="M18.13,212.14l-2.4-1c-.08-.47-.15-.94-.21-1.39l2.4,1c.06.45.12.91.21,1.39"/></g></g></g><g class="cls-2"><g class="cls-74"><g class="cls-2"><path class="cls-4" d="M11.2,212.68l-2.4-1c2-.63,4.19-1.29,6.72-1.93l2.4,1c-2.53.64-4.75,1.3-6.72,1.93"/></g></g></g><polygon class="cls-20" points="11.2 212.68 8.8 211.69 8.79 207.46 11.19 208.46 11.2 212.68"/><g class="cls-2"><g class="cls-75"><g class="cls-2"><path class="cls-26" d="M11.19,208.46l-2.4-1c1.2-.18,2.47-.4,3.86-.67,3-.58,6.67-1.37,11.43-2.49l2.4,1c-4.76,1.13-8.39,1.92-11.43,2.5-1.39.26-2.66.48-3.86.67"/></g></g></g><path class="cls-40" d="M88.59,176.73l.09,57L2.49,254.07l-.09-57ZM41.21,233.21a12.79,12.79,0,0,1,3.11-5.58c-.57.15-1.13.28-1.69.38a18.22,18.22,0,0,1-13.23-2.32c3-4.52,5.18-10.42,6.28-19.13,1.43-.3,2.73-.57,3.93-.79s2.3-.43,3.34-.58V201c-3.37,1.07-7.34,2.13-13.09,3.53a46.73,46.73,0,0,1-1.2-6.27l-4,2.05a25.58,25.58,0,0,1,1.87,5c-4.76,1.13-8.39,1.92-11.43,2.5-1.39.26-2.66.48-3.86.67v4.22c2-.63,4.19-1.29,6.72-1.93.71,5.47,3,12.45,6.55,16.38a35.06,35.06,0,0,1-13.38,9,4.75,4.75,0,0,1,2.64,3.64,55.92,55.92,0,0,0,13.08-10.61,25.93,25.93,0,0,0,14.4,4.08M76,222.06c1.2-.23,2.31-.42,3.36-.59v-3.65c-3.52,1.09-7.63,2.19-13.83,3.65v-3.12c3.35-.79,5.45-1.26,7-1.56,1.21-.23,2.11-.36,3-.46a25.26,25.26,0,0,1-.22-3.73v-6.39a25,25,0,0,1,.25-3.45,106.31,106.31,0,0,1-11.45,3.11c-3.85.9-6.22,1.42-8,1.75-1.42.27-2.42.42-3.47.55A18.34,18.34,0,0,1,53,211.5v6.38a25.07,25.07,0,0,1-.26,3.85,98.84,98.84,0,0,1,9.83-2.68v3.13c-4.34,1-7.66,1.75-10.49,2.28-1.19.23-2.29.42-3.34.6v3.65c3.53-1.1,7.64-2.21,13.83-3.67,0,1.5-.06,3.41-.2,5.16l3.4-.8c-.11-1.65-.19-3.53-.23-5.06,4.35-1,7.67-1.75,10.48-2.28m.63-21.37,3.44-.62v-3.48c-2.9.91-6.13,1.75-10.46,2.79a11.91,11.91,0,0,1,1.66-3.17c.33-.35.26-.6-.15-.55a30.51,30.51,0,0,1-3.12.13,20,20,0,0,1-1.4,4.29l-9.12,2.16c-3,.7-5,1.14-6.6,1.45-1,.2-1.94.35-2.86.48v3.48c3.85-1.18,8.67-2.5,16-4.22,5.34-1.26,9.31-2.11,12.62-2.74m-21.86-4.92c-1.54.29-2.9.52-4.17.69v3.44c3.31-1,7.28-2.12,13.36-3.55,4.16-1,7.31-1.67,9.94-2.17,1.25-.23,2.38-.43,3.45-.6v-3.44c-2.82.93-6.08,1.84-10.76,3-.26-1.57-.53-3.13-.63-4.3l-3.57,1.37A22.92,22.92,0,0,1,63,194c-3.34.79-6,1.38-8.29,1.81m6.37,4.33A8.35,8.35,0,0,1,60,197.55l-3.19,1.8A14.48,14.48,0,0,1,58,202l3.11-1.92"/><path class="cls-41" d="M58,202a14.48,14.48,0,0,0-1.19-2.67l3.19-1.8a8.35,8.35,0,0,0,1.11,2.55Z"/><path class="cls-41" d="M42.63,228c.56-.1,1.12-.23,1.69-.38a12.79,12.79,0,0,0-3.11,5.58,25.93,25.93,0,0,1-14.4-4.08,55.92,55.92,0,0,1-13.08,10.61,4.75,4.75,0,0,0-2.64-3.64,35.06,35.06,0,0,0,13.38-9c-3.53-3.93-5.84-10.91-6.55-16.38-2.53.64-4.75,1.3-6.72,1.93v-4.22c1.2-.19,2.47-.41,3.86-.67,3-.58,6.67-1.37,11.43-2.5a25.58,25.58,0,0,0-1.87-5l4-2.05a46.73,46.73,0,0,0,1.2,6.27c5.75-1.4,9.72-2.46,13.09-3.53v4.23c-1,.15-2.14.35-3.34.58s-2.5.49-3.93.79c-1.1,8.71-3.32,14.61-6.28,19.13A18.22,18.22,0,0,0,42.63,228ZM21.07,210c.52,4.28,2.46,10.83,5.92,14,2.48-3.63,4.32-8.34,5.09-16.62l-11,2.6"/><polygon class="cls-17" points="2.49 254.07 0.09 253.07 0 196.1 2.4 197.1 2.49 254.07"/><polygon class="cls-5" points="2.4 197.1 0 196.1 86.19 175.73 88.59 176.73 2.4 197.1"/></g></g><line id="Pole-2" data-name="Pole" class="cls-76" x1="91.12" y1="175.9" x2="91.12" y2="268.28"/><g id="people"><circle class="cls-77" cx="110.76" cy="239.6" r="7.54"/><rect class="cls-77" x="108.61" y="241.76" width="6.47" height="8.62" transform="translate(223.68 492.14) rotate(-180)"/><path class="cls-78" d="M101.07,238.63A9.35,9.35,0,0,0,109,247.1c5.05.87,3-10.35,7.92-12.23,2.9-1.1,1-4.7-3-3.76,0,0-3-1.88-5.94-.94C103.59,231.56,101.07,234.22,101.07,238.63Z"/><ellipse class="cls-77" cx="112.38" cy="241.76" rx="1.08" ry="1.62" transform="translate(-121.62 114) rotate(-36.43)"/><path class="cls-79" d="M113.87,252.52c16.83,5.94,22.22,2.71,24.38-7"/><path class="cls-79" d="M106.82,252.88c-2.62.7-12.19-1.57-16.8,9.09"/><path class="cls-80" d="M118.85,270.32s6.49-4.85,11.31-4.85c4.31,0,0,15.09,4.31,25.86h-3.23s-4.31-9.7-4.31-19.4c0,0-7,6.81-12.54,6.81-2.15,0,0,10.23,10.23,22.72l-3.41,1.14s-22.72-19.31-16.91-31.74"/><path class="cls-81" d="M138,292.21l-6,1.27a.47.47,0,0,1-.55-.38l-.22-1a1.29,1.29,0,0,1,.94-1.55l.53-.11c1.52-.33,3.48-.5,4.55,0a2.28,2.28,0,0,1,1.07,1.09A.49.49,0,0,1,138,292.21Z"/><path class="cls-81" d="M127.38,305.13l-5.89-1.73a.47.47,0,0,1-.3-.6l.29-1a1.3,1.3,0,0,1,1.57-.92l.51.15c1.5.44,3.3,1.22,4,2.17a2.17,2.17,0,0,1,.42,1.47A.48.48,0,0,1,127.38,305.13Z"/><path class="cls-82" d="M103.22,270.86c.63,3.17,16.17,1.33,16.17-1.08,0-3.23-1.84-5.71-2.16-7.55-.78-4.53,0-6.46,0-6.46l4.31,1.08a6.1,6.1,0,0,1,0-3.24c.53-1.33,1.08-1.07,1.08-1.07s-11-6.17-16.37-4.32C100,250.38,102.14,265.47,103.22,270.86Z"/><path class="cls-82" d="M108.71,248.08c-2.28-1.06-11.5,3.8-11.5,3.8l1.64,4.39,4.39-1.65Z"/></g></g></g></svg>