<svg xmlns="http://www.w3.org/2000/svg" xmlns:xlink="http://www.w3.org/1999/xlink" viewBox="0 0 150.02 329.67"><defs><style>.cls-1,.cls-13{fill:none;}.cls-2{isolation:isolate;}.cls-3{clip-path:url(#clip-path);}.cls-4{fill:#8a8a8a;}.cls-5{fill:#8f8f8f;}.cls-6{fill:#949494;}.cls-7{fill:#8d8d8d;}.cls-8{clip-path:url(#clip-path-2);}.cls-9{fill:#858585;}.cls-10{clip-path:url(#clip-path-3);}.cls-11{fill:#f8f8f8;}.cls-12{fill:#9f9f9f;}.cls-13{stroke:#ed1846;stroke-linecap:round;stroke-miterlimit:10;stroke-width:2px;}.cls-14{clip-path:url(#clip-path-4);}.cls-15{fill:#958224;}.cls-16{fill:#969696;}.cls-17{clip-path:url(#clip-path-5);}.cls-18{clip-path:url(#clip-path-6);}.cls-19{clip-path:url(#clip-path-7);}.cls-20{fill:#847220;}.cls-21{clip-path:url(#clip-path-8);}.cls-22{fill:#8e7b22;}.cls-23{clip-path:url(#clip-path-9);}.cls-24{fill:#897721;}.cls-25{clip-path:url(#clip-path-10);}.cls-26{clip-path:url(#clip-path-11);}.cls-27{clip-path:url(#clip-path-12);}.cls-28{clip-path:url(#clip-path-13);}.cls-29{clip-path:url(#clip-path-14);}.cls-30{clip-path:url(#clip-path-15);}.cls-31{clip-path:url(#clip-path-16);}.cls-32{clip-path:url(#clip-path-17);}.cls-33{fill:#a0a0a0;}.cls-34{clip-path:url(#clip-path-18);}.cls-35{clip-path:url(#clip-path-19);}.cls-36{fill:#989898;}.cls-37{clip-path:url(#clip-path-20);}.cls-38{clip-path:url(#clip-path-21);}.cls-39{fill:#f9d93c;}.cls-40{clip-path:url(#clip-path-22);}.cls-41{clip-path:url(#clip-path-23);}.cls-42{clip-path:url(#clip-path-24);}.cls-43{clip-path:url(#clip-path-25);}.cls-44{fill:#9e8926;}.cls-45{clip-path:url(#clip-path-26);}.cls-46{clip-path:url(#clip-path-27);}.cls-47{fill:#978424;}.cls-48{clip-path:url(#clip-path-28);}.cls-49{clip-path:url(#clip-path-29);}.cls-50{clip-path:url(#clip-path-30);}.cls-51{clip-path:url(#clip-path-31);}.cls-52{clip-path:url(#clip-path-32);}.cls-53{clip-path:url(#clip-path-33);}.cls-54{clip-path:url(#clip-path-34);}.cls-55{clip-path:url(#clip-path-35);}.cls-56{clip-path:url(#clip-path-36);}.cls-57{clip-path:url(#clip-path-37);}.cls-58{clip-path:url(#clip-path-38);}.cls-59{clip-path:url(#clip-path-39);}.cls-60{clip-path:url(#clip-path-40);}.cls-61{clip-path:url(#clip-path-41);}.cls-62{clip-path:url(#clip-path-42);}.cls-63{clip-path:url(#clip-path-43);}.cls-64{clip-path:url(#clip-path-44);}.cls-65{clip-path:url(#clip-path-45);}.cls-66{clip-path:url(#clip-path-46);}.cls-67{clip-path:url(#clip-path-47);}.cls-68{clip-path:url(#clip-path-48);}.cls-69{clip-path:url(#clip-path-49);}.cls-70{clip-path:url(#clip-path-50);}.cls-71{clip-path:url(#clip-path-51);}.cls-72{clip-path:url(#clip-path-52);}.cls-73{clip-path:url(#clip-path-53);}.cls-74{clip-path:url(#clip-path-54);}.cls-75{clip-path:url(#clip-path-55);}.cls-76{clip-path:url(#clip-path-56);}.cls-77{fill:#fbfbfb;}.cls-78{fill:#fff;}.cls-79{fill:#12753d;}.cls-80{fill:#f4c6b6;}</style><clipPath id="clip-path"><path class="cls-1" d="M73.38,292.53,44.13,281.2q10.93-1.72,15.62-5.33t7.46-11.14l29.26,11.32q-2.79,7.56-7.46,11.14T73.38,292.53Z"/></clipPath><clipPath id="clip-path-2"><path class="cls-1" d="M59.56,209.12l29.26,11.32a13.35,13.35,0,0,1,5.59,4q5.69,6.88,5.21,28.07-.37,16-3.15,23.55L67.21,264.73q2.79-7.55,3.15-23.55.48-21.18-5.2-28.07A13.39,13.39,0,0,0,59.56,209.12Z"/></clipPath><clipPath id="clip-path-3"><path class="cls-1" d="M80.08,178.08l29.25,11.32-.57-.21q-9.33-3.42-24.65-1L54.86,176.88q15.31-2.43,24.65,1Z"/></clipPath><clipPath id="clip-path-4"><path class="cls-1" d="M140.5,50.63l-2.4-1c-.12-2.31-.15-4.42-.16-6.84l2.4,1C140.35,46.21,140.38,48.31,140.5,50.63Z"/></clipPath><clipPath id="clip-path-5"><path class="cls-1" d="M140.32,32.39l-2.4-1c0-2.95,0-4.63.1-6.28l2.4,1C140.35,27.76,140.32,29.44,140.32,32.39Z"/></clipPath><clipPath id="clip-path-6"><path class="cls-1" d="M138.52,14.25l2.4,1c.15.07.09.32-.33.74l-2.4-1C138.61,14.57,138.67,14.32,138.52,14.25Z"/></clipPath><clipPath id="clip-path-7"><path class="cls-1" d="M138.52,14.25l2.4,1a.31.31,0,0,0-.14,0l-2.4-1A.31.31,0,0,1,138.52,14.25Z"/></clipPath><clipPath id="clip-path-8"><path class="cls-1" d="M137.08,24.61l-2.4-1c1.85-5.28,3.07-8.12,3.51-8.62l2.4,1C140.15,16.49,138.93,19.33,137.08,24.61Z"/></clipPath><clipPath id="clip-path-9"><path class="cls-1" d="M138.45,14.54l-2.4-1a8.18,8.18,0,0,0,2.33.7l2.4,1A8.18,8.18,0,0,1,138.45,14.54Z"/></clipPath><clipPath id="clip-path-10"><path class="cls-1" d="M132.27,28.52l-2.4-1A56.89,56.89,0,0,0,138,25.11l2.4,1A56.89,56.89,0,0,1,132.27,28.52Z"/></clipPath><clipPath id="clip-path-11"><path class="cls-1" d="M134.45,24.31l-2.4-1a52.35,52.35,0,0,0,3.14-10.16l2.4,1A52.44,52.44,0,0,1,134.45,24.31Z"/></clipPath><clipPath id="clip-path-12"><path class="cls-1" d="M121.32,52.56l-2.4-1a41.82,41.82,0,0,1,5.49-1.6l2.4,1A41.82,41.82,0,0,0,121.32,52.56Z"/></clipPath><clipPath id="clip-path-13"><path class="cls-1" d="M121.31,48.91l-2.4-1a27,27,0,0,0,2.76-.4q1.23-.24,2.73-.6l2.4,1q-1.5.36-2.73.6A27,27,0,0,1,121.31,48.91Z"/></clipPath><clipPath id="clip-path-14"><path class="cls-1" d="M122.83,42.69l-2.4-1c1.45-.47,3.34-1,5.48-1.51l2.4,1C126.17,41.68,124.27,42.22,122.83,42.69Z"/></clipPath><clipPath id="clip-path-15"><path class="cls-1" d="M122.82,39.26l-2.4-1c.64-.1,1.37-.22,2.17-.37,1-.19,2.12-.43,3.32-.71l2.4,1c-1.2.28-2.31.52-3.32.71C124.19,39,123.46,39.16,122.82,39.26Z"/></clipPath><clipPath id="clip-path-16"><path class="cls-1" d="M130.81,12.09l2.4,1c.15.06.1.29-.19.64l-2.4-1C130.91,12.38,131,12.15,130.81,12.09Z"/></clipPath><clipPath id="clip-path-17"><path class="cls-1" d="M132.24,17.17l-2.39-1a6.2,6.2,0,0,1,.77-3.44l2.4,1A6.27,6.27,0,0,0,132.24,17.17Z"/></clipPath><clipPath id="clip-path-18"><path class="cls-1" d="M117,56l-2.4-1c-.19-2.81-.27-5.88-.27-8.21l2.4,1C116.75,50.07,116.83,53.14,117,56Z"/></clipPath><clipPath id="clip-path-19"><path class="cls-1" d="M121.85,34.11l-2.4-1a24.77,24.77,0,0,1,4-1.26l2.39,1A24.63,24.63,0,0,0,121.85,34.11Z"/></clipPath><clipPath id="clip-path-20"><path class="cls-1" d="M130.81,12.09l2.4,1a.44.44,0,0,0-.26,0l-.19.05c-.23.07-.67.17-1.18.27a16.71,16.71,0,0,1-2.42.31l-2.4-1a17,17,0,0,0,2.43-.31c.5-.1.94-.2,1.17-.27l.19-.05A.44.44,0,0,1,130.81,12.09Z"/></clipPath><clipPath id="clip-path-21"><path class="cls-1" d="M129.39,21,127,20c0-2.6-.12-5.92-.24-7.26l2.4,1C129.28,15.05,129.39,18.37,129.39,21Z"/></clipPath><clipPath id="clip-path-22"><path class="cls-1" d="M121.84,30.63l-2.4-1c.82-.09,1.82-.25,3.17-.51,1.18-.22,2.61-.52,4.4-.92l2.4,1c-1.79.4-3.22.7-4.4.92C123.66,30.38,122.66,30.54,121.84,30.63Z"/></clipPath><clipPath id="clip-path-23"><path class="cls-1" d="M113.46,56.79l-2.4-1c.22-2.91.33-6,.32-8.35l2.4,1C113.79,50.77,113.68,53.88,113.46,56.79Z"/></clipPath><clipPath id="clip-path-24"><path class="cls-1" d="M122.33,37l-2.4-1c-.85-1.34-2.12-3.11-3.23-4.52l2.4,1C120.21,33.84,121.48,35.61,122.33,37Z"/></clipPath><clipPath id="clip-path-25"><path class="cls-1" d="M127.4,25.85l-2.4-1c-.74-1.9-1.9-5.5-2.42-7.58l2.4,1C125.5,20.35,126.66,24,127.4,25.85Z"/></clipPath><clipPath id="clip-path-26"><path class="cls-1" d="M120.11,39.68l-2.4-1a27.42,27.42,0,0,0-3-5l2.4,1A27.82,27.82,0,0,1,120.11,39.68Z"/></clipPath><clipPath id="clip-path-27"><path class="cls-1" d="M124.4,27.61l-2.4-1A38,38,0,0,0,119.72,19l2.4,1A38.79,38.79,0,0,1,124.4,27.61Z"/></clipPath><clipPath id="clip-path-28"><path class="cls-1" d="M110,46.44l-2.4-1a54.42,54.42,0,0,0,3.81-10.24l2.4,1A54.42,54.42,0,0,1,110,46.44Z"/></clipPath><clipPath id="clip-path-29"><path class="cls-1" d="M116.72,28.72l-2.4-1,.87-.17a23.54,23.54,0,0,1,2.73-.37l2.4,1a23.54,23.54,0,0,0-2.73.37Z"/></clipPath><clipPath id="clip-path-30"><path class="cls-1" d="M116.71,25.82l-2.4-1a28.4,28.4,0,0,0,3.6-1.21l2.4,1A28.4,28.4,0,0,1,116.71,25.82Z"/></clipPath><clipPath id="clip-path-31"><path class="cls-1" d="M110,46.44l-2.4-1a7.76,7.76,0,0,0-1.9-3.21l2.4,1A7.7,7.7,0,0,1,110,46.44Z"/></clipPath><clipPath id="clip-path-32"><path class="cls-1" d="M108.06,43.23l-2.4-1c2-2.8,3.85-6.72,5.65-13.84l2.4,1C111.91,36.51,110,40.43,108.06,43.23Z"/></clipPath><clipPath id="clip-path-33"><path class="cls-1" d="M116.71,21.72l-2.4-1a11.89,11.89,0,0,1,.4-4.1l2.4,1A11.89,11.89,0,0,0,116.71,21.72Z"/></clipPath><clipPath id="clip-path-34"><path class="cls-1" d="M115,15.43l2.4,1c.23.09.15.48-.3,1.19l-2.4-1C115.16,15.91,115.24,15.52,115,15.43Z"/></clipPath><clipPath id="clip-path-35"><path class="cls-1" d="M102.92,58.28l-2.4-1c-.19-2.12-.34-5.39-.35-8l2.4,1C102.58,52.89,102.73,56.16,102.92,58.28Z"/></clipPath><clipPath id="clip-path-36"><path class="cls-1" d="M109.15,30.81l-2.4-1a40.53,40.53,0,0,1,4.56-1.43l2.4,1A43.05,43.05,0,0,0,109.15,30.81Z"/></clipPath><clipPath id="clip-path-37"><path class="cls-1" d="M115,15.43l2.4,1a.45.45,0,0,0-.29,0l-.23.06a15.53,15.53,0,0,1-2,.55,12.7,12.7,0,0,1-1.43.18l-2.4-1a12.7,12.7,0,0,0,1.43-.18,15.53,15.53,0,0,0,2-.55,1.05,1.05,0,0,1,.24-.06A.51.51,0,0,1,115,15.43Z"/></clipPath><clipPath id="clip-path-38"><path class="cls-1" d="M113.75,26.52l-2.4-1a85.17,85.17,0,0,0-.31-9.31l2.4,1A85.17,85.17,0,0,1,113.75,26.52Z"/></clipPath><clipPath id="clip-path-39"><path class="cls-1" d="M109.15,27.25l-2.4-1a25.19,25.19,0,0,0,3-.4l1.6-.33,2.4,1c-.61.13-1.14.24-1.6.32A23.68,23.68,0,0,1,109.15,27.25Z"/></clipPath><clipPath id="clip-path-40"><path class="cls-1" d="M102.54,30.58l-2.4-1a63.34,63.34,0,0,1,.29-7l2.4,1A63.34,63.34,0,0,0,102.54,30.58Z"/></clipPath><clipPath id="clip-path-41"><path class="cls-1" d="M84.93,59.05l-2.4-1c2.67-1,5.45-1.69,14.43-3.81l2.4,1C90.38,57.36,87.6,58.06,84.93,59.05Z"/></clipPath><clipPath id="clip-path-42"><path class="cls-1" d="M84.92,54.91l-2.4-1c1-.1,2-.25,3.23-.5,2.34-.44,5.62-1.2,11.2-2.51l2.4,1c-5.58,1.31-8.86,2.07-11.2,2.51C86.87,54.66,85.87,54.81,84.92,54.91Z"/></clipPath><clipPath id="clip-path-43"><path class="cls-1" d="M86.76,44.79l-2.4-1a110.12,110.12,0,0,1,12.58-3.41l2.39,1A110.36,110.36,0,0,0,86.76,44.79Z"/></clipPath><clipPath id="clip-path-44"><path class="cls-1" d="M86.75,40.69l-2.4-1c1.28-.15,2.38-.3,3.85-.58,1.9-.36,4.42-.93,8.73-2l2.4,1c-4.31,1-6.83,1.59-8.73,2C89.13,40.39,88,40.54,86.75,40.69Z"/></clipPath><clipPath id="clip-path-45"><path class="cls-1" d="M70.69,63.34l2.4,1a4.88,4.88,0,0,1,2.12,2l-2.4-1A4.88,4.88,0,0,0,70.69,63.34Z"/></clipPath><clipPath id="clip-path-46"><path class="cls-1" d="M85.92,31.81l-2.4-1c2.08-.75,3.82-1.24,13.39-3.51l2.4,1C89.74,30.56,88,31.06,85.92,31.81Z"/></clipPath><clipPath id="clip-path-47"><path class="cls-1" d="M85.92,27.63l-2.4-1a36.74,36.74,0,0,0,4.12-.56c1.15-.22,2.52-.52,4.34-.95a51.76,51.76,0,0,0,8.45-2.53l2.4,1a51.76,51.76,0,0,1-8.45,2.53c-1.82.43-3.19.73-4.34.95A36.74,36.74,0,0,1,85.92,27.63Z"/></clipPath><clipPath id="clip-path-48"><path class="cls-1" d="M72.29,64.1l-2.4-1c5-5,7.29-7.85,8-12.94a101.43,101.43,0,0,0,.61-14.23c0-8.41-.13-11.25-.35-12.43l2.4,1c.22,1.18.33,4,.35,12.43a101.43,101.43,0,0,1-.61,14.23C79.58,56.26,77.32,59.13,72.29,64.1Z"/></clipPath><clipPath id="clip-path-49"><path class="cls-1" d="M82.36,24.17c.46-.48.52-.86.26-1l2.4,1c.26.11.2.49-.26,1Z"/></clipPath><clipPath id="clip-path-50"><path class="cls-1" d="M75.21,66.36l-2.4-1c5.75-6.42,7.78-11.7,8.29-17.68.36-4.14.4-7.31.53-18.44.07-2.71.29-4.61.73-5.07l2.4,1c-.44.46-.66,2.36-.73,5.07-.13,11.13-.17,14.3-.53,18.44C83,54.66,81,59.94,75.21,66.36Z"/></clipPath><clipPath id="clip-path-51"><path class="cls-1" d="M82.61,23.22l2.4,1a.75.75,0,0,0-.43,0l-2.4-1A.75.75,0,0,1,82.61,23.22Z"/></clipPath><clipPath id="clip-path-52"><path class="cls-1" d="M80.5,24.51l-2.4-1a9.52,9.52,0,0,0,3.31-.14l.77-.16,2.4,1-.77.16A9.52,9.52,0,0,1,80.5,24.51Z"/></clipPath><clipPath id="clip-path-53"><path class="cls-1" d="M74.84,31.2c.36-.33.46-.6.26-.68l2.4,1c.2.08.1.35-.26.68Z"/></clipPath><clipPath id="clip-path-54"><path class="cls-1" d="M76.76,35l-2.4-1c0-1.5.15-2.41.48-2.75l2.4,1C76.91,32.54,76.76,33.45,76.76,35Z"/></clipPath><clipPath id="clip-path-55"><path class="cls-1" d="M75.1,30.52l2.4,1a.64.64,0,0,0-.35,0l-.06,0c-.45.1-.9.2-1.35.28a19.88,19.88,0,0,1-2.43.34l-2.4-1a20.3,20.3,0,0,0,2.44-.34c.44-.08.89-.18,1.34-.28l.07,0A.61.61,0,0,1,75.1,30.52Z"/></clipPath><clipPath id="clip-path-56"><path class="cls-1" d="M73.65,39.16l-2.4-1a44.39,44.39,0,0,0-.34-7l2.4,1A44.39,44.39,0,0,1,73.65,39.16Z"/></clipPath></defs><title>资源 7</title><g id="图层_2" data-name="图层 2"><g id="D"><g class="cls-2"><g class="cls-2"><g class="cls-3"><g class="cls-2"><path class="cls-4" d="M73.38,292.53,44.13,281.2a50.69,50.69,0,0,0,11.07-2.83l29.26,11.32a51.33,51.33,0,0,1-11.08,2.84"/><path class="cls-5" d="M84.46,289.69,55.2,278.37a19.32,19.32,0,0,0,4.55-2.5l0,0L89,287.16l0,0a19.53,19.53,0,0,1-4.55,2.5"/><path class="cls-6" d="M89,287.16,59.79,275.84q4.65-3.58,7.42-11.11l29.26,11.32Q93.7,283.58,89,287.16"/></g></g></g><polygon class="cls-7" points="64.83 293.88 35.58 282.56 44.13 281.2 73.38 292.53 64.83 293.88"/><g class="cls-2"><g class="cls-8"><g class="cls-2"><path class="cls-6" d="M96.47,276.05,67.21,264.73a49.7,49.7,0,0,0,2.4-11.45L98.87,264.6a50.78,50.78,0,0,1-2.4,11.45"/><path class="cls-5" d="M98.87,264.6,69.61,253.28q.6-5.28.75-12.1a99.52,99.52,0,0,0-.57-14.45L99,238.05a100.82,100.82,0,0,1,.58,14.45q-.16,6.83-.75,12.1"/><path class="cls-4" d="M99,238.05,69.79,226.73a38.36,38.36,0,0,0-2.21-9.37l29.25,11.32A38,38,0,0,1,99,238.05"/><path class="cls-9" d="M96.83,228.68,67.58,217.36a15.85,15.85,0,0,0-2.42-4.25,13.39,13.39,0,0,0-5.6-4l29.26,11.32a13.35,13.35,0,0,1,5.59,4,16,16,0,0,1,2.42,4.25"/></g></g></g><g class="cls-2"><g class="cls-10"><g class="cls-2"><path class="cls-4" d="M84.11,188.2,54.86,176.88q3.2-.51,6.14-.76l29.25,11.32q-2.94.26-6.14.76"/><path class="cls-9" d="M90.25,187.44,61,176.12q11.13-1,18.51,1.74l.57.22,29.25,11.32-.57-.21q-7.38-2.7-18.51-1.75"/></g></g></g><path class="cls-11" d="M132.49,220.76a109.89,109.89,0,0,1,2.19,25.37q-.5,21.36-4.87,33.79a70.49,70.49,0,0,1-11.89,21.53q-7.5,9.12-16,13.08a78.43,78.43,0,0,1-20.88,6.93l-51.84,8.21,3-133.26,51.84-8.21q15.31-2.43,24.65,1A32.26,32.26,0,0,1,124,200.8,52.08,52.08,0,0,1,132.49,220.76Zm-36,55.29q2.77-7.55,3.15-23.55.48-21.18-5.21-28.07t-19.22-4.74l-8.71,1.38-1.65,72.81,8.55-1.35q10.94-1.74,15.63-5.34t7.46-11.14"/><polygon class="cls-12" points="29.25 329.68 0 318.35 3.02 185.09 32.27 196.41 29.25 329.68"/><polygon class="cls-7" points="32.27 196.41 3.02 185.09 54.86 176.88 84.11 188.2 32.27 196.41"/></g><g id="归档"><line id="Pole" class="cls-13" x1="59.45" y1="22.18" x2="59.45" y2="114.56"/><g id="归档-2" data-name="归档"><g class="cls-2"><polygon class="cls-5" points="137.31 51.38 134.91 50.38 138.1 49.63 140.5 50.63 137.31 51.38"/><g class="cls-2"><g class="cls-14"><g class="cls-2"><path class="cls-4" d="M140.5,50.63l-2.4-1c-.12-2.31-.15-4.42-.16-6.84l2.4,1c0,2.42,0,4.52.16,6.84"/></g></g></g><polygon class="cls-15" points="137.31 51.38 134.91 50.38 134.91 47.47 137.31 48.47 137.31 51.38"/><polygon class="cls-16" points="140.34 43.79 137.94 42.79 137.92 31.39 140.32 32.39 140.34 43.79"/><polygon class="cls-15" points="137.3 45.44 134.9 44.44 134.89 38.06 137.29 39.05 137.3 45.44"/><g class="cls-2"><g class="cls-17"><g class="cls-2"><path class="cls-4" d="M140.32,32.39l-2.4-1c0-2.95,0-4.63.1-6.28l2.4,1c-.07,1.65-.1,3.33-.1,6.28"/></g></g></g><polygon class="cls-15" points="137.28 36.06 134.88 35.06 134.88 29.16 137.28 30.16 137.28 36.06"/><polygon class="cls-5" points="126.81 50.96 124.41 49.96 134.91 47.47 137.31 48.47 126.81 50.96"/><g class="cls-2"><g class="cls-18"><g class="cls-2"><path class="cls-5" d="M140.59,16l-2.4-1a1.33,1.33,0,0,0,.4-.58l2.4,1a1.34,1.34,0,0,1-.4.59"/><path class="cls-4" d="M141,15.4l-2.4-1s0-.05,0-.06l2.4,1a.06.06,0,0,1,0,.06"/><path class="cls-9" d="M141,15.34l-2.4-1a.11.11,0,0,0-.07-.1l2.4,1a.13.13,0,0,1,.07.09"/></g></g></g><g class="cls-2"><g class="cls-19"><g class="cls-2"><path class="cls-20" d="M140.78,15.24l-2.4-1a.31.31,0,0,1,.14,0l2.4,1a.31.31,0,0,0-.14,0"/></g></g></g><g class="cls-2"><g class="cls-21"><g class="cls-2"><path class="cls-5" d="M137.08,24.61l-2.4-1c1.85-5.28,3.07-8.12,3.51-8.62l2.4,1c-.44.5-1.66,3.34-3.51,8.62"/></g></g></g><polygon class="cls-22" points="126.8 47.91 124.4 46.91 134.9 44.44 137.3 45.44 126.8 47.91"/><polygon class="cls-5" points="128.31 41.17 125.91 40.17 134.89 38.06 137.29 39.05 128.31 41.17"/><polygon class="cls-9" points="134.45 24.31 132.05 23.31 134.68 23.61 137.08 24.61 134.45 24.31"/><g class="cls-2"><g class="cls-23"><g class="cls-2"><path class="cls-20" d="M138.45,14.54l-2.4-1a8.34,8.34,0,0,0,2.33.7l2.39,1a8.39,8.39,0,0,1-2.32-.7"/><polyline class="cls-24" points="140.78 15.24 138.38 14.24 138.38 14.24 140.78 15.24 140.78 15.24"/></g></g></g><polygon class="cls-22" points="128.31 38.18 125.91 37.18 134.88 35.06 137.28 36.06 128.31 38.18"/><g class="cls-2"><g class="cls-25"><g class="cls-2"><path class="cls-24" d="M132.27,28.52l-2.4-1A56.89,56.89,0,0,0,138,25.11l2.4,1a56.89,56.89,0,0,1-8.15,2.41"/></g></g></g><g class="cls-2"><g class="cls-26"><g class="cls-2"><path class="cls-22" d="M134.45,24.31l-2.4-1a52.35,52.35,0,0,0,3.14-10.16l2.4,1a52.44,52.44,0,0,1-3.14,10.17"/></g></g></g><g class="cls-2"><g class="cls-27"><g class="cls-2"><path class="cls-4" d="M121.32,52.56l-2.4-1a41.82,41.82,0,0,1,5.49-1.6l2.4,1a41.82,41.82,0,0,0-5.49,1.6"/></g></g></g><polygon class="cls-15" points="121.32 52.56 118.92 51.56 118.91 47.91 121.31 48.91 121.32 52.56"/><g class="cls-2"><g class="cls-28"><g class="cls-2"><path class="cls-20" d="M121.31,48.91l-2.4-1,.54-.06,2.4,1-.54.06"/><path class="cls-24" d="M121.85,48.85l-2.4-1c.67-.07,1.4-.19,2.22-.34s1.73-.36,2.73-.6l2.4,1q-1.5.36-2.73.6c-.82.15-1.55.27-2.22.34"/></g></g></g><g class="cls-2"><g class="cls-29"><g class="cls-2"><path class="cls-4" d="M122.83,42.69l-2.4-1c1.45-.47,3.34-1,5.48-1.51l2.4,1c-2.14.51-4,1-5.48,1.52"/></g></g></g><polygon class="cls-5" points="125.89 32.85 123.5 31.85 134.88 29.16 137.28 30.16 125.89 32.85"/><polygon class="cls-16" points="132.27 28.52 129.87 27.52 129.84 16.17 132.25 17.17 132.27 28.52"/><g class="cls-2"><g class="cls-30"><g class="cls-2"><path class="cls-24" d="M122.82,39.26l-2.4-1c.64-.1,1.37-.22,2.17-.37,1-.19,2.12-.43,3.32-.71l2.4,1c-1.2.28-2.31.52-3.32.71-.8.15-1.53.27-2.17.37"/></g></g></g><polygon class="cls-15" points="122.83 42.69 120.43 41.69 120.42 38.26 122.82 39.26 122.83 42.69"/><g class="cls-2"><g class="cls-31"><g class="cls-2"><path class="cls-5" d="M133,13.73l-2.4-1a1.12,1.12,0,0,0,.27-.47l2.4,1a1.12,1.12,0,0,1-.27.47"/><path class="cls-4" d="M133.29,13.26l-2.4-1v-.07l2.4,1v.07"/><path class="cls-9" d="M133.29,13.19l-2.4-1a.14.14,0,0,0-.08-.1l2.4,1a.12.12,0,0,1,.08.1"/></g></g></g><g class="cls-2"><g class="cls-32"><g class="cls-2"><path class="cls-4" d="M132.24,17.17l-2.39-1a9.94,9.94,0,0,1,.09-1.39l2.4,1a11.63,11.63,0,0,0-.1,1.39"/><path class="cls-5" d="M132.34,15.78l-2.4-1a4.5,4.5,0,0,1,.68-2l2.4,1a4.5,4.5,0,0,0-.68,2"/></g></g></g><polygon class="cls-15" points="129.41 29.2 127.01 28.2 127 19.97 129.4 20.97 129.41 29.2"/><polygon class="cls-5" points="113.46 56.79 111.06 55.79 114.62 54.95 117.02 55.95 113.46 56.79"/><polygon class="cls-33" points="120.11 39.68 117.71 38.68 119.94 35.95 122.33 36.95 120.11 39.68"/><g class="cls-2"><g class="cls-34"><g class="cls-2"><path class="cls-4" d="M117,56l-2.4-1c-.19-2.81-.27-5.88-.27-8.21l2.4,1c0,2.33.08,5.4.27,8.21"/></g></g></g><g class="cls-2"><g class="cls-35"><g class="cls-2"><path class="cls-4" d="M121.85,34.11l-2.4-1a24.77,24.77,0,0,1,4-1.26l2.39,1a24.63,24.63,0,0,0-4,1.26"/></g></g></g><polygon class="cls-36" points="124.4 27.61 122 26.61 125 24.85 127.4 25.85 124.4 27.61"/><g class="cls-2"><g class="cls-37"><g class="cls-2"><path class="cls-20" d="M129.16,13.71l-2.4-1a5.5,5.5,0,0,0,.76-.06l2.4,1a5.5,5.5,0,0,1-.76.06"/><path class="cls-24" d="M129.92,13.65l-2.4-1c.54-.06,1.14-.15,1.67-.25s.94-.2,1.17-.27l.19-.05h.07l2.4,1H133l-.19.05c-.23.07-.67.17-1.18.27s-1.13.19-1.66.25"/><path class="cls-20" d="M133,13.07l-2.4-1a.37.37,0,0,1,.19,0l2.4,1a.37.37,0,0,0-.19,0"/></g></g></g><g class="cls-2"><g class="cls-38"><g class="cls-2"><path class="cls-24" d="M129.39,21,127,20c0-2.6-.12-5.92-.24-7.26l2.4,1c.12,1.34.23,4.66.23,7.26"/></g></g></g><path class="cls-39" d="M140.34,43.79c0,2.42,0,4.52.16,6.84l-3.19.75V48.47L126.81,51a41.82,41.82,0,0,0-5.49,1.6V48.91a27,27,0,0,0,2.76-.4q1.23-.24,2.73-.6l10.5-2.47V39.06l-9,2.11c-2.14.51-4,1-5.48,1.52V39.26c.64-.1,1.37-.22,2.17-.37,1-.19,2.12-.43,3.32-.71l9-2.12v-5.9l-11.39,2.69a24.63,24.63,0,0,0-4,1.26V30.63c.82-.09,1.82-.25,3.17-.51,1.18-.22,2.61-.52,4.4-.92l0-8.23c0-2.6-.11-5.92-.23-7.26a16.71,16.71,0,0,0,2.42-.31c.51-.1.95-.2,1.18-.27l.19-.05c.42-.08.46.17.07.65a6.27,6.27,0,0,0-.78,3.44l0,11.35a56.89,56.89,0,0,0,8.15-2.41c-.07,1.65-.1,3.33-.1,6.28Z"/><polygon class="cls-15" points="121.85 34.11 119.45 33.12 119.44 29.63 121.84 30.63 121.85 34.11"/><g class="cls-2"><g class="cls-40"><g class="cls-2"><path class="cls-24" d="M121.84,30.63l-2.4-1c.82-.09,1.82-.25,3.17-.51,1.18-.22,2.61-.52,4.4-.92l2.4,1c-1.79.4-3.22.7-4.4.92-1.35.26-2.35.42-3.17.51"/></g></g></g><g class="cls-2"><g class="cls-41"><g class="cls-2"><path class="cls-24" d="M113.46,56.79l-2.4-1c.22-2.91.33-6,.32-8.35l2.4,1c0,2.33-.1,5.44-.32,8.35"/></g></g></g><g class="cls-2"><g class="cls-42"><g class="cls-2"><path class="cls-9" d="M122.33,37l-2.4-1c-.85-1.34-2.12-3.11-3.23-4.52l2.4,1c1.11,1.41,2.38,3.18,3.23,4.52"/></g></g></g><g class="cls-2"><g class="cls-43"><g class="cls-2"><path class="cls-9" d="M127.4,25.85l-2.4-1c-.74-1.9-1.9-5.5-2.42-7.58l2.4,1c.52,2.08,1.68,5.68,2.42,7.58"/></g></g></g><polygon class="cls-44" points="117.1 34.63 114.7 33.63 116.7 31.43 119.1 32.43 117.1 34.63"/><g class="cls-2"><g class="cls-45"><g class="cls-2"><path class="cls-20" d="M120.11,39.68l-2.4-1a27.42,27.42,0,0,0-3-5l2.4,1a27.82,27.82,0,0,1,3,5.06"/></g></g></g><polygon class="cls-16" points="120.32 28.18 117.92 27.18 117.91 23.61 120.31 24.61 120.32 28.18"/><path class="cls-39" d="M127.4,25.85l-3,1.76a38.79,38.79,0,0,0-2.28-7.6L125,18.27C125.5,20.35,126.66,24,127.4,25.85Z"/><g class="cls-2"><g class="cls-46"><g class="cls-2"><path class="cls-20" d="M124.4,27.61l-2.4-1A38,38,0,0,0,119.72,19l2.4,1a38.79,38.79,0,0,1,2.28,7.6"/></g></g></g><polygon class="cls-47" points="122.12 20 119.72 19.01 122.58 17.27 124.98 18.27 122.12 20"/><polygon class="cls-15" points="113.78 48.44 111.38 47.44 111.37 35.2 113.77 36.2 113.78 48.44"/><g class="cls-2"><g class="cls-48"><g class="cls-2"><path class="cls-5" d="M110,46.44l-2.4-1a54.42,54.42,0,0,0,3.81-10.24l2.4,1A54.42,54.42,0,0,1,110,46.44"/></g></g></g><g class="cls-2"><g class="cls-49"><g class="cls-2"><path class="cls-4" d="M116.72,28.72l-2.4-1,.87-.17c.72-.14,1.32-.23,1.9-.29l2.4,1c-.59.06-1.18.15-1.9.29l-.87.17"/><path class="cls-9" d="M119.49,28.26l-2.4-1,.83-.08,2.4,1-.83.08"/></g></g></g><polygon class="cls-16" points="116.75 47.74 114.35 46.74 114.32 27.73 116.72 28.72 116.75 47.74"/><g class="cls-2"><g class="cls-50"><g class="cls-2"><path class="cls-24" d="M116.71,25.82l-2.4-1a28.4,28.4,0,0,0,3.6-1.21l2.4,1a28.4,28.4,0,0,1-3.6,1.21"/></g></g></g><g class="cls-2"><g class="cls-51"><g class="cls-2"><path class="cls-20" d="M110,46.44l-2.4-1a7.76,7.76,0,0,0-1.9-3.21l2.4,1a7.7,7.7,0,0,1,1.9,3.21"/></g></g></g><g class="cls-2"><g class="cls-52"><g class="cls-2"><path class="cls-22" d="M108.06,43.23l-2.4-1c2-2.8,3.85-6.72,5.65-13.84l2.4,1c-1.8,7.12-3.69,11-5.65,13.84"/></g></g></g><polygon class="cls-16" points="116.71 25.82 114.31 24.82 114.31 20.72 116.71 21.72 116.71 25.82"/><g class="cls-2"><g class="cls-53"><g class="cls-2"><path class="cls-4" d="M116.71,21.72l-2.4-1a24.25,24.25,0,0,1,.16-3.16l2.4,1a24.25,24.25,0,0,0-.16,3.16"/><path class="cls-5" d="M116.87,18.56l-2.4-1a2.94,2.94,0,0,1,.24-.94l2.4,1a2.94,2.94,0,0,0-.24.94"/></g></g></g><g class="cls-2"><g class="cls-54"><g class="cls-2"><path class="cls-5" d="M117.11,17.62l-2.4-1a2.56,2.56,0,0,0,.42-.9l2.4,1a2.77,2.77,0,0,1-.42.9"/><path class="cls-4" d="M117.53,16.72l-2.4-1a.33.33,0,0,0,0-.14l2.4,1a.33.33,0,0,1,0,.14"/><path class="cls-9" d="M117.53,16.58l-2.4-1a.17.17,0,0,0-.12-.15l2.4,1a.17.17,0,0,1,.12.15"/></g></g></g><polygon class="cls-5" points="99.36 59.12 96.96 58.12 100.52 57.28 102.92 58.28 99.36 59.12"/><g class="cls-2"><g class="cls-55"><g class="cls-2"><path class="cls-4" d="M102.92,58.28l-2.4-1c-.19-2.12-.34-5.39-.35-8l2.4,1c0,2.64.16,5.91.35,8"/></g></g></g><polygon class="cls-15" points="99.36 59.12 96.96 58.12 96.96 54.24 99.36 55.24 99.36 59.12"/><g class="cls-2"><g class="cls-56"><g class="cls-2"><path class="cls-4" d="M109.15,30.81l-2.4-1a40.53,40.53,0,0,1,4.56-1.43l2.4,1a43.05,43.05,0,0,0-4.56,1.42"/></g></g></g><g class="cls-2"><g class="cls-57"><g class="cls-2"><path class="cls-20" d="M113.44,17.21l-2.4-1,.54-.05,2.4,1-.54.05"/><path class="cls-24" d="M114,17.16l-2.4-1c.29,0,.58-.08.89-.13a15.53,15.53,0,0,0,2-.55,1.05,1.05,0,0,1,.24-.06h.07l2.4,1h-.08l-.23.06a15.53,15.53,0,0,1-2,.55c-.31,0-.6.1-.89.13"/><path class="cls-20" d="M117.2,16.41l-2.4-1a.35.35,0,0,1,.21,0l2.4,1a.35.35,0,0,0-.21,0"/></g></g></g><g class="cls-2"><g class="cls-58"><g class="cls-2"><path class="cls-24" d="M113.75,26.52l-2.4-1a85.17,85.17,0,0,0-.31-9.31l2.4,1a85.17,85.17,0,0,1,.31,9.31"/></g></g></g><g class="cls-2"><g class="cls-59"><g class="cls-2"><path class="cls-20" d="M109.15,27.25l-2.4-1,1-.09,2.4,1-1,.09"/><path class="cls-24" d="M110.14,27.16l-2.4-1c.61-.07,1.23-.17,2-.31l1.6-.33,2.4,1c-.61.13-1.14.24-1.6.32-.78.15-1.4.25-2,.32"/></g></g></g><polygon class="cls-15" points="109.15 30.82 106.75 29.82 106.75 26.25 109.15 27.25 109.15 30.82"/><path class="cls-39" d="M116.72,28.72l0,19c0,2.33.08,5.4.27,8.21l-3.56.84c.22-2.91.33-6,.32-8.35V36.2A54.42,54.42,0,0,1,110,46.44a7.7,7.7,0,0,0-1.9-3.21c2-2.8,3.85-6.72,5.65-13.84a43.05,43.05,0,0,0-4.56,1.42V27.25a23.68,23.68,0,0,0,3-.41c.46-.08,1-.19,1.6-.32a85.17,85.17,0,0,0-.31-9.31,12.7,12.7,0,0,0,1.43-.18,15.53,15.53,0,0,0,2-.55l.23-.06c.53-.1.58.28,0,1.2a11.89,11.89,0,0,0-.4,4.1v4.1a28.4,28.4,0,0,0,3.6-1.21v3.57a23.54,23.54,0,0,0-2.73.37Z"/><polygon class="cls-15" points="99.35 51.9 96.95 50.9 96.94 40.38 99.33 41.38 99.35 51.9"/><polygon class="cls-16" points="102.57 50.25 100.17 49.25 100.14 29.58 102.54 30.57 102.57 50.25"/><g class="cls-2"><g class="cls-60"><g class="cls-2"><path class="cls-4" d="M102.54,30.58l-2.4-1a63.34,63.34,0,0,1,.29-7l2.4,1a63.34,63.34,0,0,0-.29,7"/></g></g></g><polygon class="cls-15" points="99.33 38.16 96.93 37.16 96.91 27.3 99.31 28.3 99.33 38.16"/><g class="cls-2"><g class="cls-61"><g class="cls-2"><path class="cls-4" d="M84.93,59.05l-2.4-1c2.67-1,5.45-1.69,14.43-3.81l2.4,1c-9,2.12-11.76,2.82-14.43,3.81"/></g></g></g><g class="cls-2"><g class="cls-62"><g class="cls-2"><path class="cls-20" d="M84.92,54.91l-2.4-1,.24,0,2.4,1-.24,0"/><path class="cls-24" d="M85.16,54.88l-2.4-1c.88-.1,1.82-.24,3-.47,2.34-.44,5.62-1.2,11.2-2.51l2.4,1c-5.58,1.31-8.86,2.07-11.2,2.51-1.17.23-2.11.37-3,.47"/></g></g></g><polygon class="cls-15" points="84.93 59.05 82.53 58.05 82.52 53.91 84.92 54.91 84.93 59.05"/><g class="cls-2"><g class="cls-63"><g class="cls-2"><path class="cls-4" d="M86.76,44.79l-2.4-1a110.12,110.12,0,0,1,12.58-3.41l2.39,1a110.36,110.36,0,0,0-12.57,3.41"/></g></g></g><polygon class="cls-15" points="86.76 44.79 84.36 43.79 84.35 39.69 86.75 40.69 86.76 44.79"/><g class="cls-2"><g class="cls-64"><g class="cls-2"><path class="cls-24" d="M86.75,40.69l-2.4-1c1.28-.15,2.38-.3,3.85-.58,1.9-.36,4.42-.93,8.73-2l2.4,1c-4.31,1-6.83,1.59-8.73,2-1.47.28-2.57.43-3.85.58"/></g></g></g><g class="cls-2"><g class="cls-65"><g class="cls-2"><path class="cls-20" d="M75.21,66.36l-2.4-1a4.88,4.88,0,0,0-2.12-2l2.4,1a4.88,4.88,0,0,1,2.12,2"/></g></g></g><g class="cls-2"><g class="cls-66"><g class="cls-2"><path class="cls-4" d="M85.92,31.81l-2.4-1c2.08-.75,3.82-1.24,13.39-3.51l2.4,1C89.74,30.56,88,31.06,85.92,31.81"/></g></g></g><g class="cls-2"><g class="cls-67"><g class="cls-2"><path class="cls-20" d="M85.92,27.63l-2.4-1c.43,0,.84-.07,1.26-.12l2.4,1c-.42,0-.83.09-1.26.12"/><path class="cls-24" d="M87.18,27.51l-2.4-1c.87-.1,1.76-.23,2.86-.44s2.52-.52,4.34-.95a51.76,51.76,0,0,0,8.45-2.53l2.4,1a51.76,51.76,0,0,1-8.45,2.53c-1.82.43-3.19.73-4.34.95s-2,.34-2.86.44"/></g></g></g><polygon class="cls-15" points="85.92 31.81 83.53 30.81 83.52 26.63 85.92 27.63 85.92 31.81"/><g class="cls-2"><g class="cls-68"><g class="cls-2"><path class="cls-22" d="M72.29,64.1l-2.4-1c5-4.92,7.24-7.78,7.92-12.75l2.4,1c-.69,5-2.95,7.83-7.92,12.74"/><path class="cls-24" d="M80.21,51.36l-2.4-1,0-.19a101.43,101.43,0,0,0,.61-14.23c0-8.2-.12-11.1-.33-12.34l2.39,1c.21,1.24.32,4.14.34,12.34a101.43,101.43,0,0,1-.61,14.23l0,.19"/><path class="cls-20" d="M80.51,24.6l-2.39-1a.29.29,0,0,1,0-.09l2.4,1s0,.06,0,.09"/></g></g></g><polygon class="cls-5" points="73.68 55.01 71.28 54.01 74.4 53.27 76.8 54.27 73.68 55.01"/><g class="cls-2"><g class="cls-69"><g class="cls-2"><path class="cls-5" d="M84.76,25.17l-2.4-1a1.4,1.4,0,0,0,.41-.67l2.4,1a1.4,1.4,0,0,1-.41.67"/><path class="cls-4" d="M85.17,24.5l-2.4-1a.24.24,0,0,0,0-.12l2.4,1a.24.24,0,0,1,0,.12"/><path class="cls-9" d="M85.17,24.38l-2.4-1a.23.23,0,0,0-.15-.18l2.4,1a.23.23,0,0,1,.15.18"/></g></g></g><g class="cls-2"><g class="cls-70"><g class="cls-2"><path class="cls-5" d="M75.21,66.36l-2.4-1c5.19-5.8,7.36-10.67,8.1-16l2.4,1c-.74,5.29-2.91,10.16-8.1,16"/><path class="cls-4" d="M83.31,50.4l-2.4-1c.08-.57.14-1.14.19-1.72.36-4.14.4-7.31.53-18.44a31.2,31.2,0,0,1,.23-3.41l2.4,1A31.2,31.2,0,0,0,84,30.24c-.13,11.13-.17,14.3-.53,18.44,0,.58-.11,1.15-.19,1.72"/><path class="cls-5" d="M84.26,26.83l-2.4-1a3.49,3.49,0,0,1,.5-1.66l2.4,1a3.49,3.49,0,0,0-.5,1.66"/></g></g></g><g class="cls-2"><g class="cls-71"><g class="cls-2"><path class="cls-24" d="M84.58,24.21l-2.4-1,.11,0,2.4,1-.11,0"/><path class="cls-20" d="M84.69,24.19l-2.4-1a.52.52,0,0,1,.32,0l2.4,1a.53.53,0,0,0-.32,0"/></g></g></g><polygon class="cls-16" points="76.8 54.27 74.4 53.27 74.36 33.95 76.76 34.95 76.8 54.27"/><g class="cls-2"><g class="cls-72"><g class="cls-2"><path class="cls-20" d="M80.5,24.51l-2.4-1a8.2,8.2,0,0,0,2.28,0l2.4,1a8.2,8.2,0,0,1-2.28,0"/><path class="cls-24" d="M82.78,24.53l-2.4-1c.33,0,.67-.09,1-.16l.77-.16,2.4,1-.77.16c-.36.07-.71.12-1,.16"/></g></g></g><g class="cls-2"><g class="cls-73"><g class="cls-2"><path class="cls-5" d="M77.24,32.2l-2.4-1a1.07,1.07,0,0,0,.36-.5l2.4,1a1.07,1.07,0,0,1-.36.5"/><path class="cls-4" d="M77.6,31.7l-2.4-1v-.07l2.4,1v.07"/><path class="cls-9" d="M77.6,31.63l-2.4-1a.14.14,0,0,0-.1-.11l2.4,1a.14.14,0,0,1,.1.11"/></g></g></g><g class="cls-2"><g class="cls-74"><g class="cls-2"><path class="cls-4" d="M76.76,35l-2.4-1a12.55,12.55,0,0,1,.09-1.65l2.4,1A12.55,12.55,0,0,0,76.76,35"/><path class="cls-5" d="M76.85,33.3l-2.4-1a2.11,2.11,0,0,1,.39-1.1l2.4,1a2.08,2.08,0,0,0-.39,1.1"/></g></g></g><polygon class="cls-15" points="73.68 55.01 71.28 54.01 71.25 38.16 73.65 39.16 73.68 55.01"/><g class="cls-2"><g class="cls-75"><g class="cls-2"><path class="cls-20" d="M73.31,32.15l-2.4-1,.62-.06,2.39,1-.61.06"/><path class="cls-24" d="M73.92,32.09l-2.39-1c.57-.06,1.18-.16,1.82-.28.44-.08.89-.18,1.34-.28l.07,0h.09l2.4,1h-.1l-.06,0c-.45.1-.9.2-1.35.28-.63.12-1.24.22-1.82.28"/><path class="cls-20" d="M77.25,31.5l-2.4-1a.48.48,0,0,1,.25,0l2.4,1a.48.48,0,0,0-.25,0"/></g></g></g><g class="cls-2"><g class="cls-76"><g class="cls-2"><path class="cls-24" d="M73.65,39.16l-2.4-1a44.18,44.18,0,0,0-.33-6.94l2.4,1a44.18,44.18,0,0,1,.33,6.94"/><path class="cls-20" d="M73.32,32.22l-2.4-1v-.07l2.4,1v.07"/></g></g></g><path class="cls-77" d="M149.93,1,150,58,63.83,78.35l-.09-57ZM137.31,51.38l3.19-.75c-.12-2.32-.15-4.42-.16-6.84l0-11.4c0-2.95,0-4.63.1-6.28a56.89,56.89,0,0,1-8.15,2.41l0-11.35a6.27,6.27,0,0,1,.78-3.44c.39-.48.35-.73-.07-.65l-.19.05c-.23.07-.67.17-1.18.27a16.71,16.71,0,0,1-2.42.31c.12,1.34.23,4.66.23,7.26l0,8.23c-1.79.4-3.22.7-4.4.92-1.35.26-2.35.42-3.17.51v3.48a24.63,24.63,0,0,1,4-1.26l11.39-2.69v5.9l-9,2.12c-1.2.28-2.31.52-3.32.71-.8.15-1.53.27-2.17.37v3.43c1.44-.47,3.34-1,5.48-1.52l9-2.11v6.38l-10.5,2.47q-1.5.36-2.73.6a27,27,0,0,1-2.76.4v3.65a41.82,41.82,0,0,1,5.49-1.6l10.5-2.49v2.91M99.36,59.12l3.56-.84c-.19-2.12-.34-5.39-.35-8l0-19.67a63.34,63.34,0,0,1,.29-7,51.76,51.76,0,0,1-8.45,2.53c-1.82.43-3.19.73-4.34.95a36.74,36.74,0,0,1-4.12.56v4.18c2.08-.75,3.82-1.25,13.39-3.51l0,9.86c-4.31,1-6.83,1.59-8.73,2-1.47.28-2.57.43-3.85.58v4.1a110.36,110.36,0,0,1,12.57-3.41l0,10.52c-5.58,1.31-8.86,2.07-11.2,2.51-1.28.25-2.28.4-3.23.5v4.14c2.67-1,5.45-1.69,14.43-3.81v3.88M84.76,25.17c.61-.65.52-1.1-.11-1l-.84.18a9.52,9.52,0,0,1-3.31.14c.22,1.18.33,4,.35,12.43a101.43,101.43,0,0,1-.61,14.23c-.66,5.09-2.92,8-7.95,12.93a4.28,4.28,0,0,1,2.92,2.26C81,59.94,83,54.66,83.5,48.68c.36-4.14.4-7.31.53-18.44.07-2.71.29-4.61.73-5.07m28.7,31.62L117,56c-.19-2.81-.27-5.88-.27-8.21l0-19,.87-.17a23.54,23.54,0,0,1,2.73-.37V24.61a28.4,28.4,0,0,1-3.6,1.21v-4.1a11.89,11.89,0,0,1,.4-4.1c.59-.92.54-1.3,0-1.2l-.23.06a15.53,15.53,0,0,1-2,.55,12.7,12.7,0,0,1-1.43.18,85.17,85.17,0,0,1,.31,9.31c-.61.13-1.14.24-1.6.32a23.68,23.68,0,0,1-3,.41v3.56a43.05,43.05,0,0,1,4.56-1.42c-1.8,7.12-3.69,11-5.65,13.84a7.7,7.7,0,0,1,1.9,3.21,54.42,54.42,0,0,0,3.81-10.24V48.44c0,2.33-.1,5.44-.32,8.35m-37.72-25a19.88,19.88,0,0,1-2.43.34,44.39,44.39,0,0,1,.34,7l0,15.85,3.12-.74,0-19.32c0-1.5.15-2.41.48-2.75.5-.46.49-.8-.09-.69l-.06,0c-.45.1-.9.2-1.35.28m61.85-17.67a52.44,52.44,0,0,1-3.14,10.17l2.63.3c1.85-5.28,3.07-8.12,3.51-8.62s.49-.78.19-.75a10.72,10.72,0,0,1-3.19-1.1M125,18.27,122.12,20a38.79,38.79,0,0,1,2.28,7.6l3-1.76c-.74-1.9-1.9-5.5-2.42-7.58M117.1,34.62a27.82,27.82,0,0,1,3,5.06L122.33,37c-.85-1.34-2.12-3.11-3.23-4.52l-2,2.19"/><path class="cls-39" d="M140.59,16c-.44.5-1.66,3.34-3.51,8.62l-2.63-.3a52.44,52.44,0,0,0,3.14-10.17,10.72,10.72,0,0,0,3.19,1.1C141.08,15.21,141.11,15.47,140.59,16Z"/><path class="cls-39" d="M119.1,32.43c1.11,1.41,2.38,3.18,3.23,4.52l-2.22,2.73a27.82,27.82,0,0,0-3-5.06Z"/><path class="cls-39" d="M102.57,50.25c0,2.64.16,5.91.35,8l-3.56.84V55.24c-9,2.12-11.76,2.82-14.43,3.81V54.91c1-.1,2-.25,3.23-.5,2.34-.44,5.62-1.2,11.2-2.51l0-10.52a110.36,110.36,0,0,0-12.57,3.41v-4.1c1.28-.15,2.38-.3,3.85-.58,1.9-.36,4.42-.93,8.73-2l0-9.86C89.74,30.56,88,31.06,85.92,31.81V27.63A36.74,36.74,0,0,0,90,27.07c1.15-.22,2.52-.52,4.34-.95a51.76,51.76,0,0,0,8.45-2.53,63.34,63.34,0,0,0-.29,7Z"/><path class="cls-39" d="M84.58,24.21c.7-.14.79.31.18,1-.44.46-.66,2.36-.73,5.07-.13,11.13-.17,14.3-.53,18.44-.51,6-2.54,11.26-8.29,17.68a4.28,4.28,0,0,0-2.92-2.26c5-5,7.29-7.84,7.95-12.93a101.43,101.43,0,0,0,.61-14.23c0-8.41-.13-11.25-.35-12.43a9.52,9.52,0,0,0,3.31-.14Z"/><path class="cls-39" d="M73.68,55l0-15.85a44.39,44.39,0,0,0-.34-7,19.88,19.88,0,0,0,2.43-.34c.45-.08.9-.18,1.35-.28l.06,0c.58-.11.59.23.09.69-.33.34-.48,1.25-.48,2.75l0,19.32Z"/><polygon class="cls-5" points="63.74 21.37 61.34 20.37 147.53 0 149.93 1 63.74 21.37"/><polygon class="cls-16" points="63.83 78.35 61.43 77.35 61.34 20.37 63.74 21.37 63.83 78.35"/></g></g><path d="M19.4,86.29S18,80,19.05,78.63s.35-2.1,2.45-2.45,2.81,8.72,1.76,9.42S19.4,86.29,19.4,86.29Z"/><path class="cls-78" d="M37.47,152.28a52.78,52.78,0,0,0,5.47,1.35l3.53-4.51s0-2.72-.5-3.17-8.58,2.71-8.58,2.71Z"/><path d="M44.45,149.57c-2.54.85-4,7.23-4,9s0,6.78,2,9.94,2.52.9,2,4.07-1.51.9-1.51,3.61-.5,5.88,4,5.88,9.08-.91,9.58-3.62a63.18,63.18,0,0,0,.51-8.59v-.45s1.51.45,1.51-2.26-2.52-4.52-2.52-5.42,0-9-2-10.4S48.49,148.21,44.45,149.57Z"/><path class="cls-78" d="M27.3,153.63s-.5,28.48,0,30.29,2.52,2.26,5.05,2.26,3-1.36,3-2.26-3.53-.46-3.53-.46,4.54-26.17,3.53-28S27.3,153.63,27.3,153.63Z"/><path d="M74.73,123.14s5.25-2.9,6.87-1.81.81,5.07.81,5.07l.41,4.71s-1.62,2.18-2.43.37-2.8-5.08-5.26-5.08"/><path class="cls-79" d="M21.75,125.16s-3.93-2-3.93-8c0-3.17.49-28.75,1-31l5.45-.79s5.54,16.32,6.55,30.79c0,0,31.08,2.53,45,6l.92,5.69s-31.78,1.36-37.33,0S21.75,125.16,21.75,125.16Z"/><path class="cls-78" d="M45.82,136.18c.15-.62,11.28-26.55,13-27s2,1,2,3c0,1.6-9.72,28.09-11,29S45.82,136.18,45.82,136.18Z"/><path class="cls-80" d="M21.75,125.16a106.73,106.73,0,0,0,4,29.38s8.07-.91,10.09,1.81A12.49,12.49,0,0,1,47,147.76s5-4.07,4.54-7.23L46,134.2,43.44,136s0-6.78-.5-8.14S21.75,125.16,21.75,125.16Z"/></g></g></g></svg>