<svg xmlns="http://www.w3.org/2000/svg" viewBox="0 0 125.78 202.81"><defs><style>.cls-1{isolation:isolate;}.cls-2{fill:#8d8d8d;}.cls-3{fill:#f8f8f8;}.cls-4{fill:#9f9f9f;}.cls-5{fill:#fff;}.cls-6{fill:none;stroke:#fff;stroke-linecap:round;stroke-miterlimit:10;stroke-width:3px;}.cls-7{fill:#33cfff;}.cls-8{fill:#ffbfd3;}</style></defs><title>资源 8</title><g id="图层_2" data-name="图层 2"><g id="E"><g class="cls-1"><polygon class="cls-2" points="64.91 167.09 35.65 155.77 95.88 146.23 125.14 157.56 64.91 167.09"/><polygon class="cls-2" points="66.12 113.64 36.86 102.32 91.16 93.72 120.42 105.04 66.12 113.64"/><polygon class="cls-3" points="125.78 54.74 125.13 83.19 66.6 92.46 66.12 113.64 120.42 105.04 119.8 132.22 65.5 140.82 64.91 167.09 125.14 157.56 124.45 187.74 29.25 202.81 32.27 69.55 125.78 54.74"/><polygon class="cls-4" points="29.25 202.81 0 191.49 3.02 58.23 32.27 69.55 29.25 202.81"/><polygon class="cls-2" points="32.27 69.55 3.02 58.23 96.52 43.42 125.78 54.74 32.27 69.55"/></g><g id="图层_11" data-name="图层 11"><rect class="cls-5" x="60.5" y="33.06" width="4.77" height="7" transform="translate(37.42 -31.58) rotate(39.34)"/><path class="cls-6" d="M70.18,4.28C78,2.49,82.27-.44,84.66,3.34"/><path class="cls-7" d="M41.24,45.93C30.62,47.73,23.44,48,23.44,53c0,4.57,21.5,11.26,25,7,1.79-2.19-10.72-3.21-13-6-.77-.93,19.5-1.5,19.5-1.5h0c7,2,30.72,3.39,42.84,3.64,3.16.06-.34-3.47-.39-4s-26.5-5.33-36.71-5.41C50.85,46.68,41.24,45.93,41.24,45.93Z"/><path class="cls-6" d="M68.72,31.29C71.5,41.64,75,47.13,71.48,50.43"/><path class="cls-8" d="M82.93.71,83.25,4S64.83,9.13,61.71,18.54c0,0-.76,4.29,7.47,7.13C72.91,27,74.54,47.9,74.54,47.9l-4,.4s-2.33-12-3.67-16.44a67.58,67.58,0,0,1-3.85,14c-1.41,3.35-17.51,4.53-21.61-.45,0,0-1.87-14.3,13.75-29.51S82.93.71,82.93.71Z"/><path d="M96.49,50.81c.59-2.08,1.64-3.53,2.45-3.28.62.19,1,4.9,1.18,7.29a1.7,1.7,0,0,1-1.27,1.75A2.07,2.07,0,0,1,96.44,56C95.55,55.08,96.49,50.81,96.49,50.81Z"/><path d="M44.43,60.22c1.22,1.93,6.31,3.06,8.47,2s-1.28-2.75-1.28-2.75l-6.15-2.63a1.12,1.12,0,0,0-1.53,1.28Z"/><ellipse class="cls-5" cx="69.54" cy="29.59" rx="7.85" ry="7" transform="translate(-0.43 58.16) rotate(-45.26)"/><path d="M73.07,32.48c1.19,1.89,1.39,3.88.39,4s1-.1,2.89-1.29,4.29-7.46,3.29-7.36.3-7.07-1.69-6.87-2.28-2.79-4.27-2.59-4.08-.6-6,.59S67,22,65,22.22c-1.41.14-3.78,2.39-4.48,5.47a7.61,7.61,0,0,1,4.77-2.48l3-.3c2-.19,5-.49,4.18,1.6s2.19,1.79,1.39,3.88Z"/></g></g></g></svg>