<svg xmlns="http://www.w3.org/2000/svg" xmlns:xlink="http://www.w3.org/1999/xlink" viewBox="0 0 146.35 244.67"><defs><style>.cls-1,.cls-17,.cls-19{fill:none;}.cls-2{isolation:isolate;}.cls-3{clip-path:url(#clip-path);}.cls-4{fill:#858585;}.cls-5{fill:#8a8a8a;}.cls-6{fill:#8f8f8f;}.cls-7{fill:#949494;}.cls-8{clip-path:url(#clip-path-2);}.cls-9{clip-path:url(#clip-path-3);}.cls-10{fill:#f8f8f8;}.cls-11{fill:#f7f7f7;}.cls-12{fill:#828282;}.cls-13{fill:gray;}.cls-14{fill:#fff;}.cls-15{fill:#ed1c25;}.cls-16{fill:#2e3192;}.cls-17{stroke:#fff;stroke-linecap:round;stroke-width:3px;}.cls-17,.cls-19{stroke-miterlimit:10;}.cls-18{fill:#feca4e;}.cls-19{stroke:#fcc958;stroke-width:4px;}</style><clipPath id="clip-path"><path class="cls-1" d="M76.83,212.12,47.57,200.8a19.42,19.42,0,0,0,10.14.8,25,25,0,0,0,17.6-11.4l29.26,11.33A25,25,0,0,1,87,212.92,19.27,19.27,0,0,1,76.83,212.12Z"/></clipPath><clipPath id="clip-path-2"><path class="cls-1" d="M69.52,126.65,98.77,138a16.48,16.48,0,0,1,6.86,5.1q6.23,7.68,5.8,26.48-.51,22.37-6.86,32L75.31,190.2q6.36-9.6,6.87-32,.42-18.81-5.81-26.48A16.45,16.45,0,0,0,69.52,126.65Z"/></clipPath><clipPath id="clip-path-3"><path class="cls-1" d="M57,241.77,27.7,230.45l-1-.4q-12.36-5.19-19.78-19.51T0,172.87q.74-32.62,16.55-53.25t43.32-25q17.28-2.74,29.55,2L118.71,108q-12.27-4.74-29.55-2-27.51,4.37-43.32,25T29.29,184.19q-.52,23.37,6.9,37.67T56,241.38Z"/></clipPath></defs><title>资源 12</title><g id="图层_2" data-name="图层 2"><g id="O"><g class="cls-2"><g class="cls-2"><g class="cls-3"><g class="cls-2"><path class="cls-4" d="M76.83,212.12,47.57,200.8a18.41,18.41,0,0,0,8.28,1L85.1,213.15a18.35,18.35,0,0,1-8.27-1"/><path class="cls-5" d="M85.1,213.15,55.85,201.83c.61-.06,1.23-.13,1.86-.23a27.13,27.13,0,0,0,6-1.64L93,211.28a27.22,27.22,0,0,1-6,1.64c-.63.1-1.25.18-1.86.23"/><path class="cls-6" d="M93,211.28,63.69,200a24.16,24.16,0,0,0,5.65-3.24l29.25,11.33A23.86,23.86,0,0,1,93,211.28"/><path class="cls-7" d="M98.59,208.05,69.34,196.72a26.6,26.6,0,0,0,6-6.52l29.26,11.33a27,27,0,0,1-6,6.52"/></g></g></g><g class="cls-2"><g class="cls-8"><g class="cls-2"><path class="cls-7" d="M104.57,201.53,75.31,190.2q4.6-6.94,6.14-20.58l29.25,11.32q-1.53,13.63-6.13,20.59"/><path class="cls-6" d="M110.7,180.94,81.45,169.62q.58-5.2.73-11.39a81.19,81.19,0,0,0-.5-11.65l29.25,11.33a79.63,79.63,0,0,1,.5,11.64q-.14,6.18-.73,11.39"/><path class="cls-5" d="M110.93,157.91,81.68,146.58A39.44,39.44,0,0,0,79.37,137l29.25,11.33a38.43,38.43,0,0,1,2.31,9.59"/><path class="cls-4" d="M108.62,148.32,79.37,137a20.15,20.15,0,0,0-3-5.24,16.45,16.45,0,0,0-6.85-5.1L98.77,138a16.48,16.48,0,0,1,6.86,5.1,20.32,20.32,0,0,1,3,5.25"/></g></g></g><g class="cls-2"><g class="cls-9"><g class="cls-2"><path class="cls-4" d="M57,241.77,27.7,230.45l-1-.4q-12.36-5.19-19.78-19.51a47.24,47.24,0,0,1-2-4.37l29.26,11.32q.91,2.28,2,4.37Q43.62,236.19,56,241.38l1,.39"/><path class="cls-5" d="M34.19,217.49,4.93,206.17A68.29,68.29,0,0,1,.78,189.29L30,200.61a68.18,68.18,0,0,0,4.16,16.88"/><path class="cls-6" d="M30,200.61.78,189.29A111.39,111.39,0,0,1,0,172.87q.12-5.84.74-11.28L30,172.91q-.62,5.44-.75,11.28A112.78,112.78,0,0,0,30,200.61"/><path class="cls-7" d="M30,172.91.78,161.59q2.82-25,15.81-42a64.61,64.61,0,0,1,11.86-12L57.71,119a64.6,64.6,0,0,0-11.87,12q-13,16.94-15.8,42"/><path class="cls-6" d="M57.71,119,28.45,107.66a62.83,62.83,0,0,1,14.87-8.49l29.26,11.32A63,63,0,0,0,57.71,119"/><path class="cls-5" d="M72.58,110.49,43.32,99.17a75.14,75.14,0,0,1,16.59-4.53c2-.33,4-.57,6-.74l29.26,11.33c-2,.16-3.94.41-6,.73a75.05,75.05,0,0,0-16.58,4.53"/><path class="cls-4" d="M95.15,105.23,65.89,93.9q13.49-1.16,23.57,2.75L118.71,108q-10.08-3.9-23.56-2.74"/></g></g></g><path class="cls-10" d="M132.2,117q14.84,15.43,14.11,47.63-.52,23.34-7.53,39.36A68.5,68.5,0,0,1,119,230.27q-12.78,10.3-31.58,13.28-19.1,3-31.45-2.17T36.19,221.86q-7.42-14.3-6.9-37.67.74-32.62,16.55-53.25t43.32-25Q117.35,101.51,132.2,117Zm-27.63,84.58q6.36-9.61,6.86-32,.42-18.81-5.8-26.48t-17.26-5.92q-10.55,1.68-17.14,11.51t-7,30.19q-.45,20.18,5.7,28T87,212.92a25,25,0,0,0,17.61-11.39"/></g><g id="Pole"><g class="cls-2"><polygon class="cls-11" points="70.4 0.99 70.22 101.16 65.66 101.8 65.85 1.63 70.4 0.99"/><polygon class="cls-12" points="65.66 101.8 63.84 100.81 64.02 0.64 65.85 1.63 65.66 101.8"/><polygon class="cls-13" points="65.85 1.63 64.02 0.64 68.58 0 70.4 0.99 65.85 1.63"/></g></g><g id="people"><rect class="cls-14" x="78.7" y="170.55" width="5.61" height="8.55" transform="translate(163.01 349.66) rotate(-180)"/><ellipse class="cls-14" cx="82.32" cy="167.42" rx="7" ry="7.48"/><path class="cls-15" d="M76.13,158.72c-1.79,1.91-2.45,3.05-2.45,4.05a3.67,3.67,0,0,1-1,3c-.7.7-1.63,5-1,6,1.3,2.09,3.41,1,4,1,.92-.09-1-6,6-7.08,2-.31,5.08-.44,6.29.69,2.31,2.16,1.47,4,1.47,4s2.16-2.31,1.67-3.64c-.34-.94.53-6.3-2.45-6.63-3.15-.34-2.31-2.16-4.13-3A7.65,7.65,0,0,0,76.13,158.72Z"/><ellipse class="cls-14" cx="78.44" cy="166.55" rx="1.6" ry="1.07" transform="translate(-91.25 95.16) rotate(-41.96)"/><path class="cls-16" d="M89.31,199.77c3,0,10,8,11,12,1.1,4.39.36,8.59-1,14-.31,1.26-1.82-.21-3,0,0,0,0-10-1-12-1.81-3.64-5.14-6-7-6-.55,0,2.35,3.15,3,7,.53,3.07-1,7-3,14l-3-1c.8-1.13,2-7,1-10a20.4,20.4,0,0,0-4-6c-2-2-9-2-8-12"/><path d="M101.76,228.68l-6-1.07a.46.46,0,0,1-.36-.55l.18-1A1.27,1.27,0,0,1,97,225l.53.1c1.52.27,3.38.84,4.18,1.7a2.21,2.21,0,0,1,.57,1.4A.48.48,0,0,1,101.76,228.68Z"/><path d="M90.52,230.94l-5.87-1.65a.47.47,0,0,1-.3-.59l.28-1a1.28,1.28,0,0,1,1.54-.93l.51.15c1.49.42,3.28,1.17,4,2.1a2.28,2.28,0,0,1,.44,1.46A.48.48,0,0,1,90.52,230.94Z"/><path class="cls-17" d="M92.18,187.27c3,6,7,10-2,8"/><path class="cls-18" d="M74.31,202.77c.63,3.14,17.23-2,16-4-3-5-2-12-2-12l4,4.66a.76.76,0,0,0,1.09-.07c.84-1,2.36-3,1.62-3.7-1.07-1.07-6.42-9.92-8.56-10.69a12.9,12.9,0,0,0-7.15,0c-.57.2-4.59,1.34-5,1.8C71.31,181.77,73.34,197.91,74.31,202.77Z"/><path class="cls-17" d="M77.18,196.27c-12,2-7-11-3.37-15"/><path class="cls-19" d="M69.68,189.77c3-7,3-10,10.63-10"/></g></g></g></svg>