<svg xmlns="http://www.w3.org/2000/svg" xmlns:xlink="http://www.w3.org/1999/xlink" viewBox="0 0 146.35 151.02"><defs><style>.cls-1{fill:none;}.cls-2{isolation:isolate;}.cls-3{clip-path:url(#clip-path);}.cls-4{fill:#858585;}.cls-5{fill:#8a8a8a;}.cls-6{fill:#8f8f8f;}.cls-7{fill:#949494;}.cls-8{clip-path:url(#clip-path-2);}.cls-9{clip-path:url(#clip-path-3);}.cls-10{fill:#f8f8f8;}</style><clipPath id="clip-path" transform="translate(0 0)"><path class="cls-1" d="M76.82,118.47,47.56,107.15a19.37,19.37,0,0,0,10.16.8,25,25,0,0,0,17.6-11.38l29.25,11.32A24.92,24.92,0,0,1,87,119.27,19.34,19.34,0,0,1,76.82,118.47Z"/></clipPath><clipPath id="clip-path-2" transform="translate(0 0)"><path class="cls-1" d="M69.52,33,98.77,44.33a16.48,16.48,0,0,1,6.86,5.1q6.23,7.66,5.81,26.48-.51,22.36-6.87,32L75.32,96.57q6.34-9.61,6.86-32,.43-18.83-5.81-26.48A16.45,16.45,0,0,0,69.52,33Z"/></clipPath><clipPath id="clip-path-3" transform="translate(0 0)"><path class="cls-1" d="M56.92,148.12,27.67,136.8l-1-.38Q14.36,131.21,6.94,116.9T0,79.23Q.78,46.59,16.6,26T59.91,1Q77.19-1.73,89.46,3l29.25,11.33q-12.27-4.75-29.55-2-27.49,4.37-43.31,25T29.29,90.56q-.52,23.34,6.9,37.67T56,147.74Z"/></clipPath></defs><title>资源 6</title><g id="图层_2" data-name="图层 2"><g id="O"><g class="cls-2"><g class="cls-2"><g class="cls-3"><g class="cls-2"><path class="cls-4" d="M76.82,118.47,47.56,107.15a18.44,18.44,0,0,0,8.29,1L85.1,119.5a18.24,18.24,0,0,1-8.28-1" transform="translate(0 0)"/><path class="cls-5" d="M85.1,119.5,55.85,108.18c.61-.05,1.23-.13,1.87-.23a27.22,27.22,0,0,0,6-1.64L93,117.63a26.53,26.53,0,0,1-6,1.64c-.63.1-1.26.18-1.87.23" transform="translate(0 0)"/><path class="cls-6" d="M93,117.63,63.71,106.31a24.21,24.21,0,0,0,5.64-3.23L98.61,114.4A23.78,23.78,0,0,1,93,117.63" transform="translate(0 0)"/><path class="cls-7" d="M98.61,114.4,69.35,103.08a26.73,26.73,0,0,0,6-6.51l29.25,11.32a26.89,26.89,0,0,1-6,6.51" transform="translate(0 0)"/></g></g></g><g class="cls-2"><g class="cls-8"><g class="cls-2"><path class="cls-7" d="M104.57,107.89,75.32,96.57q4.61-7,6.14-20.61l29.25,11.32q-1.53,13.65-6.14,20.61" transform="translate(0 0)"/><path class="cls-6" d="M110.71,87.28,81.46,76q.58-5.2.72-11.37a81.29,81.29,0,0,0-.49-11.65l29.25,11.32a79.83,79.83,0,0,1,.5,11.65q-.15,6.18-.73,11.37" transform="translate(0 0)"/><path class="cls-5" d="M110.94,64.26,81.69,52.94a39.15,39.15,0,0,0-2.31-9.57l29.25,11.32a38.37,38.37,0,0,1,2.31,9.57" transform="translate(0 0)"/><path class="cls-4" d="M108.63,54.69,79.38,43.37a20,20,0,0,0-3-5.26A16.45,16.45,0,0,0,69.52,33L98.77,44.33a16.48,16.48,0,0,1,6.86,5.1,20.12,20.12,0,0,1,3,5.26" transform="translate(0 0)"/></g></g></g><g class="cls-2"><g class="cls-9"><g class="cls-2"><path class="cls-4" d="M56.92,148.12,27.67,136.8l-1-.38Q14.36,131.21,6.94,116.9a47,47,0,0,1-2-4.36l29.25,11.32c.61,1.52,1.28,3,2,4.37Q43.62,142.52,56,147.74l1,.38" transform="translate(0 0)"/><path class="cls-5" d="M34.19,123.86,4.94,112.54A68,68,0,0,1,.78,95.64L30,107a68.34,68.34,0,0,0,4.16,16.9" transform="translate(0 0)"/><path class="cls-6" d="M30,107,.78,95.64A111.32,111.32,0,0,1,0,79.23Q.16,73.4.78,68L30,79.27q-.62,5.45-.75,11.29A112.5,112.5,0,0,0,30,107" transform="translate(0 0)"/><path class="cls-7" d="M30,79.27.78,68Q3.6,42.9,16.6,26A64.44,64.44,0,0,1,28.45,14L57.7,25.35A64.81,64.81,0,0,0,45.85,37.3q-13,16.94-15.81,42" transform="translate(0 0)"/><path class="cls-6" d="M57.7,25.35,28.45,14a62.86,62.86,0,0,1,14.87-8.5L72.58,16.85a63.07,63.07,0,0,0-14.88,8.5" transform="translate(0 0)"/><path class="cls-5" d="M72.58,16.85,43.32,5.53A75.14,75.14,0,0,1,59.91,1c2-.32,4-.57,6-.74L95.14,11.59c-1.94.16-3.93.41-6,.73a75.05,75.05,0,0,0-16.58,4.53" transform="translate(0 0)"/><path class="cls-4" d="M95.14,11.59,65.89.26Q79.38-.89,89.46,3l29.25,11.33q-10.08-3.91-23.57-2.75" transform="translate(0 0)"/></g></g></g><path class="cls-10" d="M132.2,23.31Q147,38.75,146.31,70.93q-.52,23.37-7.53,39.37A68.22,68.22,0,0,1,119,136.62q-12.78,10.32-31.58,13.29-19.1,3-31.45-2.17T36.19,128.23q-7.42-14.32-6.9-37.67Q30,57.91,45.85,37.3t43.31-25Q117.35,7.86,132.2,23.31Zm-27.63,84.58q6.36-9.61,6.87-32,.42-18.82-5.81-26.48T88.38,43.52Q77.82,45.19,71.23,55t-7,30.19q-.45,20.17,5.7,28T87,119.27a24.92,24.92,0,0,0,17.6-11.38" transform="translate(0 0)"/></g></g></g></svg>