<svg xmlns="http://www.w3.org/2000/svg" xmlns:xlink="http://www.w3.org/1999/xlink" viewBox="0 0 63.6 155.1"><defs><style>.cls-1,.cls-7{fill:none;}.cls-2{isolation:isolate;}.cls-3{fill:#f8f8f8;}.cls-4{fill:#9f9f9f;}.cls-5{fill:#8d8d8d;}.cls-6{fill:#fff;}.cls-7{stroke:#fff;stroke-linecap:round;stroke-miterlimit:10;stroke-width:3px;}.cls-8{fill:#fbb03b;}.cls-9{clip-path:url(#clip-path);}.cls-10{fill:#858585;}.cls-11{clip-path:url(#clip-path-2);}.cls-12{clip-path:url(#clip-path-3);}.cls-13{fill:#848484;}.cls-14{clip-path:url(#clip-path-4);}.cls-15{clip-path:url(#clip-path-5);}.cls-16{clip-path:url(#clip-path-6);}.cls-17{fill:#08141c;}.cls-18{clip-path:url(#clip-path-7);}.cls-19{clip-path:url(#clip-path-8);}.cls-20{clip-path:url(#clip-path-9);}.cls-21{fill:#8a8a8a;}.cls-22{clip-path:url(#clip-path-10);}.cls-23{clip-path:url(#clip-path-11);}.cls-24{clip-path:url(#clip-path-12);}.cls-25{clip-path:url(#clip-path-13);}.cls-26{fill:#868686;}.cls-27{clip-path:url(#clip-path-14);}.cls-28{clip-path:url(#clip-path-15);}.cls-29{fill:#08151d;}.cls-30{clip-path:url(#clip-path-16);}.cls-31{clip-path:url(#clip-path-17);}.cls-32{fill:#08131b;}.cls-33{clip-path:url(#clip-path-18);}.cls-34{clip-path:url(#clip-path-19);}.cls-35{clip-path:url(#clip-path-20);}.cls-36{clip-path:url(#clip-path-21);}.cls-37{clip-path:url(#clip-path-22);}.cls-38{clip-path:url(#clip-path-23);}.cls-39{clip-path:url(#clip-path-24);}.cls-40{clip-path:url(#clip-path-25);}.cls-41{clip-path:url(#clip-path-26);}.cls-42{clip-path:url(#clip-path-27);}.cls-43{clip-path:url(#clip-path-28);}.cls-44{clip-path:url(#clip-path-29);}.cls-45{clip-path:url(#clip-path-30);}.cls-46{clip-path:url(#clip-path-31);}.cls-47{clip-path:url(#clip-path-32);}.cls-48{clip-path:url(#clip-path-33);}.cls-49{clip-path:url(#clip-path-34);}.cls-50{clip-path:url(#clip-path-35);}.cls-51{clip-path:url(#clip-path-36);}.cls-52{clip-path:url(#clip-path-37);}.cls-53{clip-path:url(#clip-path-38);}.cls-54{clip-path:url(#clip-path-39);}.cls-55{clip-path:url(#clip-path-40);}.cls-56{clip-path:url(#clip-path-41);}.cls-57{clip-path:url(#clip-path-42);}.cls-58{clip-path:url(#clip-path-43);}.cls-59{clip-path:url(#clip-path-44);}.cls-60{clip-path:url(#clip-path-45);}.cls-61{clip-path:url(#clip-path-46);}.cls-62{fill:#0e2534;}.cls-63{fill:#f6f6f6;}.cls-64{clip-path:url(#clip-path-47);}</style><clipPath id="clip-path"><path class="cls-1" d="M22.81,16.49a6.68,6.68,0,0,0-.91-5l1.23,0a6.63,6.63,0,0,1,.92,5Z"/></clipPath><clipPath id="clip-path-2"><path class="cls-1" d="M21.9,11.49c-.28-.36-.28-.36-.19-.8l1.24,0c-.1.44-.1.44.18.8h0l-1.23,0Z"/></clipPath><clipPath id="clip-path-3"><path class="cls-1" d="M21.5,7.83l1.24,0A6.43,6.43,0,0,1,23,10.67l-1.24,0A6.24,6.24,0,0,0,21.5,7.83Z"/></clipPath><clipPath id="clip-path-4"><path class="cls-1" d="M22.81,16.49l1.24,0a5.21,5.21,0,0,1-2.8,4.32l-1.24,0A5.19,5.19,0,0,0,22.81,16.49Z"/></clipPath><clipPath id="clip-path-5"><path class="cls-1" d="M20,20.81h0l1.24,0h0Z"/></clipPath><clipPath id="clip-path-6"><path class="cls-1" d="M20.17,28.57l-1.23,0a2.51,2.51,0,0,0,.82-.26A13.55,13.55,0,0,0,27.2,18.19l1.24,0A13.57,13.57,0,0,1,21,28.32,2.25,2.25,0,0,1,20.17,28.57Z"/></clipPath><clipPath id="clip-path-7"><path class="cls-1" d="M19.6,8.78l-1.23,0A5.05,5.05,0,0,1,21,7.59l1.23,0A5.08,5.08,0,0,0,19.6,8.78Z"/></clipPath><clipPath id="clip-path-8"><path class="cls-1" d="M19.25,8.93,18,9a.58.58,0,0,0,.35-.15l1.23,0C19.45,8.88,19.39,8.93,19.25,8.93Z"/></clipPath><clipPath id="clip-path-9"><path class="cls-1" d="M20.17,28.57l-1.23,0a.49.49,0,0,1-.39-.17c-.17-.18-.17-.18-.27-2.63-.09-2.07-.1-2.51-.16-2.81l1.23,0a22.48,22.48,0,0,1,.16,2.81c.11,2.45.11,2.45.27,2.63A.48.48,0,0,0,20.17,28.57Z"/></clipPath><clipPath id="clip-path-10"><path class="cls-1" d="M17.89,22.37l1.23,0a4.81,4.81,0,0,1,.23.62l-1.23,0C18,22.75,18,22.55,17.89,22.37Z"/></clipPath><clipPath id="clip-path-11"><path class="cls-1" d="M19.25,8.93,18,9a4.83,4.83,0,0,1-.53-.07l1.23,0A4.83,4.83,0,0,0,19.25,8.93Z"/></clipPath><clipPath id="clip-path-12"><path class="cls-1" d="M17.89,22.37a2.31,2.31,0,0,0-.34-.53l1.24,0a2,2,0,0,1,.33.53Z"/></clipPath><clipPath id="clip-path-13"><path class="cls-1" d="M17.54,21.6A8.91,8.91,0,0,0,20,20.81l1.24,0a8.74,8.74,0,0,1-2.47.78Z"/></clipPath><clipPath id="clip-path-14"><path class="cls-1" d="M18.72,8.86l-1.23,0a7.07,7.07,0,0,0-2.55-.26l1.23,0A7,7,0,0,1,18.72,8.86Z"/></clipPath><clipPath id="clip-path-15"><path class="cls-1" d="M28.44,18.16l-1.24,0C28.5,10.4,23.69,3.08,16.65,2a14.17,14.17,0,0,0-2-.09l1.24,0a15.35,15.35,0,0,1,2,.1C24.92,3.06,29.74,10.37,28.44,18.16Z"/></clipPath><clipPath id="clip-path-16"><path class="cls-1" d="M16.41,31.27l-1.23,0c-.35,0-.67,0-.95,0l1.24,0C15.75,31.26,16.07,31.27,16.41,31.27Z"/></clipPath><clipPath id="clip-path-17"><path class="cls-1" d="M14.68,2,13.45,2A7.2,7.2,0,0,1,14.6,2l1.24,0A8.56,8.56,0,0,0,14.68,2Z"/></clipPath><clipPath id="clip-path-18"><path class="cls-1" d="M13.17,9l-1.24,0A1.92,1.92,0,0,0,12.3,9a8.62,8.62,0,0,1,2.64-.35l1.23,0A8.53,8.53,0,0,0,13.54,9,1.88,1.88,0,0,1,13.17,9Z"/></clipPath><clipPath id="clip-path-19"><path class="cls-1" d="M13.43,28.27l-1.24,0a7.88,7.88,0,0,0,0-1.41l1.23,0A7.18,7.18,0,0,1,13.43,28.27Z"/></clipPath><clipPath id="clip-path-20"><path class="cls-1" d="M13.21,28.58l-1.24,0a.77.77,0,0,0,.22-.31l1.24,0A.65.65,0,0,1,13.21,28.58Z"/></clipPath><clipPath id="clip-path-21"><path class="cls-1" d="M13.17,9l-1.24,0a1.51,1.51,0,0,1-.64-.25l1.24,0C12.88,9,13,9,13.17,9Z"/></clipPath><clipPath id="clip-path-22"><path class="cls-1" d="M12.87,28.69l-1.23,0a.56.56,0,0,0,.33-.1l1.24,0A.53.53,0,0,1,12.87,28.69Z"/></clipPath><clipPath id="clip-path-23"><path class="cls-1" d="M12.39,25.78l-1.23,0a8.2,8.2,0,0,0,.87-.13l1.24,0A8.57,8.57,0,0,1,12.39,25.78Z"/></clipPath><clipPath id="clip-path-24"><path class="cls-1" d="M12.87,28.69l-1.23,0a2.26,2.26,0,0,1-.82-.21l1.23,0A2.31,2.31,0,0,0,12.87,28.69Z"/></clipPath><clipPath id="clip-path-25"><path class="cls-1" d="M11.92,23.92l-1.23,0a3.85,3.85,0,0,0,1.2-.23c.33-.12.33-.12.38-.49a2.9,2.9,0,0,1,.53-1.3l1.24,0a2.91,2.91,0,0,0-.54,1.3c0,.37,0,.37-.38.49A3.85,3.85,0,0,1,11.92,23.92Z"/></clipPath><clipPath id="clip-path-26"><path class="cls-1" d="M10.69,23.94h0l1.23,0h0Z"/></clipPath><clipPath id="clip-path-27"><path class="cls-1" d="M14,21.66l-1.23,0A8.66,8.66,0,0,1,10.4,21l1.24,0A8.83,8.83,0,0,0,14,21.66Z"/></clipPath><clipPath id="clip-path-28"><path class="cls-1" d="M10.69,23.94h-.35l1.24,0a1.88,1.88,0,0,0,.34,0Z"/></clipPath><clipPath id="clip-path-29"><path class="cls-1" d="M9.77,23.75l1.24,0a2.1,2.1,0,0,0,.57.17l-1.24,0A2.23,2.23,0,0,1,9.77,23.75Z"/></clipPath><clipPath id="clip-path-30"><path class="cls-1" d="M9.39,7.86l1.23,0a5.68,5.68,0,0,1,1.91.93l-1.24,0A5.51,5.51,0,0,0,9.39,7.86Z"/></clipPath><clipPath id="clip-path-31"><path class="cls-1" d="M9.7,28l1.23,0c.38.2.76.39,1.12.54l-1.23,0A11.36,11.36,0,0,1,9.7,28Z"/></clipPath><clipPath id="clip-path-32"><path class="cls-1" d="M12.39,25.78l-1.24,0a3,3,0,0,1-1.89-.39l1.24,0A3,3,0,0,0,12.39,25.78Z"/></clipPath><clipPath id="clip-path-33"><path class="cls-1" d="M9.39,7.86a2.78,2.78,0,0,0-.54-.06l1.23,0a2.62,2.62,0,0,1,.54.06h-.9A1.82,1.82,0,0,1,9.39,7.86Z"/></clipPath><clipPath id="clip-path-34"><path class="cls-1" d="M9.48,10.91l-1.24,0a6.51,6.51,0,0,1,.11-2.87L9.59,8A6.41,6.41,0,0,0,9.48,10.91Z"/></clipPath><clipPath id="clip-path-35"><path class="cls-1" d="M10.5,25.39l-1.24,0a2.74,2.74,0,0,1-1.34-1.63l1.23,0A2.75,2.75,0,0,0,10.5,25.39Z"/></clipPath><clipPath id="clip-path-36"><path class="cls-1" d="M9.7,28a12.33,12.33,0,0,1-2.24-1.54l1.23,0a12.73,12.73,0,0,0,2.24,1.55h-1A.69.69,0,0,1,9.7,28Z"/></clipPath><clipPath id="clip-path-37"><path class="cls-1" d="M8.56,22.54a3.2,3.2,0,0,0-1.19-1.19l1.24,0a3.12,3.12,0,0,1,1.18,1.19A3.17,3.17,0,0,0,11,23.73l-1.24,0A3.16,3.16,0,0,1,8.56,22.54Z"/></clipPath><clipPath id="clip-path-38"><path class="cls-1" d="M11.64,21,10.4,21c-1.94-.82-3-2.45-3.18-5.2a6.18,6.18,0,0,1,.92-4.17c.22-.31.22-.31.1-.74l1.24,0c.12.43.12.43-.1.74a6.16,6.16,0,0,0-.92,4.17C8.67,18.57,9.69,20.2,11.64,21Z"/></clipPath><clipPath id="clip-path-39"><path class="cls-1" d="M9.15,23.76l-1.23,0A5,5,0,0,0,6.67,22l1.24,0A5,5,0,0,1,9.15,23.76Z"/></clipPath><clipPath id="clip-path-40"><path class="cls-1" d="M8.61,21.33l-1.24,0a1.73,1.73,0,0,0-.83-.18l1.23,0A1.88,1.88,0,0,1,8.61,21.33Z"/></clipPath><clipPath id="clip-path-41"><path class="cls-1" d="M7.34,21.29l-1.24,0c0-.09.21-.14.44-.14l1.23,0C7.54,21.15,7.36,21.2,7.34,21.29Z"/></clipPath><clipPath id="clip-path-42"><path class="cls-1" d="M7.91,22,6.67,22c-.4-.3-.62-.54-.57-.72l1.24,0C7.29,21.47,7.51,21.71,7.91,22Z"/></clipPath><clipPath id="clip-path-43"><path class="cls-1" d="M8.69,26.39l-1.23,0a21.3,21.3,0,0,1-1.91-2l1.24,0A19.93,19.93,0,0,0,8.69,26.39Z"/></clipPath><clipPath id="clip-path-44"><path class="cls-1" d="M5.63,8.59l-1.24,0A15.9,15.9,0,0,1,7,5.14,11.94,11.94,0,0,1,13.45,2l1.23,0A12,12,0,0,0,8.27,5.12,15.63,15.63,0,0,0,5.63,8.59Z"/></clipPath><clipPath id="clip-path-45"><path class="cls-1" d="M4.36,12l-1.24,0A17,17,0,0,1,4.39,8.61l1.24,0A16.46,16.46,0,0,0,4.36,12Z"/></clipPath><clipPath id="clip-path-46"><path class="cls-1" d="M6.79,24.41l-1.24,0A15.17,15.17,0,0,1,3.12,12.06l1.24,0A15.13,15.13,0,0,0,6.79,24.41Z"/></clipPath><clipPath id="clip-path-47"><path class="cls-1" d="M15.47,31.24l-1.24,0A14,14,0,0,1,3.62,24.77,17,17,0,0,1,2.78,7.91,14.32,14.32,0,0,1,11.26.61,13,13,0,0,1,14.87,0l1.24,0A13.34,13.34,0,0,0,12.5.58,14.38,14.38,0,0,0,4,7.89a17,17,0,0,0,.85,16.86A14,14,0,0,0,15.47,31.24Z"/></clipPath></defs><title>资源 4</title><g id="图层_2" data-name="图层 2"><g id="Point"><g class="cls-2"><polygon class="cls-3" points="63.6 112.7 62.76 149.79 29.25 155.1 30.09 118.01 63.6 112.7"/><polygon class="cls-4" points="29.25 155.1 0 143.77 0.84 106.69 30.09 118.01 29.25 155.1"/><polygon class="cls-5" points="30.09 118.01 0.84 106.69 34.35 101.38 63.6 112.7 30.09 118.01"/></g><rect class="cls-6" x="19.69" y="55.7" width="3.21" height="6.41"/><path class="cls-7" d="M39.33,78.54s.67,1.59-1-2"/><path class="cls-7" d="M16.49,34.86a12.27,12.27,0,0,0-1.61,6.41"/><path class="cls-8" d="M14.08,36.46A69.75,69.75,0,0,0,12.3,63.62c1.65,13.66,5.3,20.1,6.36,21.72a.82.82,0,0,0,.77.38c2.33-.19,12.37-1.2,17.12-4.69a.85.85,0,0,0,.2-1.17A62.44,62.44,0,0,1,33,73.78a.85.85,0,0,1,1.47-.84c1.08,1.79,2.17,3.73,3.05,5.59a.85.85,0,0,0,.91.47l1.35-.25a.83.83,0,0,0,.62-1.17c-1.47-3.23-6.51-13.52-12.72-17.75a.7.7,0,0,0-.28-.12c-1-.25-6.46-1.54-9.93-1a.85.85,0,0,1-1-.86l.81-21.38C17.3,35.92,14.17,36.17,14.08,36.46Z"/><path class="cls-6" d="M27.87,48.59a10.38,10.38,0,0,1-2.16,6.47c-1.08,1.34-.9,2.16-4.31,2.16-2.16,0-2.93-.28-4.31-2.16C16,53.56,16,51.79,16,49.67c0-4.77.14-3.24,4.31-3.24S27.87,43.82,27.87,48.59Z"/><path class="cls-6" d="M18.67,85.2c.28.83,5.81,18,8,21s4.43,1.39,4.43,1.39-2.49-14.94-2.49-17.16.28-3.87,2.77-1.66,19.65,15.5,21.31,14.94A2.22,2.22,0,0,0,54.37,101c-.28-.83-14.12-18.54-17.71-21S18.67,85.2,18.67,85.2Z"/><path d="M27.48,107.13s-3.55.21-3.55,1,7.19.83,7.47.83,0-2.48,0-2.48Z"/><path d="M54.37,101a12.63,12.63,0,0,0,3.87,3.32c1.94.83,1.11,1.66,1.11,1.66l-6.09-1.39s-1.94,0-1.11-1.38A7.27,7.27,0,0,1,54.37,101Z"/><path d="M11.7,56c-.77.61-1,3.06-4.11,2.69C6,58.51,4.18,56.34,3.65,57.62,2.4,60.67.78,56.07.43,55.48a3,3,0,0,1,2-4.12c1.41-.49,4.65,0,5-2.87s1.07-3.94,5.36-5.73c2.23-.93,9.66-2.88,10.91-1.27s4.3,2.86,4.66,4.65a13.59,13.59,0,0,1,.54,2.68,6.54,6.54,0,0,0,.36,1.79c.54,2.69-1.88,3.56-2.14,3.23,0,0,1.59-.84.71-1.08a3.23,3.23,0,0,1-2.33-2.32c-1.25-1.61-2.16-2.08-3.93-1.07-1,.59-3.94,3.58-5.91,3.05C13.34,51.8,11.7,56,11.7,56Z"/><g id="github"><g class="cls-2"><g class="cls-2"><g class="cls-9"><g class="cls-2"><path class="cls-10" d="M24.05,16.47l-1.24,0a6.68,6.68,0,0,0-.91-5c-.28-.36-.28-.36-.19-.8a6.24,6.24,0,0,0-.21-2.86l1.24,0A6.43,6.43,0,0,1,23,10.67c-.1.44-.1.44.18.8a6.63,6.63,0,0,1,.92,5"/></g></g></g><g class="cls-2"><g class="cls-11"><g class="cls-2"><path class="cls-10" d="M24.05,16.47l-1.24,0a6.68,6.68,0,0,0-.91-5c-.28-.36-.28-.36-.19-.8a6.24,6.24,0,0,0-.21-2.86l1.24,0A6.43,6.43,0,0,1,23,10.67c-.1.44-.1.44.18.8a6.63,6.63,0,0,1,.92,5"/></g></g></g><g class="cls-2"><g class="cls-12"><g class="cls-2"><path class="cls-10" d="M24.05,16.47l-1.24,0a6.68,6.68,0,0,0-.91-5c-.28-.36-.28-.36-.19-.8a6.24,6.24,0,0,0-.21-2.86l1.24,0A6.43,6.43,0,0,1,23,10.67c-.1.44-.1.44.18.8a6.63,6.63,0,0,1,.92,5"/></g></g></g><polygon class="cls-13" points="22.73 7.8 21.5 7.83 21.38 7.58 22.62 7.56 22.73 7.8"/><g class="cls-2"><g class="cls-14"><g class="cls-2"><path class="cls-10" d="M18.78,21.57l-1.24,0A8.91,8.91,0,0,0,20,20.81a5.19,5.19,0,0,0,2.8-4.32l1.24,0a5.21,5.21,0,0,1-2.8,4.32,8.74,8.74,0,0,1-2.47.78"/></g></g></g><g class="cls-2"><g class="cls-15"><g class="cls-2"><path class="cls-10" d="M18.78,21.57l-1.24,0A8.91,8.91,0,0,0,20,20.81a5.19,5.19,0,0,0,2.8-4.32l1.24,0a5.21,5.21,0,0,1-2.8,4.32,8.74,8.74,0,0,1-2.47.78"/></g></g></g><g class="cls-2"><g class="cls-16"><g class="cls-2"><path class="cls-17" d="M20.17,28.57l-1.23,0a2.51,2.51,0,0,0,.82-.26A13.55,13.55,0,0,0,27.2,18.19l1.24,0A13.57,13.57,0,0,1,21,28.32a2.25,2.25,0,0,1-.83.25"/></g></g></g><g class="cls-2"><g class="cls-18"><g class="cls-2"><path class="cls-17" d="M19.6,8.78l-1.23,0A5.05,5.05,0,0,1,21,7.59l1.23,0A5.08,5.08,0,0,0,19.6,8.78"/></g></g></g><g class="cls-2"><g class="cls-19"><g class="cls-2"><path class="cls-17" d="M19.25,8.93,18,9a.58.58,0,0,0,.35-.15l1.23,0c-.15.1-.21.15-.35.15"/></g></g></g><g class="cls-2"><g class="cls-20"><g class="cls-2"><path class="cls-21" d="M20.17,28.57l-1.23,0a.6.6,0,0,1-.24-.05l1.24,0a.34.34,0,0,0,.23.05"/><path class="cls-10" d="M19.94,28.52l-1.24,0a.44.44,0,0,1-.15-.12c-.17-.18-.17-.18-.27-2.63-.09-2.07-.1-2.51-.16-2.81l1.23,0a22.48,22.48,0,0,1,.16,2.81c.11,2.45.11,2.45.27,2.63a.42.42,0,0,0,.16.11"/></g></g></g><g class="cls-2"><g class="cls-22"><g class="cls-2"><path class="cls-10" d="M19.35,23l-1.23,0a3,3,0,0,0-.57-1.15l1.24,0A3.14,3.14,0,0,1,19.35,23"/></g></g></g><g class="cls-2"><g class="cls-23"><g class="cls-2"><path class="cls-21" d="M19.25,8.93,18,9a4.83,4.83,0,0,1-.53-.07l1.23,0a4.83,4.83,0,0,0,.53.07"/></g></g></g><g class="cls-2"><g class="cls-24"><g class="cls-2"><path class="cls-10" d="M19.35,23l-1.23,0a3,3,0,0,0-.57-1.15l1.24,0A3.14,3.14,0,0,1,19.35,23"/></g></g></g><g class="cls-2"><g class="cls-25"><g class="cls-2"><path class="cls-10" d="M18.78,21.57l-1.24,0A8.91,8.91,0,0,0,20,20.81a5.19,5.19,0,0,0,2.8-4.32l1.24,0a5.21,5.21,0,0,1-2.8,4.32,8.74,8.74,0,0,1-2.47.78"/></g></g></g><polygon class="cls-26" points="18.79 21.82 17.55 21.84 17.37 21.6 18.61 21.58 18.79 21.82"/><g class="cls-2"><g class="cls-27"><g class="cls-2"><path class="cls-21" d="M18.72,8.86l-1.23,0a7.07,7.07,0,0,0-2.55-.26l1.23,0a7,7,0,0,1,2.55.27"/></g></g></g><g class="cls-2"><g class="cls-28"><g class="cls-2"><path class="cls-17" d="M28.44,18.16l-1.24,0c1.07-6.41-2-12.49-7-15l1.23,0c5,2.53,8.11,8.62,7,15"/><path class="cls-29" d="M21.4,3.14l-1.23,0A11.69,11.69,0,0,0,16.65,2a14.17,14.17,0,0,0-2-.09l1.24,0a15.35,15.35,0,0,1,2,.1A11.41,11.41,0,0,1,21.4,3.14"/></g></g></g><g class="cls-2"><g class="cls-30"><g class="cls-2"><path class="cls-29" d="M16.41,31.27l-1.23,0c-.35,0-.67,0-.95,0l1.24,0c.28,0,.6,0,.94,0"/></g></g></g><g class="cls-2"><g class="cls-31"><g class="cls-2"><path class="cls-10" d="M14.68,2,13.45,2A7.2,7.2,0,0,1,14.6,2l1.24,0A8.56,8.56,0,0,0,14.68,2"/></g></g></g><polygon class="cls-32" points="14.04 21.9 12.8 21.92 12.96 21.68 14.19 21.65 14.04 21.9"/><g class="cls-2"><g class="cls-33"><g class="cls-2"><path class="cls-17" d="M13.17,9l-1.24,0A1.92,1.92,0,0,0,12.3,9a8.62,8.62,0,0,1,2.64-.35l1.23,0A8.53,8.53,0,0,0,13.54,9a1.88,1.88,0,0,1-.37.07"/></g></g></g><rect class="cls-32" x="12.21" y="25.66" width="1.24" height="1.22" transform="translate(-0.46 0.23) rotate(-1)"/><g class="cls-2"><g class="cls-34"><g class="cls-2"><path class="cls-17" d="M13.43,28.27l-1.24,0a7.88,7.88,0,0,0,0-1.41l1.23,0a7.18,7.18,0,0,1,0,1.4"/></g></g></g><g class="cls-2"><g class="cls-35"><g class="cls-2"><path class="cls-17" d="M13.21,28.58l-1.24,0a.77.77,0,0,0,.22-.31l1.24,0a.65.65,0,0,1-.22.31"/></g></g></g><g class="cls-2"><g class="cls-36"><g class="cls-2"><path class="cls-21" d="M13.17,9l-1.24,0a.87.87,0,0,1-.4-.13l1.23,0a.94.94,0,0,0,.41.13"/><path class="cls-10" d="M12.76,8.9l-1.23,0-.24-.12,1.24,0,.23.13"/></g></g></g><g class="cls-2"><g class="cls-37"><g class="cls-2"><path class="cls-17" d="M12.87,28.69l-1.23,0a.56.56,0,0,0,.33-.1l1.24,0a.53.53,0,0,1-.34.11"/></g></g></g><g class="cls-2"><g class="cls-38"><g class="cls-2"><path class="cls-10" d="M12.39,25.78l-1.23,0a8.2,8.2,0,0,0,.87-.13l1.24,0a8.57,8.57,0,0,1-.88.13"/></g></g></g><g class="cls-2"><g class="cls-39"><g class="cls-2"><path class="cls-21" d="M12.87,28.69l-1.23,0a2.26,2.26,0,0,1-.82-.21l1.23,0a2.31,2.31,0,0,0,.82.21"/></g></g></g><g class="cls-2"><g class="cls-40"><g class="cls-2"><path class="cls-17" d="M11.92,23.92l-1.23,0a3.85,3.85,0,0,0,1.2-.23c.33-.12.33-.12.38-.49a2.9,2.9,0,0,1,.53-1.3l1.24,0a2.91,2.91,0,0,0-.54,1.3c0,.37,0,.37-.38.49a3.85,3.85,0,0,1-1.2.23"/></g></g></g><g class="cls-2"><g class="cls-41"><g class="cls-2"><path class="cls-21" d="M11.92,23.92l-1.23,0h-.35l1.24,0a1.88,1.88,0,0,0,.34,0"/></g></g></g><g class="cls-2"><g class="cls-42"><g class="cls-2"><path class="cls-29" d="M14,21.66l-1.23,0A8.66,8.66,0,0,1,10.4,21l1.24,0a8.83,8.83,0,0,0,2.39.64"/></g></g></g><g class="cls-2"><g class="cls-43"><g class="cls-2"><path class="cls-21" d="M11.92,23.92l-1.23,0h-.35l1.24,0a1.88,1.88,0,0,0,.34,0"/></g></g></g><g class="cls-2"><g class="cls-44"><g class="cls-2"><path class="cls-21" d="M11.58,23.9l-1.24,0a2.12,2.12,0,0,1-.6-.2l1.24,0a1.69,1.69,0,0,0,.6.19"/></g></g></g><g class="cls-2"><g class="cls-45"><g class="cls-2"><path class="cls-10" d="M12.53,8.77l-1.24,0a6.15,6.15,0,0,0-.93-.57l1.23,0a7.62,7.62,0,0,1,.94.57"/><path class="cls-21" d="M11.59,8.2l-1.23,0A3.5,3.5,0,0,0,8.85,7.8l1.23,0a3.4,3.4,0,0,1,1.51.42"/></g></g></g><g class="cls-2"><g class="cls-46"><g class="cls-2"><path class="cls-21" d="M12.05,28.48l-1.23,0c-.25-.1-.5-.22-.75-.35l1.24,0c.25.13.5.25.74.35"/><path class="cls-10" d="M11.31,28.13l-1.24,0a12.86,12.86,0,0,1-2.61-1.73l1.23,0a12.31,12.31,0,0,0,2.62,1.74"/></g></g></g><g class="cls-2"><g class="cls-47"><g class="cls-2"><path class="cls-29" d="M12.39,25.78l-1.24,0a3.08,3.08,0,0,1-1.65-.26l1.23,0a3.22,3.22,0,0,0,1.66.26"/><path class="cls-17" d="M10.73,25.52l-1.23,0-.24-.13,1.24,0,.23.13"/></g></g></g><g class="cls-2"><g class="cls-48"><g class="cls-2"><path class="cls-21" d="M11.59,8.2l-1.23,0A3.5,3.5,0,0,0,8.85,7.8l1.23,0a3.4,3.4,0,0,1,1.51.42"/></g></g></g><polygon class="cls-32" points="9.59 8.03 8.35 8.06 8.46 7.81 9.7 7.79 9.59 8.03"/><g class="cls-2"><g class="cls-49"><g class="cls-2"><path class="cls-17" d="M9.48,10.91l-1.24,0a6.51,6.51,0,0,1,.11-2.87L9.59,8a6.41,6.41,0,0,0-.11,2.88"/></g></g></g><g class="cls-2"><g class="cls-50"><g class="cls-2"><path class="cls-29" d="M10.5,25.39l-1.24,0,0,0,1.24,0,0,0"/><path class="cls-17" d="M10.46,25.37l-1.24,0a2.78,2.78,0,0,1-1.3-1.61l1.23,0a2.82,2.82,0,0,0,1.31,1.61"/></g></g></g><g class="cls-2"><g class="cls-51"><g class="cls-2"><path class="cls-10" d="M11.31,28.13l-1.24,0a12.86,12.86,0,0,1-2.61-1.73l1.23,0a12.31,12.31,0,0,0,2.62,1.74"/></g></g></g><g class="cls-2"><g class="cls-52"><g class="cls-2"><path class="cls-21" d="M11.58,23.9l-1.24,0a2.12,2.12,0,0,1-.6-.2l1.24,0a1.69,1.69,0,0,0,.6.19"/><path class="cls-10" d="M11,23.71l-1.24,0a3.11,3.11,0,0,1-1.18-1.19,3.2,3.2,0,0,0-1.19-1.19l1.24,0a3.12,3.12,0,0,1,1.18,1.19A3.13,3.13,0,0,0,11,23.71"/></g></g></g><g class="cls-2"><g class="cls-53"><g class="cls-2"><path class="cls-29" d="M11.64,21,10.4,21l-.35-.16,1.23,0,.36.16"/><path class="cls-17" d="M11.28,20.86l-1.23,0c-1.72-.86-2.63-2.46-2.83-5a6.18,6.18,0,0,1,.92-4.17c.22-.31.22-.31.1-.74l1.24,0c.12.43.12.43-.1.74a6.16,6.16,0,0,0-.92,4.17c.2,2.58,1.11,4.17,2.82,5"/></g></g></g><g class="cls-2"><g class="cls-54"><g class="cls-2"><path class="cls-17" d="M9.15,23.76l-1.23,0A5,5,0,0,0,6.67,22l1.24,0a5,5,0,0,1,1.24,1.75"/></g></g></g><g class="cls-2"><g class="cls-55"><g class="cls-2"><path class="cls-10" d="M8.61,21.33l-1.24,0,0,0,1.24,0,0,0"/><path class="cls-21" d="M8.57,21.31l-1.24,0a1.67,1.67,0,0,0-.79-.16l1.23,0a1.83,1.83,0,0,1,.8.17"/></g></g></g><g class="cls-2"><g class="cls-56"><g class="cls-2"><path class="cls-17" d="M7.34,21.29l-1.24,0c0-.09.21-.14.44-.14l1.23,0c-.23,0-.41.06-.43.15"/></g></g></g><g class="cls-2"><g class="cls-57"><g class="cls-2"><path class="cls-17" d="M7.91,22,6.67,22c-.4-.3-.62-.54-.57-.72l1.24,0c0,.18.17.42.57.72"/></g></g></g><g class="cls-2"><g class="cls-58"><g class="cls-2"><path class="cls-10" d="M8.69,26.39l-1.23,0a21.3,21.3,0,0,1-1.91-2l1.24,0a19.93,19.93,0,0,0,1.9,2"/></g></g></g><g class="cls-2"><g class="cls-59"><g class="cls-2"><path class="cls-10" d="M5.63,8.59l-1.24,0A15.9,15.9,0,0,1,7,5.14,11.94,11.94,0,0,1,13.45,2l1.23,0A12,12,0,0,0,8.27,5.12,15.63,15.63,0,0,0,5.63,8.59"/></g></g></g><g class="cls-2"><g class="cls-60"><g class="cls-2"><path class="cls-10" d="M4.36,12l-1.24,0A17,17,0,0,1,4.39,8.61l1.24,0A16.46,16.46,0,0,0,4.36,12"/></g></g></g><g class="cls-2"><g class="cls-61"><g class="cls-2"><path class="cls-10" d="M6.79,24.41l-1.24,0A15.17,15.17,0,0,1,3.12,12.06l1.24,0A15.13,15.13,0,0,0,6.79,24.41"/></g></g></g><path class="cls-62" d="M29.51,10.2a17.23,17.23,0,0,1,.7,8.06c-.88,6.25-5.33,11.34-10.94,12.67a14.94,14.94,0,0,1-2.86.34c-.34,0-.66,0-.94,0A14,14,0,0,1,4.86,24.75,17,17,0,0,1,4,7.89,14.38,14.38,0,0,1,12.5.58,13.34,13.34,0,0,1,16.11,0,13.11,13.11,0,0,1,24.2,2.7,15.31,15.31,0,0,1,29.51,10.2Zm-1.07,8C29.74,10.37,24.92,3.06,17.88,2a15.35,15.35,0,0,0-2-.1A8.56,8.56,0,0,0,14.68,2,12,12,0,0,0,8.27,5.12,15.63,15.63,0,0,0,5.63,8.59,16.46,16.46,0,0,0,4.36,12,15.13,15.13,0,0,0,6.79,24.41a19.93,19.93,0,0,0,1.9,2,13.06,13.06,0,0,0,3.36,2.09,2.31,2.31,0,0,0,.82.21.53.53,0,0,0,.34-.11.65.65,0,0,0,.22-.31,7.18,7.18,0,0,0,0-1.4l0-1.22h-.16a8.57,8.57,0,0,1-.88.13,3,3,0,0,1-1.89-.39,2.75,2.75,0,0,1-1.35-1.63A5,5,0,0,0,7.91,22c-.4-.3-.62-.54-.57-.72s.2-.14.43-.15a1.88,1.88,0,0,1,.84.19,3.12,3.12,0,0,1,1.18,1.19,2.58,2.58,0,0,0,1.79,1.38,1.88,1.88,0,0,0,.34,0,3.85,3.85,0,0,0,1.2-.23c.34-.12.34-.12.38-.49A2.91,2.91,0,0,1,14,21.9l.15-.25H14A8.83,8.83,0,0,1,11.64,21c-2-.82-3-2.45-3.18-5.2a6.16,6.16,0,0,1,.92-4.17c.22-.31.22-.31.1-.74A6.41,6.41,0,0,1,9.59,8l.11-.24h.38a4.42,4.42,0,0,1,2.45,1c.35.19.48.26.64.25A1.88,1.88,0,0,0,13.54,9a8.53,8.53,0,0,1,2.63-.36,7,7,0,0,1,2.55.27,4.83,4.83,0,0,0,.53.07c.14,0,.2,0,.35-.15a5.08,5.08,0,0,1,2.63-1.21h.39l.12.24A6.43,6.43,0,0,1,23,10.67c-.1.44-.1.44.18.8a6.63,6.63,0,0,1,.92,5,5.21,5.21,0,0,1-2.8,4.32,8.74,8.74,0,0,1-2.47.78h-.17l.18.24A3.14,3.14,0,0,1,19.35,23a22.48,22.48,0,0,1,.16,2.81c.11,2.45.11,2.45.27,2.63a.48.48,0,0,0,.39.16,2.25,2.25,0,0,0,.83-.25,13.57,13.57,0,0,0,7.44-10.16"/><path class="cls-63" d="M15.84,1.92a15.35,15.35,0,0,1,2,.1c7,1,11.86,8.35,10.56,16.14A13.57,13.57,0,0,1,21,28.32a2.25,2.25,0,0,1-.83.25.48.48,0,0,1-.39-.16c-.16-.18-.16-.18-.27-2.63A22.48,22.48,0,0,0,19.35,23a3.14,3.14,0,0,0-.56-1.15l-.18-.24h.17a8.74,8.74,0,0,0,2.47-.78,5.21,5.21,0,0,0,2.8-4.32,6.63,6.63,0,0,0-.92-5c-.28-.36-.28-.36-.18-.8a6.43,6.43,0,0,0-.21-2.87l-.12-.24h-.39A5.08,5.08,0,0,0,19.6,8.78c-.15.1-.21.15-.35.15a4.83,4.83,0,0,1-.53-.07,7,7,0,0,0-2.55-.27A8.53,8.53,0,0,0,13.54,9L13.17,9c-.16,0-.29-.07-.64-.26a4.42,4.42,0,0,0-2.45-1H9.7L9.59,8a6.41,6.41,0,0,0-.11,2.88c.12.43.12.43-.1.74a6.16,6.16,0,0,0-.92,4.17c.21,2.75,1.23,4.38,3.18,5.2a8.83,8.83,0,0,0,2.39.64h.16L14,21.9a2.91,2.91,0,0,0-.54,1.3c0,.37,0,.37-.38.49a3.85,3.85,0,0,1-1.2.23,1.88,1.88,0,0,1-.34,0,2.58,2.58,0,0,1-1.79-1.38,3.12,3.12,0,0,0-1.18-1.19,1.88,1.88,0,0,0-.84-.19c-.23,0-.41.06-.43.15s.17.42.57.72a5,5,0,0,1,1.24,1.75,2.75,2.75,0,0,0,1.35,1.63,3,3,0,0,0,1.89.39,8.57,8.57,0,0,0,.88-.13h.16l0,1.22a7.18,7.18,0,0,1,0,1.4.65.65,0,0,1-.22.31.53.53,0,0,1-.34.11,2.31,2.31,0,0,1-.82-.21,13.06,13.06,0,0,1-3.36-2.09,19.93,19.93,0,0,1-1.9-2A15.13,15.13,0,0,1,4.36,12,16.46,16.46,0,0,1,5.63,8.59,15.63,15.63,0,0,1,8.27,5.12,12,12,0,0,1,14.68,2,8.56,8.56,0,0,1,15.84,1.92Z"/><g class="cls-2"><g class="cls-64"><g class="cls-2"><path class="cls-29" d="M15.47,31.24l-1.24,0a13.14,13.14,0,0,1-5-1.38l1.24,0a13.06,13.06,0,0,0,5,1.39"/><path class="cls-17" d="M10.5,29.85l-1.24,0a14.79,14.79,0,0,1-5.64-5.11A17,17,0,0,1,2.78,7.91,14.32,14.32,0,0,1,11.26.61,13,13,0,0,1,14.87,0l1.24,0A13.34,13.34,0,0,0,12.5.58,14.38,14.38,0,0,0,4,7.89a17,17,0,0,0,.85,16.86,14.62,14.62,0,0,0,5.64,5.1"/></g></g></g></g></g></g></g></svg>