<svg xmlns="http://www.w3.org/2000/svg" xmlns:xlink="http://www.w3.org/1999/xlink" viewBox="0 0 149.19 308.66"><defs><style>.cls-1,.cls-17,.cls-18,.cls-22{fill:none;}.cls-2{isolation:isolate;}.cls-3{clip-path:url(#clip-path);}.cls-4{fill:#858585;}.cls-5{fill:#8a8a8a;}.cls-6{fill:#8f8f8f;}.cls-7{fill:#949494;}.cls-8{clip-path:url(#clip-path-2);}.cls-9{clip-path:url(#clip-path-3);}.cls-10{clip-path:url(#clip-path-4);}.cls-11{clip-path:url(#clip-path-5);}.cls-12{fill:#909090;}.cls-13{clip-path:url(#clip-path-6);}.cls-14{fill:#f8f8f8;}.cls-15{fill:#fff;}.cls-16{fill:#ed1c25;}.cls-17{stroke:#fff;stroke-width:4px;}.cls-17,.cls-18{stroke-linecap:round;}.cls-17,.cls-18,.cls-22{stroke-miterlimit:10;}.cls-18{stroke:#ed1846;stroke-width:2px;}.cls-19{fill:#2e3192;}.cls-20{fill:#fdffff;}.cls-21{fill:#feca4e;}.cls-22{stroke:#fcc958;stroke-width:7px;}.cls-23{fill:#969696;}.cls-24{clip-path:url(#clip-path-7);}.cls-25{clip-path:url(#clip-path-8);}.cls-26{clip-path:url(#clip-path-9);}.cls-27{clip-path:url(#clip-path-10);}.cls-28{fill:#897721;}.cls-29{clip-path:url(#clip-path-11);}.cls-30{fill:#847220;}.cls-31{clip-path:url(#clip-path-12);}.cls-32{fill:#8e7b22;}.cls-33{fill:#958224;}.cls-34{clip-path:url(#clip-path-13);}.cls-35{clip-path:url(#clip-path-14);}.cls-36{clip-path:url(#clip-path-15);}.cls-37{clip-path:url(#clip-path-16);}.cls-38{clip-path:url(#clip-path-17);}.cls-39{clip-path:url(#clip-path-18);}.cls-40{clip-path:url(#clip-path-19);}.cls-41{fill:#f9d93c;}.cls-42{clip-path:url(#clip-path-20);}.cls-43{clip-path:url(#clip-path-21);}.cls-44{clip-path:url(#clip-path-22);}.cls-45{clip-path:url(#clip-path-23);}.cls-46{clip-path:url(#clip-path-24);}.cls-47{clip-path:url(#clip-path-25);}.cls-48{clip-path:url(#clip-path-26);}.cls-49{clip-path:url(#clip-path-27);}.cls-50{clip-path:url(#clip-path-28);}.cls-51{clip-path:url(#clip-path-29);}.cls-52{clip-path:url(#clip-path-30);}.cls-53{clip-path:url(#clip-path-31);}.cls-54{clip-path:url(#clip-path-32);}.cls-55{clip-path:url(#clip-path-33);}.cls-56{clip-path:url(#clip-path-34);}.cls-57{clip-path:url(#clip-path-35);}.cls-58{clip-path:url(#clip-path-36);}.cls-59{fill:#9e9e9e;}.cls-60{clip-path:url(#clip-path-37);}.cls-61{clip-path:url(#clip-path-38);}.cls-62{clip-path:url(#clip-path-39);}.cls-63{clip-path:url(#clip-path-40);}.cls-64{fill:#9d8826;}.cls-65{clip-path:url(#clip-path-41);}.cls-66{fill:#fbfbfb;}</style><clipPath id="clip-path"><path class="cls-1" d="M90.3,280.4,61.05,269.07a17.18,17.18,0,0,0,9,.69q7.47-1.18,11.61-6a16,16,0,0,0,4.25-10.23,11,11,0,0,0-3.63-8.66,11.6,11.6,0,0,0-3.7-2.12l29.25,11.33a11.59,11.59,0,0,1,3.7,2.11,11,11,0,0,1,3.64,8.66,16,16,0,0,1-4.26,10.24q-4.14,4.77-11.61,5.95A17.3,17.3,0,0,1,90.3,280.4Z"/></clipPath><clipPath id="clip-path-2"><path class="cls-1" d="M76.38,184.18l29.25,11.33a10.07,10.07,0,0,1,2.89,1.69c2.74,2.28,4.47,6.36,5.21,12.21L84.47,198.09q-1.09-8.78-5.21-12.22A10.35,10.35,0,0,0,76.38,184.18Z"/></clipPath><clipPath id="clip-path-3"><path class="cls-1" d="M89.22,214,60,202.65a36.16,36.16,0,0,0,9.32,1.74q20.83,2,30.78,5.86l29.25,11.33q-9.93-3.86-30.77-5.86A36.71,36.71,0,0,1,89.22,214Z"/></clipPath><clipPath id="clip-path-4"><path class="cls-1" d="M99.1,159.65,128.35,171q-10.48-4-27.31-1.39L71.79,158.26Q88.62,155.59,99.1,159.65Z"/></clipPath><clipPath id="clip-path-5"><path class="cls-1" d="M67.07,306.11,37.82,294.79a23,23,0,0,1-8.52-5.54Q18.52,277.92,17.5,258L46.75,269.3q1,19.95,11.81,31.28A23,23,0,0,0,67.07,306.11Z"/></clipPath><clipPath id="clip-path-6"><path class="cls-1" d="M72.18,246.58,42.93,235.26A34.7,34.7,0,0,1,32.2,229q-9.63-8.52-9.28-24.16a45.08,45.08,0,0,1,5.49-20.2,45.68,45.68,0,0,1,15.5-16.77q10.25-6.82,27.88-9.62L101,169.58q-17.62,2.79-27.87,9.63A45.57,45.57,0,0,0,57.67,196a44.85,44.85,0,0,0-5.49,20.2q-.36,15.65,9.28,24.17A34.64,34.64,0,0,0,72.18,246.58Z"/></clipPath><clipPath id="clip-path-7"><path class="cls-1" d="M76.39,33.22l-2.4-1c1.26-.24,2.41-.44,3.48-.61l2.4,1C78.8,32.78,77.65,33,76.39,33.22Z"/></clipPath><clipPath id="clip-path-8"><path class="cls-1" d="M59.21,56.39l-2.4-1c6.78-2.53,7-2.89,7-7.21l2.4,1C66.21,53.5,66,53.86,59.21,56.39Z"/></clipPath><clipPath id="clip-path-9"><path class="cls-1" d="M66.19,35.4l-2.4-1c4.12-.94,7.43-1.65,10.2-2.18l2.4,1C73.62,33.75,70.31,34.46,66.19,35.4Z"/></clipPath><clipPath id="clip-path-10"><path class="cls-1" d="M66.18,31.88l-2.4-1c6-1.46,10.27-2.6,13.69-3.68l2.4,1C76.45,29.28,72.19,30.42,66.18,31.88Z"/></clipPath><clipPath id="clip-path-11"><path class="cls-1" d="M59.21,56.39l-2.4-1a8.2,8.2,0,0,0-1.79-4l2.4,1A8.2,8.2,0,0,1,59.21,56.39Z"/></clipPath><clipPath id="clip-path-12"><path class="cls-1" d="M57.42,52.36l-2.4-1c.77-.11,1.43-.21,2-.32,3.07-.58,3.31-1.27,3.31-3.14l2.4,1c0,1.87-.24,2.55-3.31,3.14C58.85,52.15,58.19,52.25,57.42,52.36Z"/></clipPath><clipPath id="clip-path-13"><path class="cls-1" d="M66.16,21l-2.4-1c2.49-.59,4.59-1,6.42-1.39,1.42-.27,2.66-.47,3.79-.62l2.4,1c-1.13.15-2.37.36-3.79.63C70.75,20,68.65,20.42,66.16,21Z"/></clipPath><clipPath id="clip-path-14"><path class="cls-1" d="M41.39,60.15l-2.4-1a12.14,12.14,0,0,1,2-5.33l2.4,1A12.15,12.15,0,0,0,41.39,60.15Z"/></clipPath><clipPath id="clip-path-15"><path class="cls-1" d="M48.09,40.12l-2.4-1c3.56-1.15,8.19-2.37,14.61-3.89l2.4,1C56.28,37.75,51.65,39,48.09,40.12Z"/></clipPath><clipPath id="clip-path-16"><path class="cls-1" d="M48.08,35.72l-2.4-1c1.14-.17,2.39-.39,3.76-.65,3-.56,6.48-1.33,10.85-2.37l2.4,1c-4.38,1-7.9,1.81-10.85,2.37C50.47,35.33,49.22,35.55,48.08,35.72Z"/></clipPath><clipPath id="clip-path-17"><path class="cls-1" d="M51.51,24.86l-2.4-1c2.75-.9,6.23-1.86,11.16-3l2.4,1C57.74,23,54.26,24,51.51,24.86Z"/></clipPath><clipPath id="clip-path-18"><path class="cls-1" d="M36,58.66l-2.4-1A23.74,23.74,0,0,0,39,59.16l2.4,1A22.77,22.77,0,0,1,36,58.66Z"/></clipPath><clipPath id="clip-path-19"><path class="cls-1" d="M51.5,20.51l-2.4-1c1.21-.16,2.53-.38,4-.67,2.28-.43,5-1,8.34-1.82C67.09,15.7,71,14.64,74,13.63l2.4,1c-3,1-6.87,2.07-12.47,3.39-3.36.8-6.06,1.39-8.34,1.82C54,20.13,52.71,20.35,51.5,20.51Z"/></clipPath><clipPath id="clip-path-20"><path class="cls-1" d="M35.28,53.85l-2.4-1a16.82,16.82,0,0,0,8.15,1l2.4,1A16.82,16.82,0,0,1,35.28,53.85Z"/></clipPath><clipPath id="clip-path-21"><path class="cls-1" d="M28.31,46.87l-2.4-1c4.45-1.06,7.08-1.63,9.39-2.07,1.5-.28,2.87-.51,4.52-.78l2.4,1c-1.65.27-3,.5-4.52.78C35.39,45.24,32.76,45.81,28.31,46.87Z"/></clipPath><clipPath id="clip-path-22"><path class="cls-1" d="M35.28,53.85l-2.4-1a13.59,13.59,0,0,1-7-7l2.4,1A13.59,13.59,0,0,0,35.28,53.85Z"/></clipPath><clipPath id="clip-path-23"><path class="cls-1" d="M36,58.66l-2.4-1a14.22,14.22,0,0,1-8.79-9.6l2.39,1A14.22,14.22,0,0,0,36,58.66Z"/></clipPath><clipPath id="clip-path-24"><path class="cls-1" d="M28.05,43.85l-2.4-1c7.53-1.79,9.94-2.44,14.16-3.75l2.4,1C38,41.41,35.58,42.06,28.05,43.85Z"/></clipPath><clipPath id="clip-path-25"><path class="cls-1" d="M34.16,22.44l2.4,1a1.11,1.11,0,0,0-.38-.06l-2.4-1A1.11,1.11,0,0,1,34.16,22.44Z"/></clipPath><clipPath id="clip-path-26"><path class="cls-1" d="M31.93,31.34l-2.4-1c4.15-1,6.12-1.57,9.12-2.54l2.4,1C38.05,29.77,36.08,30.32,31.93,31.34Z"/></clipPath><clipPath id="clip-path-27"><path class="cls-1" d="M34.16,22.44l2.4,1c.26.11.13.39-.56,1.09a37.46,37.46,0,0,0-4.07,6.81l-2.4-1a37.46,37.46,0,0,1,4.07-6.81C34.29,22.83,34.42,22.55,34.16,22.44Z"/></clipPath><clipPath id="clip-path-28"><path class="cls-1" d="M28.33,35.36l-2.4-1c4.19-1,6.6-1.53,8.71-1.93,1.34-.26,2.55-.46,4-.68l2.4,1c-1.46.22-2.67.42-4,.67C34.93,33.84,32.52,34.37,28.33,35.36Z"/></clipPath><clipPath id="clip-path-29"><path class="cls-1" d="M28.05,43.85l-2.4-1a61.21,61.21,0,0,0,.28-8.48l2.4,1A61.3,61.3,0,0,1,28.05,43.85Z"/></clipPath><clipPath id="clip-path-30"><path class="cls-1" d="M32.8,22.24l-2.39-1a21.17,21.17,0,0,0,3.37,1.14l2.4,1A21.54,21.54,0,0,1,32.8,22.24Z"/></clipPath><clipPath id="clip-path-31"><path class="cls-1" d="M13.51,67.63l-2.4-1c8.22-6.84,12.08-12.11,13.66-18.56l2.39,1C25.58,55.52,21.73,60.79,13.51,67.63Z"/></clipPath><clipPath id="clip-path-32"><path class="cls-1" d="M28.7,32.11l-2.4-1A54.22,54.22,0,0,0,29.89,21l2.4,1A54.22,54.22,0,0,1,28.7,32.11Z"/></clipPath><clipPath id="clip-path-33"><path class="cls-1" d="M24.71,44.63l-2.4-1a63.27,63.27,0,0,0,.29-8.49l2.4,1A63.06,63.06,0,0,1,24.71,44.63Z"/></clipPath><clipPath id="clip-path-34"><path class="cls-1" d="M10.49,64.5l-2.4-1c6.9-3.64,12.57-9.83,13.82-16.69l2.4,1C23.06,54.67,17.39,60.85,10.49,64.5Z"/></clipPath><clipPath id="clip-path-35"><path class="cls-1" d="M13.51,67.63l-2.4-1a8.37,8.37,0,0,0-3-3.13l2.4,1A8.3,8.3,0,0,1,13.51,67.63Z"/></clipPath><clipPath id="clip-path-36"><path class="cls-1" d="M13.45,35.31l-2.4-1c1.15-.19,2.25-.39,3.4-.61,3-.57,6.36-1.3,11.85-2.59l2.4,1c-5.49,1.29-8.85,2-11.85,2.59C15.7,34.92,14.6,35.12,13.45,35.31Z"/></clipPath><clipPath id="clip-path-37"><path class="cls-1" d="M11.78,51.21l-2.4-1c3.82-1.16,7-2.06,12.53-3.4l2.4,1C18.82,49.15,15.6,50.05,11.78,51.21Z"/></clipPath><clipPath id="clip-path-38"><path class="cls-1" d="M25.13,30.13l-2.4-1a50.16,50.16,0,0,1-4-4.91l2.4,1A50.16,50.16,0,0,0,25.13,30.13Z"/></clipPath><clipPath id="clip-path-39"><path class="cls-1" d="M11.77,47.29l-2.4-1,3-.57c2.8-.53,5.67-1.12,9.91-2.09l2.4,1c-4.24,1-7.11,1.57-9.91,2.1C13.8,46.92,12.81,47.11,11.77,47.29Z"/></clipPath><clipPath id="clip-path-40"><path class="cls-1" d="M22,33.25l-2.4-1a20,20,0,0,0-3.73-5.19l2.4,1A20,20,0,0,1,22,33.25Z"/></clipPath><clipPath id="clip-path-41"><path class="cls-1" d="M13.46,39.27l-2.4-1c3.3-1,6.12-1.79,11.54-3.12l2.4,1C19.58,37.47,16.76,38.23,13.46,39.27Z"/></clipPath></defs><title>资源 9</title><g id="图层_2" data-name="图层 2"><g id="S"><g class="cls-2"><g class="cls-2"><g class="cls-3"><g class="cls-2"><path class="cls-4" d="M90.3,280.4,61.05,269.07a16.19,16.19,0,0,0,7.29.9l29.25,11.32a16.19,16.19,0,0,1-7.29-.89"/><path class="cls-5" d="M97.59,281.29,68.34,270c.55-.05,1.12-.12,1.7-.21a23.53,23.53,0,0,0,5.12-1.39l29.26,11.32a23.22,23.22,0,0,1-5.13,1.39c-.58.09-1.14.16-1.7.21"/><path class="cls-6" d="M104.42,279.69,75.16,268.37A17.44,17.44,0,0,0,79.3,266l29.25,11.32a17.37,17.37,0,0,1-4.13,2.35"/><path class="cls-7" d="M108.55,277.34,79.3,266a17.54,17.54,0,0,0,6.52-11.15l29.25,11.33a17.43,17.43,0,0,1-6.52,11.14"/><path class="cls-6" d="M115.07,266.2,85.82,254.87c0-.43.07-.86.08-1.3a11.62,11.62,0,0,0-.09-1.88L115.07,263a14.53,14.53,0,0,1,.09,1.88c0,.44,0,.87-.09,1.31"/><path class="cls-5" d="M115.07,263,85.81,251.69a11.08,11.08,0,0,0-.69-2.72l29.25,11.32a11.21,11.21,0,0,1,.7,2.72"/><path class="cls-4" d="M114.37,260.29,85.12,249a11.38,11.38,0,0,0-2.85-4.06,11.6,11.6,0,0,0-3.7-2.12l29.25,11.33a11.59,11.59,0,0,1,3.7,2.11,11.14,11.14,0,0,1,2.85,4.06"/></g></g></g><g class="cls-2"><g class="cls-8"><g class="cls-2"><path class="cls-5" d="M113.73,209.41,84.47,198.09a28.31,28.31,0,0,0-1.7-7.07L112,202.34a28.76,28.76,0,0,1,1.7,7.07"/><path class="cls-4" d="M112,202.34,82.77,191a12.51,12.51,0,0,0-3.51-5.15,10.35,10.35,0,0,0-2.88-1.69l29.25,11.33a10.07,10.07,0,0,1,2.89,1.69,12.66,12.66,0,0,1,3.51,5.14"/></g></g></g><g class="cls-2"><g class="cls-9"><g class="cls-2"><path class="cls-4" d="M89.22,214,60,202.65a36.16,36.16,0,0,0,9.32,1.74q20.83,2,30.78,5.86l29.25,11.33q-9.93-3.86-30.77-5.86A36.71,36.71,0,0,1,89.22,214"/></g></g></g><g class="cls-2"><g class="cls-10"><g class="cls-2"><path class="cls-5" d="M101,169.58,71.79,158.26c2.22-.35,4.35-.62,6.4-.79l29.26,11.32q-3.08.27-6.41.79"/><path class="cls-4" d="M107.45,168.79,78.19,157.47q12.5-1.08,20.91,2.18L128.35,171q-8.41-3.25-20.9-2.18"/></g></g></g><g class="cls-2"><g class="cls-11"><g class="cls-2"><path class="cls-4" d="M67.07,306.11,37.82,294.79a23,23,0,0,1-8.52-5.54,39.46,39.46,0,0,1-8-12.61L50.55,288a39.17,39.17,0,0,0,8,12.62,23,23,0,0,0,8.51,5.53"/><path class="cls-5" d="M50.55,288,21.29,276.64A53.81,53.81,0,0,1,18,263.25l29.25,11.32A53.7,53.7,0,0,0,50.55,288"/><path class="cls-6" d="M47.21,274.57,18,263.25c-.22-1.71-.37-3.46-.46-5.28L46.75,269.3c.09,1.81.25,3.57.46,5.27"/></g></g></g><polygon class="cls-12" points="46.75 269.3 17.5 257.97 50.75 250.26 80.01 261.59 46.75 269.3"/><g class="cls-2"><g class="cls-13"><g class="cls-2"><path class="cls-4" d="M72.18,246.58,42.93,235.26A34.7,34.7,0,0,1,32.2,229a26,26,0,0,1-7-9.91l29.25,11.33a26,26,0,0,0,7,9.91,34.64,34.64,0,0,0,10.72,6.24"/><path class="cls-5" d="M54.47,230.43,25.22,219.1a32,32,0,0,1-2-7.93l29.26,11.32a32.19,32.19,0,0,0,2,7.94"/><path class="cls-6" d="M52.48,222.49,23.22,211.17a43.13,43.13,0,0,1-.3-6.32c0-1.25.12-2.5.26-3.75l29.25,11.32c-.14,1.25-.22,2.5-.25,3.75a43.13,43.13,0,0,0,.3,6.32"/><path class="cls-7" d="M52.43,212.42,23.18,201.1a45.88,45.88,0,0,1,5.23-16.45,44.57,44.57,0,0,1,12.46-14.59l29.26,11.32A44.67,44.67,0,0,0,57.67,196a46,46,0,0,0-5.24,16.45"/><path class="cls-6" d="M70.13,181.38,40.87,170.06c1-.75,2-1.48,3-2.18a50,50,0,0,1,8.85-4.61L82,174.6a48.59,48.59,0,0,0-8.84,4.61c-1.06.7-2.07,1.42-3,2.17"/><path class="cls-5" d="M82,174.6,52.76,163.27a86.78,86.78,0,0,1,19-5L101,169.58a87.48,87.48,0,0,0-19,5"/></g></g></g><path class="cls-14" d="M101,169.58q21.64-3.42,32.8,4.27t12.83,28.08l-32.94,7.48c-.74-5.85-2.47-9.93-5.21-12.21s-6.57-3-11.5-2.26c-4,.65-7.14,2.15-9.23,4.5a12.05,12.05,0,0,0-3.26,7.9A6.55,6.55,0,0,0,87,212.66q2.4,2.25,11.6,3.06,22.74,2.19,32.5,6.57t14.07,12.5q4.31,8.1,4.06,19a54.44,54.44,0,0,1-6.54,24.58,51.71,51.71,0,0,1-17.17,19.07q-10.9,7.31-27.31,9.9-28.81,4.56-39.6-6.77T46.75,269.3L80,261.59q.87,9.36,4.06,13.84,5.21,7.24,15.22,5.65,7.47-1.18,11.61-5.95a16,16,0,0,0,4.26-10.24,11,11,0,0,0-3.64-8.66q-3.76-3.48-17.7-4.89-22.8-2.46-32.36-11t-9.28-24.17A44.85,44.85,0,0,1,57.67,196a45.57,45.57,0,0,1,15.5-16.76Q83.4,172.37,101,169.58Z"/></g><g id="people"><rect class="cls-15" x="69.25" y="95.58" width="6.66" height="9.15" transform="translate(145.16 200.31) rotate(-180)"/><ellipse class="cls-15" cx="71.47" cy="93.29" rx="7.77" ry="8.01"/><path class="cls-16" d="M61.48,92.26a9.83,9.83,0,0,0,8.16,9c5.2.92,3.06-11,8.15-13,3-1.17,1-5-3.05-4,0,0-3.06-2-6.12-1C64.08,84.76,61.48,87.58,61.48,92.26Z"/><ellipse class="cls-15" cx="73.13" cy="95.58" rx="1.12" ry="1.7" transform="translate(-41.16 57.87) rotate(-34.32)"/><path class="cls-17" d="M74.8,106.45c3.33,0,8.87-2.29,15.53,1.14"/><line id="Pole" class="cls-18" x1="91.11" y1="1" x2="91.11" y2="120.38"/><path class="cls-17" d="M74.66,107c4,6.9,5.76,10.09,11.23,9.74,2.28-.15,7.85-2.64,6.66-5.72"/><path class="cls-19" d="M79.79,125.89c3.33,2.47,6.66,22.21,6.66,35,0,1.39-2.11.77-3.33,1,0,0-5.55-25.16-10-25.16-2.22,0-4.43,8-3.88,25.16H65.92s-6.65-28.62-1.11-35.53"/><path class="cls-20" d="M89.09,165.13l-6.25-.91a.5.5,0,0,1-.4-.58l.15-1.08A1.33,1.33,0,0,1,84,161.35l.55.08c1.59.23,3.54.77,4.4,1.66a2.39,2.39,0,0,1,.65,1.48A.5.5,0,0,1,89.09,165.13Z"/><path class="cls-20" d="M72.76,164.52l-6.31.34a.5.5,0,0,1-.5-.49l0-1.1a1.35,1.35,0,0,1,1.2-1.47l.56,0c1.6-.08,3.61.06,4.62.77a2.34,2.34,0,0,1,.91,1.32A.5.5,0,0,1,72.76,164.52Z"/><path class="cls-21" d="M63.7,126.46c.66,3.36,16.64,1.41,16.64-1.14,0-3.43-1.89-6.06-2.21-8-.8-4.81-.56-1.14-.56-1.14l3.33,2.28s3.26-3.5,2.22-4.57-6.66-10.62-8.88-11.44a13,13,0,0,0-7.42,0C60.37,104.73,62.59,120.74,63.7,126.46Z"/><path class="cls-22" d="M70.91,110.45c0-2.29,1.59-6.73,9.69-4.47"/></g><g id="关于"><g class="cls-2"><polygon class="cls-23" points="79.87 32.61 77.47 31.61 77.47 27.2 79.86 28.2 79.87 32.61"/><g class="cls-2"><g class="cls-24"><g class="cls-2"><path class="cls-5" d="M76.39,33.22l-2.4-1c1.26-.24,2.41-.44,3.48-.61l2.4,1c-1.07.17-2.22.37-3.48.61"/></g></g></g><g class="cls-2"><g class="cls-25"><g class="cls-2"><path class="cls-5" d="M59.21,56.39l-2.4-1a40.7,40.7,0,0,0,4.72-2l2.4,1a40.7,40.7,0,0,1-4.72,2"/><path class="cls-6" d="M63.93,54.42l-2.4-1a3.51,3.51,0,0,0,2.18-2.9l2.4,1a3.53,3.53,0,0,1-2.18,2.9"/><path class="cls-5" d="M66.11,51.52l-2.4-1a17.49,17.49,0,0,0,.1-2.34l2.4,1a17.58,17.58,0,0,1-.1,2.34"/></g></g></g><polygon class="cls-23" points="76.37 19 73.97 18 73.96 13.63 76.36 14.63 76.37 19"/><g class="cls-2"><g class="cls-26"><g class="cls-2"><path class="cls-5" d="M66.19,35.4l-2.4-1c4.12-.94,7.43-1.65,10.2-2.18l2.4,1c-2.77.53-6.08,1.24-10.2,2.18"/></g></g></g><polygon class="cls-23" points="66.2 49.18 63.81 48.18 63.79 34.4 66.19 35.4 66.2 49.18"/><g class="cls-2"><g class="cls-27"><g class="cls-2"><path class="cls-28" d="M66.18,31.88l-2.4-1c6-1.46,10.27-2.6,13.69-3.68l2.4,1c-3.42,1.08-7.68,2.22-13.69,3.68"/></g></g></g><g class="cls-2"><g class="cls-29"><g class="cls-2"><path class="cls-28" d="M59.21,56.39l-2.4-1v-.07l2.4,1v.07"/><path class="cls-30" d="M59.2,56.32l-2.4-1a8.08,8.08,0,0,0-1.78-4l2.4,1a8.08,8.08,0,0,1,1.78,4"/></g></g></g><g class="cls-2"><g class="cls-31"><g class="cls-2"><path class="cls-28" d="M57.42,52.36l-2.4-1c.77-.11,1.43-.21,2-.32a8.08,8.08,0,0,0,2.28-.69l2.4,1a8.08,8.08,0,0,1-2.28.69c-.56.11-1.22.21-2,.32"/><path class="cls-32" d="M61.69,51.35l-2.4-1a1.75,1.75,0,0,0,1-1.45l2.4,1a1.75,1.75,0,0,1-1,1.45"/><path class="cls-28" d="M62.67,49.9l-2.4-1a7.49,7.49,0,0,0,0-1l2.4,1a7.49,7.49,0,0,1,0,1"/></g></g></g><polygon class="cls-33" points="62.72 48.9 60.32 47.9 60.3 35.23 62.7 36.23 62.72 48.9"/><g class="cls-2"><g class="cls-34"><g class="cls-2"><path class="cls-5" d="M66.16,21l-2.4-1c2.49-.59,4.59-1,6.42-1.39,1.42-.27,2.66-.47,3.79-.62l2.4,1c-1.13.15-2.37.36-3.79.63-1.83.35-3.93.8-6.42,1.39"/></g></g></g><polygon class="cls-23" points="66.18 31.88 63.78 30.89 63.76 20.01 66.16 21 66.18 31.88"/><polygon class="cls-33" points="62.69 32.7 60.29 31.7 60.27 20.83 62.67 21.83 62.69 32.7"/><g class="cls-2"><g class="cls-35"><g class="cls-2"><path class="cls-6" d="M41.39,60.15l-2.4-1a12.14,12.14,0,0,1,2-5.33l2.4,1a12.15,12.15,0,0,0-2,5.32"/></g></g></g><g class="cls-2"><g class="cls-36"><g class="cls-2"><path class="cls-5" d="M48.09,40.12l-2.4-1c3.56-1.15,8.19-2.37,14.61-3.89l2.4,1C56.28,37.75,51.65,39,48.09,40.12"/></g></g></g><g class="cls-2"><g class="cls-37"><g class="cls-2"><path class="cls-28" d="M48.08,35.72l-2.4-1c1.14-.17,2.39-.39,3.76-.65,3-.56,6.48-1.33,10.85-2.37l2.4,1c-4.38,1-7.9,1.81-10.85,2.37-1.37.26-2.62.48-3.76.65"/></g></g></g><polygon class="cls-33" points="48.09 40.12 45.69 39.12 45.68 34.72 48.08 35.72 48.09 40.12"/><g class="cls-2"><g class="cls-38"><g class="cls-2"><path class="cls-5" d="M51.51,24.86l-2.4-1c2.75-.9,6.23-1.86,11.16-3l2.4,1c-4.93,1.17-8.41,2.12-11.16,3"/></g></g></g><g class="cls-2"><g class="cls-39"><g class="cls-2"><path class="cls-4" d="M36,58.66l-2.4-1A23.74,23.74,0,0,0,39,59.16l2.4,1A22.77,22.77,0,0,1,36,58.66"/></g></g></g><g class="cls-2"><g class="cls-40"><g class="cls-2"><path class="cls-28" d="M51.5,20.51l-2.4-1c1.21-.16,2.53-.38,4-.67,2.28-.43,5-1,8.34-1.82C67.09,15.7,71,14.64,74,13.63l2.4,1c-3,1-6.87,2.07-12.47,3.39-3.36.8-6.06,1.39-8.34,1.82-1.52.29-2.84.51-4,.67"/></g></g></g><path class="cls-41" d="M76.36,14.63V19c-1.13.15-2.37.36-3.79.63-1.83.35-3.93.8-6.42,1.39l0,10.87c6-1.46,10.27-2.6,13.69-3.68v4.41c-1.07.17-2.22.37-3.48.61-2.77.53-6.08,1.24-10.2,2.18l0,13.78c0,4.32-.22,4.68-7,7.21a8.2,8.2,0,0,0-1.79-4c.77-.11,1.43-.21,2-.32,3.07-.59,3.31-1.27,3.31-3.14l0-12.67C56.28,37.75,51.65,39,48.09,40.12v-4.4c1.14-.17,2.39-.39,3.76-.65,2.95-.56,6.47-1.33,10.85-2.37l0-10.87c-4.93,1.17-8.41,2.12-11.16,3V20.51c1.21-.16,2.53-.38,4-.67,2.28-.43,5-1,8.34-1.82C69.49,16.7,73.39,15.64,76.36,14.63Z"/><polygon class="cls-33" points="51.51 24.86 49.11 23.86 49.1 19.51 51.5 20.51 51.51 24.86"/><polygon class="cls-23" points="42.22 44.02 39.82 43.02 39.81 39.1 42.21 40.1 42.22 44.02"/><g class="cls-2"><g class="cls-42"><g class="cls-2"><path class="cls-30" d="M35.28,53.85l-2.4-1a16.82,16.82,0,0,0,8.15,1l2.4,1a16.82,16.82,0,0,1-8.15-1"/></g></g></g><polygon class="cls-23" points="41.05 32.76 38.65 31.76 38.65 27.8 41.05 28.8 41.05 32.76"/><g class="cls-2"><g class="cls-43"><g class="cls-2"><path class="cls-5" d="M28.31,46.87l-2.4-1c4.45-1.06,7.08-1.63,9.39-2.07,1.5-.28,2.87-.51,4.52-.78l2.4,1c-1.65.27-3,.5-4.52.78-2.31.44-4.94,1-9.39,2.07"/></g></g></g><g class="cls-2"><g class="cls-44"><g class="cls-2"><path class="cls-4" d="M35.28,53.85l-2.4-1a13.59,13.59,0,0,1-7-7l2.4,1a13.59,13.59,0,0,0,7,7"/></g></g></g><g class="cls-2"><g class="cls-45"><g class="cls-2"><path class="cls-30" d="M36,58.66l-2.4-1a14.22,14.22,0,0,1-8.79-9.6l2.39,1A14.22,14.22,0,0,0,36,58.66"/></g></g></g><g class="cls-2"><g class="cls-46"><g class="cls-2"><path class="cls-28" d="M28.05,43.85l-2.4-1c7.53-1.79,9.94-2.44,14.16-3.75l2.4,1c-4.22,1.31-6.63,2-14.16,3.75"/></g></g></g><g class="cls-2"><g class="cls-47"><g class="cls-2"><path class="cls-30" d="M36.18,23.38l-2.4-1a1.11,1.11,0,0,1,.38.06l2.4,1a1.11,1.11,0,0,0-.38-.06"/></g></g></g><g class="cls-2"><g class="cls-48"><g class="cls-2"><path class="cls-28" d="M31.93,31.34l-2.4-1c4.15-1,6.12-1.57,9.12-2.54l2.4,1c-3,1-5,1.52-9.12,2.54"/></g></g></g><g class="cls-2"><g class="cls-49"><g class="cls-2"><path class="cls-6" d="M31.93,31.34l-2.4-1a37.46,37.46,0,0,1,4.07-6.81c.45-.45.66-.73.68-.9l2.4,1c0,.17-.23.45-.68.9a37.46,37.46,0,0,0-4.07,6.81"/><path class="cls-5" d="M36.68,23.63l-2.4-1a.13.13,0,0,0,0-.06l2.39,1a.06.06,0,0,1,0,.06"/><path class="cls-4" d="M36.68,23.57l-2.39-1c0-.06-.06-.1-.13-.13l2.4,1a.17.17,0,0,1,.12.13"/></g></g></g><g class="cls-2"><g class="cls-50"><g class="cls-2"><path class="cls-5" d="M28.33,35.36l-2.4-1c4.19-1,6.6-1.53,8.71-1.93,1.34-.26,2.55-.46,4-.68l2.4,1c-1.46.22-2.67.42-4,.67-2.11.41-4.52.94-8.71,1.93"/></g></g></g><g class="cls-2"><g class="cls-51"><g class="cls-2"><path class="cls-5" d="M28.05,43.85l-2.4-1a61.21,61.21,0,0,0,.28-8.48l2.4,1a61.3,61.3,0,0,1-.28,8.49"/></g></g></g><g class="cls-2"><g class="cls-52"><g class="cls-2"><path class="cls-30" d="M32.8,22.24l-2.39-1a21.17,21.17,0,0,0,3.37,1.14l2.4,1a21.54,21.54,0,0,1-3.38-1.14"/></g></g></g><g class="cls-2"><g class="cls-53"><g class="cls-2"><path class="cls-6" d="M13.51,67.63l-2.4-1c8.22-6.84,12.08-12.11,13.66-18.56l2.39,1c-1.58,6.45-5.43,11.72-13.65,18.56"/></g></g></g><g class="cls-2"><g class="cls-54"><g class="cls-2"><path class="cls-32" d="M28.7,32.11l-2.4-1A54.22,54.22,0,0,0,29.89,21l2.4,1a54.22,54.22,0,0,1-3.59,10.1"/></g></g></g><g class="cls-2"><g class="cls-55"><g class="cls-2"><path class="cls-28" d="M24.71,44.63l-2.4-1a63.27,63.27,0,0,0,.29-8.49l2.4,1a63.06,63.06,0,0,1-.29,8.48"/></g></g></g><g class="cls-2"><g class="cls-56"><g class="cls-2"><path class="cls-28" d="M10.49,64.5l-2.4-1,.51-.27,2.4,1-.51.27"/><path class="cls-32" d="M11,64.23l-2.4-1c6.67-3.68,12.09-9.73,13.31-16.42l2.4,1C23.09,54.5,17.67,60.55,11,64.23"/></g></g></g><g class="cls-2"><g class="cls-57"><g class="cls-2"><path class="cls-30" d="M13.51,67.63l-2.4-1a8.37,8.37,0,0,0-3-3.13l2.4,1a8.3,8.3,0,0,1,3,3.13"/></g></g></g><g class="cls-2"><g class="cls-58"><g class="cls-2"><path class="cls-28" d="M13.45,35.31l-2.4-1c1.15-.19,2.25-.39,3.4-.61,3-.57,6.36-1.3,11.85-2.59l2.4,1c-5.49,1.29-8.85,2-11.85,2.59-1.15.22-2.25.42-3.4.61"/></g></g></g><polygon class="cls-59" points="21.99 33.25 19.59 32.25 22.73 29.13 25.13 30.13 21.99 33.25"/><g class="cls-2"><g class="cls-60"><g class="cls-2"><path class="cls-5" d="M11.78,51.21l-2.4-1c3.82-1.16,7-2.06,12.53-3.4l2.4,1c-5.49,1.34-8.71,2.24-12.53,3.4"/></g></g></g><g class="cls-2"><g class="cls-61"><g class="cls-2"><path class="cls-4" d="M25.13,30.13l-2.4-1a50.16,50.16,0,0,1-4-4.91l2.4,1a50.16,50.16,0,0,0,4,4.91"/></g></g></g><g class="cls-2"><g class="cls-62"><g class="cls-2"><path class="cls-28" d="M11.77,47.29l-2.4-1,3-.57c2.8-.53,5.67-1.12,9.91-2.09l2.4,1c-4.24,1-7.11,1.57-9.91,2.1-1,.19-2,.38-3,.56"/></g></g></g><polygon class="cls-33" points="11.78 51.21 9.38 50.21 9.37 46.3 11.77 47.3 11.78 51.21"/><path class="cls-41" d="M22,33.25a20,20,0,0,0-3.73-5.19l2.86-2.84a50.16,50.16,0,0,0,4,4.91Z"/><g class="cls-2"><g class="cls-63"><g class="cls-2"><path class="cls-30" d="M22,33.25l-2.4-1a20,20,0,0,0-3.73-5.19l2.4,1A20,20,0,0,1,22,33.25"/></g></g></g><polygon class="cls-64" points="18.26 28.06 15.86 27.06 18.72 24.22 21.12 25.22 18.26 28.06"/><g class="cls-2"><g class="cls-65"><g class="cls-2"><path class="cls-5" d="M13.46,39.27l-2.4-1c3.3-1,6.12-1.79,11.54-3.12l2.4,1c-5.42,1.32-8.24,2.08-11.54,3.12"/></g></g></g><polygon class="cls-33" points="13.46 39.27 11.06 38.27 11.05 34.31 13.45 35.31 13.46 39.27"/><path class="cls-66" d="M88.58,1.83l.1,57L2.49,79.18l-.09-57ZM41.39,60.15a12.15,12.15,0,0,1,2-5.32c-6.61.63-11.91-1.41-15.12-8,4.45-1.06,7.08-1.63,9.39-2.07,1.5-.28,2.87-.51,4.52-.78V40.1c-4.22,1.31-6.63,2-14.16,3.75a61.3,61.3,0,0,0,.28-8.49c4.19-1,6.6-1.52,8.71-1.93,1.34-.25,2.55-.45,4-.67v-4c-3,1-5,1.52-9.12,2.54A37.46,37.46,0,0,1,36,24.53c.92-.93.85-1.13.18-1.15A22.34,22.34,0,0,1,32.29,22a54.22,54.22,0,0,1-3.59,10.1c-5.49,1.29-8.85,2-11.85,2.59-1.15.22-2.25.42-3.4.61v4c3.3-1,6.12-1.8,11.54-3.12a63.06,63.06,0,0,1-.29,8.48c-4.24,1-7.11,1.57-9.91,2.1-1,.19-2,.38-3,.56v3.92c3.82-1.16,7-2.06,12.53-3.4-1.25,6.86-6.92,13-13.82,16.69a8.3,8.3,0,0,1,3,3.13c8.22-6.84,12.07-12.11,13.65-18.56,1.76,6.59,7.48,10,14.23,11.08m35-26.93c1.26-.24,2.41-.44,3.48-.61V28.2c-3.42,1.08-7.68,2.22-13.69,3.68l0-10.87c2.49-.59,4.59-1,6.42-1.39,1.42-.27,2.66-.48,3.79-.63V14.63c-3,1-6.87,2.07-12.47,3.39-3.36.8-6.06,1.39-8.34,1.82-1.52.29-2.84.51-4,.67v4.35c2.75-.91,6.23-1.86,11.16-3l0,10.87c-4.38,1-7.9,1.81-10.85,2.37-1.37.26-2.62.48-3.76.65v4.4c3.56-1.15,8.19-2.37,14.61-3.89l0,12.67c0,1.87-.24,2.55-3.31,3.14-.56.11-1.22.21-2,.32a8.2,8.2,0,0,1,1.79,4c6.78-2.53,7-2.89,7-7.21l0-13.78c4.12-.94,7.43-1.65,10.2-2.18m-55.27-8-2.86,2.84A20,20,0,0,1,22,33.25l3.14-3.12a50.16,50.16,0,0,1-4-4.91"/><path class="cls-41" d="M28.31,46.87c3.21,6.55,8.51,8.59,15.12,8a12.15,12.15,0,0,0-2,5.32c-6.75-1-12.47-4.49-14.23-11.08-1.58,6.45-5.43,11.72-13.65,18.56a8.3,8.3,0,0,0-3-3.13c6.9-3.65,12.57-9.83,13.82-16.69-5.49,1.34-8.71,2.24-12.53,3.4V47.29c1-.18,2-.37,3-.56,2.8-.53,5.67-1.12,9.91-2.1A63.06,63.06,0,0,0,25,36.15c-5.42,1.32-8.24,2.08-11.54,3.12v-4c1.15-.19,2.25-.39,3.4-.61,3-.57,6.36-1.3,11.85-2.59A54.22,54.22,0,0,0,32.29,22a22.34,22.34,0,0,0,3.89,1.37c.67,0,.74.22-.18,1.15a37.46,37.46,0,0,0-4.07,6.81c4.15-1,6.12-1.57,9.12-2.54v4c-1.46.22-2.67.42-4,.67-2.11.41-4.52.94-8.71,1.93a61.3,61.3,0,0,1-.28,8.49c7.53-1.79,9.94-2.44,14.16-3.75V44c-1.65.27-3,.5-4.52.78C35.39,45.24,32.76,45.81,28.31,46.87Z"/><polygon class="cls-6" points="2.4 22.2 0 21.2 86.19 0.83 88.58 1.82 2.4 22.2"/><polygon class="cls-23" points="2.48 79.18 0.09 78.18 0 21.2 2.4 22.2 2.48 79.18"/></g></g></g></g></svg>