<?xml version="1.0" encoding="UTF-8"?>
<svg width="186px" height="43px" viewBox="0 0 186 43" version="1.1" xmlns="http://www.w3.org/2000/svg" xmlns:xlink="http://www.w3.org/1999/xlink">
    <!-- Generator: Sketch 49.3 (51167) - http://www.bohemiancoding.com/sketch -->
    <title>codes</title>
    <desc>Created with Sketch.</desc>
    <defs>
        <linearGradient x1="90.405446%" y1="91.897445%" x2="50%" y2="8.10449151%" id="linearGradient-1">
            <stop stop-color="#CA6CA3" offset="0%"></stop>
            <stop stop-color="#ED5E87" offset="100%"></stop>
        </linearGradient>
        <linearGradient x1="67.2745454%" y1="100%" x2="22.670952%" y2="0%" id="linearGradient-2">
            <stop stop-color="#8176CC" offset="0%"></stop>
            <stop stop-color="#8C63B6" offset="100%"></stop>
        </linearGradient>
        <linearGradient x1="45.8809674%" y1="100%" x2="50%" y2="0%" id="linearGradient-3">
            <stop stop-color="#6AE2B8" offset="0%"></stop>
            <stop stop-color="#6AD8CC" offset="56.119039%"></stop>
            <stop stop-color="#6AD0DC" offset="100%"></stop>
        </linearGradient>
    </defs>
    <g id="Welcome" stroke="none" stroke-width="1" fill="none" fill-rule="evenodd">
        <g id="Desktop" transform="translate(-859.000000, -632.000000)">
            <g id="Group" transform="translate(848.000000, 552.000000)">
                <g id="codes" transform="translate(11.000000, 80.000000)">
                    <g id="O-Copy" transform="translate(46.283048, 0.000000)">
                        <path d="M19.6702955,41.7714286 C8.80669127,41.7714286 0,32.4205758 0,20.8857143 C0,9.3508528 8.80669127,0 19.6702955,0 C30.5338997,0 39.340591,9.3508528 39.340591,20.8857143 C39.340591,32.4205758 30.5338997,41.7714286 19.6702955,41.7714286 Z M19.6702955,30.4071429 C24.6228209,30.4071429 28.6376361,26.1442541 28.6376361,20.8857143 C28.6376361,15.6271745 24.6228209,11.3642857 19.6702955,11.3642857 C14.71777,11.3642857 10.7029549,15.6271745 10.7029549,20.8857143 C10.7029549,26.1442541 14.71777,30.4071429 19.6702955,30.4071429 Z" id="Combined-Shape" fill="#EED04D"></path>
                        <ellipse id="Oval-Copy-2" fill="#3A4E6E" cx="19.6702955" cy="20.8857143" rx="8.96734059" ry="9.52142857"></ellipse>
                    </g>
                    <g id="C">
                        <ellipse id="Oval-Copy-3" fill="#3A4E6E" cx="19.6702955" cy="20.8857143" rx="8.96734059" ry="9.52142857"></ellipse>
                        <path d="M34.9885351,7.7822356 L27.1457746,15.6249961 C25.5396217,13.05704 22.7911367,11.3642857 19.6702955,11.3642857 C14.71777,11.3642857 10.7029549,15.6271745 10.7029549,20.8857143 C10.7029549,26.1442541 14.71777,30.4071429 19.6702955,30.4071429 C23.0197547,30.4071429 25.9403055,28.4572984 27.4800589,25.5683152 L35.3751504,33.4634067 C31.784517,38.5100015 26.0861153,41.7714286 19.6702955,41.7714286 C8.80669127,41.7714286 0,32.4205758 0,20.8857143 C0,9.3508528 8.80669127,0 19.6702955,0 C25.8604672,0 31.3827973,3.03604872 34.9885351,7.7822356 Z" id="Combined-Shape" fill="url(#linearGradient-1)"></path>
                    </g>
                    <g id="D-Copy" transform="translate(101.533437, 0.000000)">
                        <path d="M14.4634526,30.4071429 C19.415978,30.4071429 23.4307932,26.1442541 23.4307932,20.8857143 C23.4307932,15.6271745 19.415978,11.3642857 14.4634526,11.3642857 L14.4634526,11.4257145 L10.8173173,11.4257145 L10.8173173,0 L14.4634526,0 C25.3270568,5.45595315e-16 34.1337481,9.3508528 34.1337481,20.8857143 C34.1337481,32.4205758 25.3270568,41.7714286 14.4634526,41.7714286 L14.4634526,41.8328574 L10.8173173,41.8328574 L10.8173173,30.4071429 L14.4634526,30.4071429 Z" id="Combined-Shape" fill="url(#linearGradient-2)"></path>
                        <rect id="Rectangle-3" fill="#3A4E6E" x="0" y="0" width="11.281493" height="42.0785714"></rect>
                    </g>
                    <path d="M150.439279,28.363923 L161.884051,27.6026646 C162.131889,29.5763073 162.63641,31.0800125 163.397629,32.1138253 C164.636821,33.7867225 166.40707,34.6231585 168.708428,34.6231585 C170.425595,34.6231585 171.748855,34.1955423 172.67825,33.3402972 C173.607644,32.485052 174.072335,31.4935464 174.072335,30.3657506 C174.072335,29.2943445 173.629772,28.3357325 172.744635,27.4898856 C171.859497,26.6440387 169.806009,25.8451954 166.584108,25.0933315 L179.237087,17.8895717 C181.51189,19.1207488 183.167073,20.6479494 184.202684,22.4712193 C185.238295,24.2944892 185.756092,26.3338894 185.756092,28.589481 C185.756092,31.2398012 185.065695,33.6833221 183.684881,35.9201172 C182.304066,38.1569122 180.374495,39.8532797 177.89611,41.0092704 C175.417725,42.1652611 172.293236,42.7432478 168.52255,42.7432478 C161.90172,42.7432478 157.316777,41.3899131 154.76758,38.6832031 C152.218384,35.9764932 150.775631,32.5367675 150.439279,28.363923 Z" id="S" fill="#3A4E6E"></path>
                    <path d="M166.584108,25.0933315 C161.308688,23.8339595 157.54691,22.1610874 155.29866,20.0746652 C153.032708,17.9882429 151.899749,15.3285643 151.899749,12.0955497 C151.899749,9.97153421 152.479505,7.96502758 153.639036,6.07596959 C154.798566,4.18691159 156.542261,2.70200271 158.870173,1.62119838 C161.198084,0.540394057 164.388958,0 168.442888,0 C173.417361,0 177.210119,0.982107459 179.821275,2.94635184 C182.43243,4.91059622 183.985824,8.03548359 184.481501,12.3211077 L173.142945,13.0259766 C172.841998,11.1651135 172.209134,9.81177878 171.244334,8.96593192 C170.279534,8.12008506 168.947422,7.69716797 167.247958,7.69716797 C165.849441,7.69716797 164.796143,8.01200625 164.088033,8.64169224 C163.379922,9.27137824 163.025873,10.0373281 163.025873,10.9395647 C163.025873,11.5974456 163.317964,12.1895295 163.902155,12.7158343 C164.468643,13.2609356 165.814032,13.7684361 167.938362,14.238351 C173.196079,15.4413332 176.962283,16.6583946 179.237087,17.8895717 L166.584108,25.0933315 Z" id="S-Copy" fill="url(#linearGradient-3)"></path>
                </g>
            </g>
        </g>
    </g>
</svg>