<?xml version="1.0" encoding="UTF-8"?>
<svg width="84px" height="42px" viewBox="0 0 84 42" version="1.1" xmlns="http://www.w3.org/2000/svg" xmlns:xlink="http://www.w3.org/1999/xlink">
    <!-- Generator: Sketch 49.3 (51167) - http://www.bohemiancoding.com/sketch -->
    <title>do</title>
    <desc>Created with Sketch.</desc>
    <defs>
        <linearGradient x1="8.14617328%" y1="98.9531994%" x2="50%" y2="0%" id="linearGradient-1">
            <stop stop-color="#6AE2B8" offset="0%"></stop>
            <stop stop-color="#6AD8CC" offset="56.119039%"></stop>
            <stop stop-color="#6AD0DC" offset="100%"></stop>
        </linearGradient>
    </defs>
    <g id="Welcome" stroke="none" stroke-width="1" fill="none" fill-rule="evenodd">
        <g id="Desktop" transform="translate(-910.000000, -564.000000)">
            <g id="Group" transform="translate(848.000000, 552.000000)">
                <g id="do" transform="translate(62.000000, 12.000000)">
                    <g id="O" transform="translate(44.876712, 0.000000)">
                        <path d="M19.5616438,41.6934307 C8.75804626,41.6934307 0,32.3600383 0,20.8467153 C0,9.33339237 8.75804626,0 19.5616438,0 C30.3652414,0 39.1232877,9.33339237 39.1232877,20.8467153 C39.1232877,32.3600383 30.3652414,41.6934307 19.5616438,41.6934307 Z M19.5616438,30.350365 C24.4868133,30.350365 28.4794521,26.0954361 28.4794521,20.8467153 C28.4794521,15.5979946 24.4868133,11.3430657 19.5616438,11.3430657 C14.6364744,11.3430657 10.6438356,15.5979946 10.6438356,20.8467153 C10.6438356,26.0954361 14.6364744,30.350365 19.5616438,30.350365 Z" id="Combined-Shape" fill="#EED04D"></path>
                        <ellipse id="Oval-Copy-2" fill="#3A4E6E" cx="19.5616438" cy="20.8467153" rx="8.91780822" ry="9.50364964"></ellipse>
                    </g>
                    <g id="D">
                        <path d="M14.3835616,30.350365 C19.3087311,30.350365 23.3013699,26.0954361 23.3013699,20.8467153 C23.3013699,15.5979946 19.3087311,11.3430657 14.3835616,11.3430657 L14.3835616,11.4043798 L10.7575663,11.4043798 L10.7575663,0 L14.3835616,0 C25.1871592,5.44576549e-16 33.9452055,9.33339237 33.9452055,20.8467153 C33.9452055,32.3600383 25.1871592,41.6934307 14.3835616,41.6934307 L14.3835616,41.7547448 L10.7575663,41.7547448 L10.7575663,30.350365 L14.3835616,30.350365 Z" id="Combined-Shape" fill="url(#linearGradient-1)"></path>
                        <rect id="Rectangle-3" fill="#3A4E6E" x="0" y="0" width="11.2191781" height="42"></rect>
                    </g>
                </g>
            </g>
        </g>
    </g>
</svg>